<?xml version="1.0" encoding="utf-8"?>
<!-- Generator: Adobe Illustrator 19.0.0, SVG Export Plug-In . SVG Version: 6.00 Build 0)  -->
<svg version="1.1" id="Layer_1" xmlns="http://www.w3.org/2000/svg" xmlns:xlink="http://www.w3.org/1999/xlink" x="0px" y="0px"
	 viewBox="0 0 19 14.5" style="enable-background:new 0 0 19 14.5;" xml:space="preserve">
<style type="text/css">
	.st0{fill:#FFFFFF;}
</style>
<g id="XMLID_2_">
	<path id="XMLID_29_" d="M-0.3,13.7c0-4.6,0-9.2,0-13.8c0.5,0,1.1,0,1.6,0c0,0.1,0,0.1,0,0.2c0,0.8-0.1,1.6-0.1,2.5
		C1.1,4.9,1,7.2,0.9,9.5c0,0,0,0.1,0,0.1c0,0.1,0.1,0.1,0.2,0.1c0.1,0,0.2,0,0.2-0.1c0-0.1,0.1-0.1,0.1-0.2C2,6.4,2.7,3.2,3.3,0.1
		c0-0.1,0.1-0.2,0.2-0.2c3.8,0,7.5,0,11.3,0c0.1,0,0.2,0,0.2,0.1c0.1,0.6,0.3,1.2,0.4,1.8c0,0,0,0.1,0,0.1c-0.4-0.2-0.7-0.3-1.1-0.4
		c-0.2-0.1-0.3-0.1-0.5-0.1c-0.1,0-0.1,0.1-0.1,0.2c0,0.2,0,0.4,0,0.6c-0.1,0-0.1,0-0.2-0.1c-0.7-0.3-1.5-0.6-2.2-0.9
		c-0.5-0.2-0.9-0.4-1.4-0.4c-1.1,0-2,0.5-2.6,1.3C7.3,2.4,7.2,2.5,7.1,2.6C7,2.5,6.9,2.5,6.8,2.4C6.5,2.3,6.2,2.2,6,2.1
		C5.6,2,5.1,1.9,4.7,2.1C4.1,2.3,3.6,2.7,3.3,3.3C3.2,3.5,3.1,3.7,3.1,3.9c0.1,0,0.1,0,0.1,0c0.3-0.1,0.7-0.1,1-0.2
		c0.1,0,0.1-0.1,0.2-0.2c0.1-0.4,0.6-0.7,1-0.6C5.6,3,5.7,3.3,5.5,3.5C5.4,3.7,5.2,3.8,5,4C4.4,4.7,3.8,5.3,3.2,5.9
		C3,6.1,3.1,6.3,3.1,6.5c0.2,0,0.4-0.1,0.6-0.1c1-0.2,1.9-0.4,2.9-0.6c0.1,0,0.1-0.1,0.1-0.1c0-0.2,0-0.4,0-0.6
		C6.2,5.1,5.7,5.3,5.1,5.4c0.1-0.1,0.1-0.1,0.2-0.2C5.5,4.9,5.8,4.7,6,4.4C6.2,4.2,6.4,4,6.6,3.7c0.2-0.4,0.2-0.7,0-1.1
		c0,0,0-0.1-0.1-0.1C6.7,2.6,6.9,2.7,7,2.7C7,3,6.9,3.2,6.9,3.4c0,0.6,0.1,1.1,0.5,1.5C7.9,5.2,8.4,5.4,9,5.3c0.5-0.1,1-0.2,1.4-0.3
		c0.1,0,0.1,0,0.2-0.1c0.5-0.3,0.8-0.7,1.1-1.2C12,2.9,12,2.1,11.3,1.4c0,0,0,0,0,0c0,0,0.1,0,0.1,0c0.7,0.3,1.5,0.6,2.2,0.9
		c0.1,0,0.1,0.1,0.1,0.2c0,0.5,0,1.1,0,1.6c0,0.1,0,0.1,0,0.2c0.1,0,0.2,0,0.3,0c0.1,0,0.2-0.1,0.2-0.2c0-0.3,0-0.5,0-0.8
		c0-0.1,0.1-0.2,0.2-0.2c0.1,0,0.1,0.1,0.1,0.2c0,0.3,0,0.6,0,0.9c0.1,0,0.2,0,0.3-0.1c0.1,0,0.2-0.1,0.2-0.2c0-0.4,0-0.7,0-1.1
		c0.3,0.1,0.5,0.2,0.8,0.3c0,0,0.1,0.1,0.1,0.1c0.1,0.3,0.2,0.7,0.3,1c0,0.1,0.1,0.2,0.1,0.4c-0.3-0.1-0.6-0.2-0.8-0.3
		c-0.1,0-0.2,0-0.3,0C11,5.1,7,5.9,2.9,6.7C2.7,6.8,2.7,6.8,2.7,7c0,0,0.1,0.1,0.1,0.1c0.1,0,0.1,0.1,0.2,0.1c0,0-0.1,0.1-0.1,0.1
		C2.7,7.6,2.7,8.1,3,8.3C3,8.3,3.2,8.4,3.2,8.4c0.2,0,0.4-0.1,0.7-0.1c0.2,0,0.3-0.1,0.3-0.3C4.1,8,4.1,8,4.1,7.9
		C3.9,7.9,3.8,7.8,3.7,8C3.7,8.1,3.6,8.1,3.4,8.1C3.3,8,3.2,7.8,3.2,7.6c0.1-0.2,0.3-0.3,0.4-0.2c0,0,0.1,0,0.1,0
		c0.1,0,0.2-0.1,0.3-0.2C4,7.2,4,7.1,3.9,7c0.1,0,0.2,0,0.2,0.1c0.2,0,0.2,0.1,0.2,0.3c0,0.3,0,0.5,0,0.8C4.7,8.1,5,8.1,5.3,8
		C5.5,8,5.6,8,5.5,7.7c-0.2,0-0.4,0.1-0.6,0.1c0-0.2,0-0.2,0.2-0.3c0,0,0.1,0,0.1,0c0.2,0,0.2-0.1,0.2-0.3c-0.2,0-0.3,0.1-0.5,0.1
		C4.8,7,4.8,7,5.1,7c0.1,0,0.3,0,0.3-0.1c0.1-0.1,0-0.2,0.1-0.3c0.3,0,0.3,0.1,0.3,0.3c0,0.1,0,0.3,0,0.4c0,0.2,0,0.4,0,0.6
		c0.2,0,0.3,0,0.5-0.1c0-0.2,0-0.5,0-0.7c0,0,0,0,0,0c0.1,0.1,0.3,0.2,0.4,0.4c0.1,0.2,0.3,0.2,0.5,0.2c0.2,0,0.2-0.1,0.2-0.3
		c0-0.4,0-0.8,0-1.2c0.3,0,0.3,0.2,0.3,0.4c0.1,0,0.3-0.1,0.4-0.1c0,0.4,0,0.7,0,1.1c0.1,0,0.2,0,0.3,0c0.1,0,0.2-0.1,0.2-0.2
		c0-0.2,0-0.4,0-0.6c0-0.3,0-0.3,0.3-0.3c0.1,0,0.1-0.1,0.1-0.2c0-0.1,0-0.2,0-0.3c0.3,0,0.3,0,0.3,0.2c0,0.2,0,0.4,0,0.6
		c0,0.1,0,0.2,0.1,0.4c0.1,0.1,0.2,0.2,0.3,0.2c0.2,0,0.3-0.1,0.5-0.1c0.3,0,0.4-0.1,0.4-0.4c0-0.2,0-0.5,0-0.7c0-0.1,0-0.3,0-0.5
		c0.5,0.1,0.5,0.1,0.5,0.6c0,0.3,0,0.5,0,0.8C11.5,7,11.6,7,11.8,7c0.2,0,0.2-0.1,0.2-0.2c0-0.1,0-0.2,0-0.3
		c0.2,0.1,0.4,0.2,0.5,0.3c0,0,0.1,0.1,0.1,0.1c0.2,0,0.5-0.1,0.7-0.1c-0.2-0.2-0.4-0.3-0.6-0.4c0.2-0.1,0.3-0.3,0.3-0.5
		c0-0.2-0.2-0.3-0.3-0.5c0.4,0.1,0.8,0.2,1,0.5c0,0.1,0.1,0.1,0.1,0.2c0,0.2,0,0.4,0,0.6c0.2,0,0.4-0.1,0.5-0.1
		c0.1,0,0.1-0.1,0.1-0.1c-0.1-0.4,0.1-0.7,0.3-1C14.8,5.2,14.9,5,15,4.9c0-0.1,0.1-0.1,0.2-0.2c0.3,0.1,0.6,0.3,1,0.4
		c0.1,0,0.2,0.1,0.2,0.2c0.1,0.6,0.3,1.2,0.5,1.8c0,0,0,0.1,0,0.1c-0.5-0.2-1-0.4-1.5-0.5c-0.1-0.1-0.3-0.1-0.4,0c-2,0.3-4,0.6-6,1
		c-2,0.3-4,0.6-6.1,1c0,0-0.1,0-0.1,0C2.6,8.8,2.7,9,2.8,9.1C3,9.1,3,9.2,3,9.3c0,0.5,0,1,0,1.6C3,10.9,3,11,3,11
		C3.3,11,3.5,11,3.8,11c0.1,0,0.1,0,0.1-0.1c0-0.3,0-0.3,0.4-0.4c0,0,0,0,0,0c0.3,0,0.6-0.1,0.9-0.1c0-0.2,0-0.4,0-0.6
		C4.8,9.8,4.4,9.8,3.9,9.9c0-0.2,0-0.3,0-0.5c0.1,0,0.1,0,0.2,0c0.4-0.1,0.7-0.1,1.1-0.2c0.1,0,0.2-0.1,0.2-0.2c0-0.1,0-0.3,0-0.4
		c0.3,0.1,0.5,0.2,0.8,0.2C6.1,8.9,6,9,6,9C5.7,9.3,5.6,9.6,5.7,9.9c0.1,0.4,0.5,0.8,1,0.7c0.8-0.1,1.6-0.2,2.4-0.3
		c0.2,0,0.4,0,0.6-0.1c0.5-0.2,0.8-0.9,0.5-1.4C10,8.7,9.7,8.5,9.5,8.4C9.2,8.3,9,8.2,8.7,8.1C8.9,8.1,9.2,8,9.4,8
		c0.1,0,0.2,0,0.2,0c0.6,0.3,1.2,0.6,1.8,0.9c0.1,0,0.1,0.1,0.2,0.1c-0.5,0.4-0.9,0.8-1.3,1.2c0,0,0,0,0,0c0.3,0,0.6-0.1,0.9-0.1
		c0.4,0,0.7-0.1,1-0.4c0.3-0.3,0.3-0.3,0.7-0.1c0.3,0.2,0.6,0.2,1,0.2c0.3-0.1,0.6-0.1,0.9-0.1c0,0,0,0,0,0c-0.5-0.3-1-0.6-1.5-0.9
		c0,0,0,0,0-0.1c0.6-0.5,1.2-1.1,1.8-1.6c0.1-0.1,0.1,0,0.2,0c0.5,0.2,1,0.4,1.6,0.6c0.1,0,0.2,0.1,0.2,0.2c0.1,0.5,0.2,0.9,0.4,1.4
		c0,0.1,0.1,0.2,0.2,0.2c0.1,0,0.2-0.1,0.2-0.3c-0.1-1.1-0.3-2.3-0.4-3.4C17.2,4.2,17,2.6,16.8,1c0-0.3-0.1-0.7-0.1-1
		c0.8,0,1.5,0,2.3,0c0,4.3,0,8.5,0,12.8c-0.3,0-0.5-0.1-0.8-0.1c0-0.1,0-0.1,0-0.2c0-0.6,0-1.2,0-1.8c0-0.2,0-0.3-0.3-0.3
		c-0.1,0-0.1,0-0.2,0c-0.3,0-0.3,0-0.4,0.3c-0.1,0-0.1,0-0.2-0.1c-0.6-0.2-1.2-0.4-1.8-0.6c-0.1,0-0.2,0-0.3,0c-0.5,0-1,0.1-1.5,0.2
		c-1.9,0.2-3.8,0.4-5.7,0.6C6.2,11,4.6,11.2,3,11.3c-0.5,0.1-0.9,0.3-1.1,0.7c-0.2,0.4-0.1,0.7,0.2,1c0.1,0.1,0.1,0.1,0.2,0.2
		c-0.3,0-0.6,0.1-0.9,0.1c0-0.1,0-0.1,0-0.2c0-0.6,0-1.3,0-1.9c0-0.4-0.1-0.4-0.5-0.4c0,0-0.1,0-0.1,0c-0.2,0-0.2,0.1-0.2,0.3
		c0,0.7,0,1.5,0,2.2c0,0.1,0,0.1,0,0.2C0.2,13.6,0,13.7-0.3,13.7z M12.9,2.6c-0.1,0-0.2,0-0.2,0c-0.1,0-0.2,0.1-0.2,0.2
		c0,0.3,0,0.6,0,0.9c0,0.2,0,0.5,0,0.7c0.2,0,0.3-0.1,0.4-0.1c0-0.3,0-0.7,0-1c0.1,0,0.2-0.1,0.4-0.1c0,0,0.1-0.1,0.1-0.1
		c0-0.1,0-0.2,0-0.3C13.2,2.9,13,3,12.9,3C12.9,2.9,12.9,2.7,12.9,2.6z M1.6,10.2c-0.3-0.1-0.7-0.1-1-0.2c-0.1,0-0.1,0-0.1,0.1
		c0,0.3,0.2,0.6,0.5,0.6C1.3,10.7,1.6,10.5,1.6,10.2z M17.1,9.7c0,0.3,0.3,0.5,0.6,0.5c0.4,0,0.6-0.3,0.5-0.6
		C17.8,9.6,17.4,9.7,17.1,9.7z"/>
	<path id="XMLID_19_" class="st0" d="M19-0.1c-0.8,0-1.5,0-2.3,0c0,0.4,0.1,0.7,0.1,1c0.2,1.6,0.4,3.3,0.5,4.9
		c0.1,1.1,0.3,2.3,0.4,3.4c0,0.2,0,0.2-0.2,0.3c-0.1,0-0.2,0-0.2-0.2c-0.1-0.5-0.2-0.9-0.4-1.4c0-0.1-0.1-0.2-0.2-0.2
		c-0.5-0.2-1-0.4-1.6-0.6c-0.1,0-0.1,0-0.2,0c-0.6,0.5-1.2,1.1-1.8,1.6c0,0,0,0,0,0.1c0.5,0.3,1,0.6,1.5,0.9c0,0,0,0,0,0
		c-0.3,0-0.6,0.1-0.9,0.1c-0.4,0.1-0.7,0-1-0.2c-0.4-0.2-0.4-0.2-0.7,0.1c-0.3,0.3-0.6,0.4-1,0.4c-0.3,0-0.6,0.1-0.9,0.1
		c0,0,0,0,0,0c0.4-0.4,0.9-0.8,1.3-1.2C11.5,9,11.4,9,11.4,9C10.8,8.7,10.2,8.3,9.6,8C9.5,8,9.5,8,9.4,8C9.2,8,8.9,8.1,8.7,8.1
		C9,8.2,9.2,8.3,9.5,8.4c0.3,0.1,0.5,0.3,0.7,0.6c0.3,0.5,0,1.2-0.5,1.4c-0.2,0.1-0.4,0.1-0.6,0.1c-0.8,0.1-1.6,0.2-2.4,0.3
		c-0.4,0-0.9-0.3-1-0.7C5.6,9.6,5.7,9.3,6,9C6,9,6.1,8.9,6.2,8.8C5.9,8.7,5.7,8.6,5.4,8.6c0,0.2,0,0.3,0,0.4c0,0.1,0,0.2-0.2,0.2
		c-0.4,0-0.7,0.1-1.1,0.2c-0.1,0-0.1,0-0.2,0c0,0.2,0,0.3,0,0.5c0.4-0.1,0.9-0.1,1.3-0.2c0,0.2,0,0.4,0,0.6c-0.3,0-0.6,0.1-0.9,0.1
		c0,0,0,0,0,0c-0.4,0-0.4,0-0.4,0.4c0,0.1,0,0.1-0.1,0.1C3.5,11,3.3,11,3,11c0-0.1,0-0.1,0-0.2c0-0.5,0-1,0-1.6c0-0.1,0-0.2-0.2-0.2
		C2.7,9,2.6,8.8,2.7,8.7c0,0,0.1,0,0.1,0c2-0.3,4-0.6,6.1-1c2-0.3,4-0.6,6-1c0.1,0,0.3,0,0.4,0c0.5,0.2,1,0.4,1.5,0.5
		c0-0.1,0-0.1,0-0.1c-0.2-0.6-0.3-1.2-0.5-1.8c0-0.1-0.1-0.2-0.2-0.2c-0.3-0.1-0.6-0.3-1-0.4c-0.1,0.1-0.1,0.1-0.2,0.2
		c-0.1,0.2-0.2,0.3-0.4,0.5c-0.3,0.3-0.4,0.6-0.3,1c0,0.1,0,0.1-0.1,0.1c-0.2,0-0.3,0.1-0.5,0.1c0-0.2,0-0.4,0-0.6
		c0-0.1,0-0.1-0.1-0.2c-0.2-0.3-0.6-0.4-1-0.5c0.2,0.2,0.3,0.3,0.3,0.5c0,0.2-0.1,0.3-0.3,0.5c0.2,0.1,0.4,0.3,0.6,0.4
		c-0.3,0-0.5,0.1-0.7,0.1c0,0-0.1,0-0.1-0.1c-0.2-0.1-0.3-0.2-0.5-0.3c0,0.1,0,0.2,0,0.3c0,0.1,0,0.2-0.2,0.2c-0.1,0-0.3,0-0.4,0.1
		c0-0.3,0-0.6,0-0.8c0-0.4,0-0.4-0.5-0.6c0,0.2,0,0.3,0,0.5c0,0.2,0,0.5,0,0.7c-0.1,0.3-0.2,0.4-0.4,0.4c-0.2,0-0.3,0.1-0.5,0.1
		c-0.2,0-0.3,0-0.3-0.2c0-0.1-0.1-0.2-0.1-0.4c0-0.2,0-0.4,0-0.6c0-0.2,0-0.2-0.3-0.2c0,0.1,0,0.2,0,0.3c0,0.1,0,0.1-0.1,0.2
		C8.7,6.4,8.7,6.4,8.7,6.7c0,0.2,0,0.4,0,0.6c0,0.1,0,0.2-0.2,0.2c-0.1,0-0.2,0-0.3,0c0-0.4,0-0.7,0-1.1c-0.2,0-0.3,0.1-0.4,0.1
		c0-0.2,0.1-0.4-0.3-0.4c0,0.4,0,0.8,0,1.2c0,0.2-0.1,0.2-0.2,0.3c-0.2,0-0.4,0-0.5-0.2C6.7,7.4,6.5,7.3,6.4,7.2c0,0,0,0,0,0
		c0,0.2,0,0.4,0,0.7c-0.2,0-0.3,0-0.5,0.1c0-0.2,0-0.4,0-0.6c0-0.1,0-0.3,0-0.4c0-0.3,0-0.3-0.3-0.3c0,0.1,0,0.2-0.1,0.3
		C5.4,6.9,5.2,6.9,5.1,7C4.8,7,4.8,7,4.9,7.3c0.2,0,0.4-0.1,0.5-0.1c0.1,0.2,0.1,0.3-0.2,0.3c0,0-0.1,0-0.1,0c-0.2,0-0.2,0-0.2,0.3
		c0.2,0,0.4-0.1,0.6-0.1C5.6,8,5.5,8,5.3,8C5,8.1,4.7,8.1,4.4,8.2c0-0.3,0-0.5,0-0.8c0-0.2-0.1-0.2-0.2-0.3C4.1,7.1,4,7.1,3.9,7
		C4,7.1,4,7.2,4.1,7.3C4,7.4,3.9,7.4,3.8,7.5c0,0-0.1,0-0.1,0c-0.2-0.1-0.4,0-0.4,0.2C3.2,7.8,3.3,8,3.4,8.1c0.1,0,0.2,0,0.3-0.1
		c0.1-0.2,0.2-0.1,0.3-0.1c0,0,0.1,0,0.2,0.1c0,0.1-0.2,0.2-0.3,0.3c-0.2,0-0.4,0.1-0.7,0.1C3.2,8.4,3,8.3,3,8.3
		c-0.3-0.2-0.3-0.7-0.1-1c0,0,0.1-0.1,0.1-0.1c-0.1,0-0.1,0-0.2-0.1c0,0-0.1-0.1-0.1-0.1c0-0.2,0-0.2,0.2-0.3C7,5.9,11,5.1,15,4.2
		c0.1,0,0.2,0,0.3,0c0.3,0.1,0.5,0.2,0.8,0.3c0-0.1-0.1-0.3-0.1-0.4c-0.1-0.3-0.2-0.7-0.3-1c0-0.1-0.1-0.1-0.1-0.1
		c-0.3-0.1-0.5-0.2-0.8-0.3c0,0.4,0,0.7,0,1.1c0,0.1,0,0.2-0.2,0.2c-0.1,0-0.2,0-0.3,0.1c0-0.3,0-0.6,0-0.9c0-0.1,0-0.2-0.1-0.2
		c-0.1,0-0.2,0.1-0.2,0.2c0,0.3,0,0.5,0,0.8c0,0.1,0,0.2-0.2,0.2c-0.1,0-0.2,0-0.3,0c0-0.1,0-0.1,0-0.2c0-0.5,0-1.1,0-1.6
		c0-0.1,0-0.1-0.1-0.2c-0.7-0.3-1.5-0.6-2.2-0.9c0,0,0,0-0.1,0c0,0,0,0,0,0C12,2.1,12,2.9,11.7,3.7c-0.2,0.5-0.6,0.9-1.1,1.2
		c0,0-0.1,0.1-0.2,0.1C9.9,5,9.5,5.1,9,5.3c-0.6,0.1-1.1,0-1.5-0.4C7,4.5,6.9,3.9,6.9,3.4C6.9,3.2,7,3,7,2.7
		C6.9,2.7,6.7,2.6,6.5,2.5c0,0.1,0,0.1,0.1,0.1c0.2,0.4,0.2,0.7,0,1.1C6.4,4,6.2,4.2,6,4.4C5.8,4.7,5.5,4.9,5.3,5.2
		C5.2,5.2,5.2,5.3,5.1,5.4C5.7,5.3,6.2,5.1,6.7,5c0,0.2,0,0.4,0,0.6c0,0-0.1,0.1-0.1,0.1C5.6,6,4.7,6.1,3.7,6.3
		c-0.2,0-0.4,0.1-0.6,0.1c0-0.2,0-0.4,0.1-0.6C3.8,5.3,4.4,4.7,5,4c0.2-0.2,0.3-0.4,0.5-0.5C5.7,3.3,5.6,3,5.3,3
		c-0.4-0.1-0.9,0.2-1,0.6c0,0.1-0.1,0.1-0.2,0.2c-0.3,0.1-0.7,0.1-1,0.2c0,0,0,0-0.1,0c0.1-0.2,0.1-0.4,0.2-0.6
		c0.3-0.6,0.7-1,1.4-1.2C5.1,1.9,5.6,2,6,2.1c0.3,0.1,0.6,0.2,0.8,0.4c0.1,0,0.2,0.1,0.3,0.2c0.1-0.1,0.1-0.2,0.2-0.3
		C8,1.4,8.8,0.9,9.9,0.9c0.5,0,1,0.2,1.4,0.4c0.7,0.3,1.5,0.6,2.2,0.9c0.1,0,0.1,0,0.2,0.1c0-0.2,0-0.4,0-0.6c0-0.1,0-0.1,0.1-0.2
		c0.2,0,0.4,0,0.5,0.1c0.3,0.2,0.7,0.3,1.1,0.4c0-0.1,0-0.1,0-0.1c-0.1-0.6-0.3-1.2-0.4-1.8c0-0.1-0.1-0.1-0.2-0.1
		c-3.8,0-7.5,0-11.3,0c-0.1,0-0.2,0-0.2,0.2C2.7,3.2,2,6.4,1.4,9.5c0,0.1,0,0.2-0.1,0.2c0,0.1-0.1,0.1-0.2,0.1C1.1,9.8,1,9.7,1,9.7
		c0,0,0-0.1,0-0.1c0.1-2.3,0.2-4.7,0.3-7c0-0.8,0.1-1.6,0.1-2.5c0-0.1,0-0.1,0-0.2c5.8,0,11.7,0,17.5,0C18.9-0.1,19-0.1,19-0.1z
		 M9.2,4.3c0.6,0,1.1-0.3,1.4-0.9c0.4-0.7-0.1-1.5-0.9-1.5C9,1.9,8.2,2.5,8,3.1C7.9,3.8,8.3,4.3,9.2,4.3z M8.1,8.8
		c-0.3,0-0.7,0.1-0.9,0.2C7,9.2,6.8,9.3,6.7,9.5c-0.1,0.2,0,0.3,0.1,0.4c0.5,0.3,1.5,0.2,2-0.2c0.3-0.3,0.3-0.6-0.2-0.7
		C8.5,8.9,8.3,8.8,8.1,8.8z M14.1,2.8c0.2-0.3,0.4-0.3,0.7-0.1c0.3,0.1,0.6,0.2,0.9,0.4c0-0.1-0.1-0.2-0.1-0.3
		c-0.1-0.2-0.1-0.4-0.2-0.6c-0.1-0.1-0.4-0.2-0.6-0.3c-0.2-0.1-0.5-0.2-0.7-0.3C14.1,1.9,14.1,2.3,14.1,2.8z M11.2,7.7
		C11.2,7.7,11.2,7.7,11.2,7.7c0.3,0.2,0.7,0.4,1,0.6c0,0,0.1,0,0.1,0C12.6,8.2,12.8,8,13,7.9C12.4,7.8,11.8,7.8,11.2,7.7z M9.9,5.8
		c0,0.3,0,0.6,0,0.9c0,0.1,0,0.2,0.2,0.2c0.1,0,0.2-0.1,0.2-0.2c0-0.2,0-0.5,0-0.7c0,0,0-0.1-0.1-0.1C10.1,5.9,10,5.9,9.9,5.8z
		 M6.4,6.4C6.4,6.4,6.4,6.5,6.4,6.4C6.6,6.7,6.8,6.9,7,7.1c0-0.2,0-0.3,0-0.4c0,0,0-0.1-0.1-0.1C6.8,6.5,6.6,6.5,6.4,6.4z M11.9,6.1
		c0.1,0,0.2,0,0.3-0.1c0.1,0,0.1-0.1,0.1-0.2c0,0-0.1-0.1-0.2-0.1c-0.2,0-0.2,0-0.2,0.2C11.9,6,11.9,6,11.9,6.1z M13.6,5.1
		C13.6,5.1,13.6,5.1,13.6,5.1c0.1,0.2,0.3,0.3,0.4,0.5c0.1-0.1,0.1-0.2,0.2-0.3C14,5.2,13.8,5.1,13.6,5.1z"/>
	<path id="XMLID_18_" d="M19,13c0,0.5,0,1,0,1.4c-6.4,0-12.9,0-19.3,0c0-0.2,0-0.3,0-0.5c0,0,0.1,0,0.1,0c0.6-0.1,1.3-0.2,1.9-0.3
		c0.5-0.1,1-0.1,1.5-0.2c-0.1-0.1-0.2-0.1-0.4-0.2c-0.2-0.1-0.4-0.2-0.6-0.4c-0.3-0.2-0.3-0.6,0-0.9c0.2-0.2,0.4-0.4,0.7-0.4
		c0.5-0.1,1-0.1,1.5-0.1c0.9,0.1,1.7,0.2,2.6,0.3c1.7,0.2,3.3,0.3,5,0.5c1.7,0.2,3.3,0.3,5,0.5C17.7,12.9,18.4,13,19,13z"/>
	<path id="XMLID_15_" class="st0" d="M19,13c-0.7-0.1-1.3-0.1-2-0.2c-1.7-0.2-3.3-0.3-5-0.5c-1.7-0.2-3.3-0.3-5-0.5
		c-0.9-0.1-1.7-0.2-2.6-0.3c-0.5,0-1,0-1.5,0.1c-0.3,0.1-0.5,0.2-0.7,0.4c-0.2,0.3-0.2,0.6,0,0.9c0.2,0.2,0.4,0.3,0.6,0.4
		c0.1,0.1,0.2,0.1,0.4,0.2c-0.5,0.1-1,0.1-1.5,0.2c-0.6,0.1-1.3,0.2-1.9,0.3c0,0-0.1,0-0.1,0c0-0.1,0-0.2,0-0.3
		c0.3,0,0.5-0.1,0.8-0.1c0-0.1,0-0.1,0-0.2c0-0.7,0-1.5,0-2.2C0.5,11,0.6,11,0.8,11c0,0,0.1,0,0.1,0c0.4,0,0.5,0,0.5,0.4
		c0,0.6,0,1.3,0,1.9c0,0.1,0,0.1,0,0.2c0.3,0,0.6-0.1,0.9-0.1c-0.1-0.1-0.2-0.2-0.2-0.2c-0.3-0.3-0.3-0.7-0.2-1
		c0.2-0.4,0.6-0.7,1.1-0.7c1.6-0.2,3.2-0.4,4.8-0.5c1.9-0.2,3.8-0.4,5.7-0.6c0.5-0.1,1-0.1,1.5-0.2c0.1,0,0.2,0,0.3,0
		c0.6,0.2,1.2,0.4,1.8,0.6c0.1,0,0.1,0,0.2,0.1c0.1-0.3,0.1-0.3,0.4-0.3c0.1,0,0.1,0,0.2,0c0.2,0,0.3,0.1,0.3,0.3c0,0.6,0,1.2,0,1.8
		c0,0.1,0,0.1,0,0.2c0.3,0,0.6,0.1,0.8,0.1C19,12.8,19,12.9,19,13z M17.3,12.5C17.3,12.5,17.3,12.5,17.3,12.5c0-0.5,0-0.9,0-1.3
		c0,0-0.1-0.1-0.1-0.1c-0.6-0.2-1.3-0.4-1.9-0.7c-0.1,0-0.2,0-0.2,0c-0.9,0.1-1.7,0.2-2.6,0.3C10.6,10.9,8.8,11,7,11.2
		c-0.5,0.1-1,0.1-1.6,0.2c0,0,0,0,0,0C9.4,11.8,13.3,12.2,17.3,12.5z"/>
	<path id="XMLID_14_" class="st0" d="M12.9,2.6c0,0.1,0,0.2,0,0.4c0.2,0,0.3-0.1,0.5-0.1c0,0.1,0,0.2,0,0.3c0,0-0.1,0.1-0.1,0.1
		c-0.1,0-0.2,0.1-0.4,0.1c0,0.3,0,0.7,0,1c-0.1,0-0.3,0.1-0.4,0.1c0-0.3,0-0.5,0-0.7c0-0.3,0-0.6,0-0.9c0-0.1,0-0.2,0.2-0.2
		C12.7,2.7,12.8,2.6,12.9,2.6z"/>
	<path id="XMLID_13_" class="st0" d="M1.6,10.2c0,0.3-0.3,0.5-0.6,0.5c-0.3,0-0.5-0.3-0.5-0.6c0-0.1,0-0.1,0.1-0.1
		C0.9,10,1.3,10.1,1.6,10.2z"/>
	<path id="XMLID_12_" class="st0" d="M17.1,9.7c0.4-0.1,0.7-0.1,1.1-0.2c0.1,0.3-0.1,0.6-0.5,0.6C17.4,10.2,17.1,10,17.1,9.7z"/>
	<path id="XMLID_11_" d="M9.2,4.3C8.3,4.3,7.9,3.8,8,3.1c0.2-0.6,1-1.2,1.6-1.2c0.8,0,1.3,0.8,0.9,1.5C10.3,4,9.8,4.3,9.2,4.3z"/>
	<path id="XMLID_10_" d="M8.1,8.8c0.2,0,0.4,0.1,0.6,0.1c0.4,0.1,0.5,0.4,0.2,0.7c-0.4,0.4-1.5,0.5-2,0.2C6.7,9.8,6.6,9.6,6.7,9.5
		C6.8,9.3,7,9.2,7.1,9.1C7.4,8.9,7.7,8.8,8.1,8.8z"/>
	<path id="XMLID_9_" d="M14.1,2.8c0-0.4,0-0.8,0-1.3c0.3,0.1,0.5,0.2,0.7,0.3c0.2,0.1,0.5,0.1,0.6,0.3c0.1,0.1,0.1,0.4,0.2,0.6
		c0,0.1,0,0.2,0.1,0.3c-0.3-0.1-0.6-0.2-0.9-0.4C14.6,2.5,14.4,2.5,14.1,2.8z"/>
	<path id="XMLID_8_" d="M11.2,7.7c0.6,0,1.1,0.1,1.7,0.1c-0.2,0.2-0.4,0.3-0.6,0.5c0,0-0.1,0-0.1,0C11.9,8.1,11.6,7.9,11.2,7.7
		C11.2,7.7,11.2,7.7,11.2,7.7z"/>
	<path id="XMLID_7_" d="M9.9,5.8c0.1,0,0.2,0.1,0.3,0.1c0,0,0.1,0.1,0.1,0.1c0,0.2,0,0.5,0,0.7c0,0.1-0.1,0.2-0.2,0.2
		c-0.2,0-0.2-0.1-0.2-0.2C9.9,6.4,9.9,6.1,9.9,5.8z"/>
	<path id="XMLID_6_" d="M6.4,6.4C6.6,6.5,6.8,6.5,7,6.6c0,0,0.1,0.1,0.1,0.1c0,0.1,0,0.3,0,0.4C6.8,6.9,6.6,6.7,6.4,6.4
		C6.4,6.5,6.4,6.4,6.4,6.4z"/>
	<path id="XMLID_5_" d="M11.9,6.1c0-0.1,0-0.1,0-0.2c0-0.2,0-0.2,0.2-0.2c0.1,0,0.2,0.1,0.2,0.1c0,0.1,0,0.1-0.1,0.2
		C12.1,6.1,12,6.1,11.9,6.1z"/>
	<path id="XMLID_4_" d="M13.6,5.1c0.2,0.1,0.4,0.1,0.6,0.2c-0.1,0.1-0.1,0.2-0.2,0.3C13.8,5.4,13.7,5.3,13.6,5.1
		C13.6,5.1,13.6,5.1,13.6,5.1z"/>
	<path id="XMLID_3_" d="M17.3,12.5c-3.9-0.4-7.9-0.8-11.8-1.1c0,0,0,0,0,0c0.5-0.1,1-0.1,1.6-0.2c1.8-0.2,3.6-0.4,5.4-0.5
		c0.9-0.1,1.7-0.2,2.6-0.3c0.1,0,0.2,0,0.2,0c0.6,0.2,1.3,0.4,1.9,0.7c0,0,0.1,0.1,0.1,0.1C17.3,11.6,17.3,12.1,17.3,12.5
		C17.3,12.5,17.3,12.5,17.3,12.5z"/>
</g>
</svg>
