<?xml version="1.0" encoding="utf-8"?>
<!-- Generator: Adobe Illustrator 19.0.0, SVG Export Plug-In . SVG Version: 6.00 Build 0)  -->
<svg version="1.1" id="Layer_1" xmlns="http://www.w3.org/2000/svg" xmlns:xlink="http://www.w3.org/1999/xlink" x="0px" y="0px"
	 viewBox="0 0 18 7.9" style="enable-background:new 0 0 18 7.9;" xml:space="preserve">
<style type="text/css">
	.st0{display:none;fill:#FFFFFF;}
</style>
<g id="XMLID_57_">
	<path id="XMLID_109_" d="M0.9,7.6C0.9,7.6,0.8,7.6,0.9,7.6C0.6,7.6,0.6,7.4,0.6,7.2c0-0.3,0-0.6-0.1-1c0,0,0-0.1,0-0.1
		C0.8,6,0.9,5.8,1.1,5.5C1.2,5,1.4,4.6,1.6,4.2c0.2-0.5,0.4-0.9,0.6-1.4c0,0,0.1-0.1,0.1-0.1c-0.1,0-0.1,0-0.1,0
		C2.1,2.8,2,2.8,1.8,2.9C1.7,3,1.6,3,1.4,2.9c0,0,0,0,0,0c0-0.1,0-0.2,0-0.3c0-0.7,0.3-1.2,0.9-1.6c0.4-0.3,0.8-0.3,1.3-0.3
		C4,0.8,4.4,1,4.7,1.3c0,0,0.1,0,0.1,0c0.1,0,0.3,0,0.4,0c0.1,0,0.3,0.1,0.3,0.2c0,0.1,0,0.3-0.2,0.3C5.2,1.9,5.1,1.9,5,2
		C5,2,5,2,5,2c0,0.1,0,0.2,0,0.3c0,0.5-0.2,0.9-0.5,1.2C4.4,3.6,4.3,3.7,4.3,3.8c0.5,0.6,0.6,1.3,0.4,2c0,0,0,0,0.1-0.1
		c0.5-0.5,0.8-1,1.1-1.6c0-0.1,0-0.1,0-0.1C5.6,3.7,5.5,3.5,5.6,3.2C5.7,3,5.9,2.8,6.2,2.8c0.3,0,0.5,0.1,0.6,0.4
		c0,0.1,0,0.2,0.1,0.3c0,0,0,0,0.1,0C7,3.4,7.2,3.3,7.3,3.3c0.1,0,0.2,0,0.3,0c0.1,0.1,0.1,0.2,0.1,0.3c0,0,0,0.1,0,0.1
		C7.6,4,7.5,4.3,7.4,4.6c0,0.1,0,0.2,0,0.3c0,0,0,0,0,0c0.1-0.1,0.2-0.1,0.2-0.2c0.2-0.2,0.4-0.5,0.5-0.9C8.3,3.5,8.5,3.2,8.7,3
		C9.1,2.6,9.5,2.5,10,2.7c0,0,0,0,0.1,0c0,0,0.1,0,0.1,0c0.1,0,0.2,0,0.2,0c0.2,0,0.4,0,0.6-0.1c0,0,0,0.1,0,0.1
		c-0.2,0.5-0.4,1-0.6,1.5c0,0.1,0,0.1-0.1,0.2c0,0,0,0,0,0c0,0,0,0,0.1-0.1c0.1-0.1,0.2-0.3,0.3-0.4c0.2-0.4,0.5-0.7,0.7-1.1
		c0.2-0.2,0.4-0.5,0.6-0.6c0.2-0.1,0.4-0.2,0.6-0.1c0.2,0,0.3,0.1,0.4,0.3c0.1-0.3,0.3-0.4,0.6-0.4c0.3,0,0.5,0.2,0.5,0.5
		c0.2-0.1,0.4-0.2,0.4-0.4c0.1-0.2,0.3-0.4,0.5-0.5c0.3-0.1,0.7,0,0.8,0.4c0.1,0.2-0.1,0.5-0.3,0.6c0,0,0,0,0,0
		c0.1,0.1,0.1,0.1,0.2,0.1c0,0,0,0,0,0c0.1,0,0.1,0,0.1-0.1c0.1-0.2,0.2-0.4,0.3-0.5c0.1-0.3,0.3-0.6,0.5-0.8C16.6,1.1,16.8,1,17,1
		c0.1,0,0.3,0,0.3,0.1c0.1,0.1,0.1,0.2,0,0.3c-0.2,0.2-0.2,0.5-0.1,0.7c0,0.2,0.1,0.4,0.2,0.5c0,0.1,0,0.2,0,0.3c0,0,0,0.1,0,0.1
		c0,0,0,0.1,0,0.1c-0.1,1-1.1,1.6-2,1.1c0,0-0.1,0-0.1,0c-0.1,0.1-0.2,0.1-0.3,0.2c-0.2,0.1-0.4,0.1-0.6,0c-0.5-0.1-0.7-0.5-0.5-1
		c0-0.1,0-0.1,0.1-0.2c-0.2,0-0.2,0-0.3,0.2c-0.1,0.2-0.2,0.3-0.3,0.5c-0.2,0.3-0.4,0.6-0.7,0.8c-0.2,0.1-0.4,0.2-0.7,0.2
		c-0.3,0-0.5-0.2-0.6-0.5c0-0.1,0-0.2,0-0.3c0.1-0.3,0.2-0.5,0.3-0.8c0-0.1,0.1-0.1,0.1-0.2c0,0,0,0,0,0c-0.1,0.1-0.1,0.2-0.2,0.2
		c-0.2,0.4-0.5,0.7-0.7,1.1c-0.2,0.3-0.4,0.5-0.6,0.7c-0.3,0.2-0.6,0.2-0.9,0c0,0-0.1,0-0.1,0c-0.1,0-0.2,0.1-0.3,0.1
		C8.8,5.5,8.6,5.4,8.3,5.2c0,0,0,0-0.1,0c0,0,0,0.1-0.1,0.1C8,5.5,7.7,5.7,7.3,5.7C6.9,5.8,6.6,5.6,6.5,5.2c0-0.2,0-0.3,0-0.5
		c0-0.1,0.1-0.3,0.1-0.4c-0.1,0-0.1,0-0.1,0.1c0,0,0,0.1-0.1,0.1c-0.3,0.5-0.6,1-1,1.4C5.3,6,5.1,6.2,5,6.3c-0.2,0.1-0.4,0-0.4-0.2
		c0,0,0,0,0-0.1c0,0,0,0.1,0,0.1C4.4,6.2,4.3,6.4,4.1,6.5C3.5,7.2,2.5,7.1,2,6.6c-0.1-0.1-0.1-0.3,0-0.4C2,6.1,2.2,6,2.3,6.1
		c0.4,0.2,0.9,0.1,1.1-0.3c0.3-0.3,0.4-0.7,0.3-1.1c0-0.2,0-0.3-0.1-0.5c0,0,0-0.1-0.1,0C3.3,4.3,3,4.2,2.9,3.9c0-0.1,0-0.2-0.1-0.3
		c0,0,0,0,0,0.1C2.7,3.8,2.7,4,2.6,4.1C2.4,4.8,2.2,5.5,1.9,6.2C1.8,6.6,1.6,6.9,1.3,7.3C1.2,7.4,1.1,7.6,0.9,7.6z M3,3.2
		c0.2-0.1,0.4-0.2,0.6-0.1c0,0,0.1,0,0.1,0C3.8,3,3.9,2.9,3.9,2.8C4,2.7,4,2.5,4,2.4c0,0,0,0,0,0C3.6,2.6,3.3,2.9,3,3.2z M9,4.4
		c0,0,0,0.1,0.1,0.1c0,0,0.1-0.1,0.1-0.1c0,0,0,0,0,0c0.2-0.2,0.3-0.5,0.3-0.8c0-0.1,0-0.1,0-0.2c-0.1,0-0.1,0.1-0.2,0.1
		C9.1,3.8,9,4,9,4.4z M3.5,1.7C3.3,1.5,2.9,1.6,2.7,1.7C2.6,1.9,2.5,2.2,2.5,2.4C2.8,2.1,3.1,1.8,3.5,1.7z M16.6,2.6
		c-0.2,0.3-0.3,0.6-0.5,0.9C16.4,3.5,16.7,3,16.6,2.6z M12.5,3.9C12.5,3.9,12.5,3.9,12.5,3.9c0.1,0,0.1,0,0.1-0.1
		c0.1-0.2,0.2-0.3,0.3-0.5c0.1-0.1,0.1-0.1,0-0.2c0,0,0-0.1-0.1-0.1C12.7,3.4,12.6,3.6,12.5,3.9z M14.8,3.4
		c-0.1,0.1-0.1,0.1-0.1,0.2c0,0,0,0.1,0,0.1c0,0,0.1,0,0.1,0C14.9,3.6,14.9,3.5,14.8,3.4z M15.3,2.5c0-0.1-0.1-0.1-0.1-0.2
		c0,0.1-0.1,0.1-0.1,0.2C15.2,2.5,15.2,2.5,15.3,2.5z"/>
	<path id="XMLID_108_" class="st0" d="M0.9,7.6c0.2-0.1,0.3-0.2,0.4-0.4c0.3-0.3,0.4-0.7,0.6-1.1c0.3-0.7,0.5-1.4,0.7-2.1
		C2.7,4,2.7,3.8,2.8,3.7c0,0,0,0,0-0.1c0,0.1,0,0.2,0.1,0.3C3,4.2,3.3,4.3,3.5,4.2c0,0,0.1,0,0.1,0c0.1,0.1,0.1,0.3,0.1,0.5
		c0,0.4-0.1,0.8-0.3,1.1C3.1,6.2,2.7,6.3,2.3,6.1C2.2,6,2,6.1,1.9,6.2C1.9,6.3,1.9,6.4,2,6.6c0.5,0.6,1.5,0.6,2.1,0
		c0.1-0.1,0.2-0.3,0.3-0.5c0,0,0,0,0-0.1c0,0,0,0,0,0.1C4.6,6.3,4.8,6.4,5,6.3C5.1,6.2,5.3,6,5.4,5.9c0.4-0.4,0.7-0.9,1-1.4
		c0,0,0-0.1,0.1-0.1c0-0.1,0-0.1,0.1-0.1c0,0.1-0.1,0.3-0.1,0.4c0,0.2,0,0.3,0,0.5c0.1,0.4,0.4,0.6,0.8,0.5C7.7,5.7,8,5.5,8.2,5.2
		c0,0,0-0.1,0.1-0.1c0,0,0,0,0.1,0c0.2,0.2,0.5,0.3,0.8,0.2c0.1,0,0.2-0.1,0.3-0.1c0,0,0.1,0,0.1,0c0.3,0.2,0.6,0.2,0.9,0
		C10.7,5,10.8,4.8,11,4.5c0.2-0.4,0.5-0.7,0.7-1.1c0.1-0.1,0.1-0.2,0.2-0.2c0,0,0,0,0,0c0,0.1-0.1,0.1-0.1,0.2
		c-0.1,0.2-0.3,0.5-0.3,0.8c0,0.1,0,0.2,0,0.3c0,0.3,0.3,0.5,0.6,0.5c0.2,0,0.5-0.1,0.7-0.2C13,4.5,13.2,4.3,13.4,4
		c0.1-0.1,0.2-0.3,0.3-0.5c0.1-0.2,0.1-0.2,0.3-0.2c0,0.1,0,0.1-0.1,0.2c-0.2,0.5,0.1,0.9,0.5,1c0.2,0,0.4,0,0.6,0
		c0.1,0,0.2-0.1,0.3-0.2c0,0,0.1,0,0.1,0c0.9,0.4,1.9-0.2,2-1.1c0,0,0-0.1,0-0.1c0,1.5,0,3,0,4.5C11.9,7.6,6.4,7.6,0.9,7.6z"/>
	<path id="XMLID_107_" class="st0" d="M17.4,3c0-0.1,0-0.2,0-0.3c0-0.2-0.1-0.3-0.2-0.5c-0.1-0.3,0-0.5,0.1-0.7
		c0.1-0.1,0.1-0.2,0-0.3C17.3,1,17.2,1,17,1c-0.2,0-0.4,0.2-0.5,0.3c-0.2,0.2-0.4,0.5-0.5,0.8c-0.1,0.2-0.2,0.3-0.3,0.5
		c0,0,0,0.1-0.1,0.1c0,0,0,0,0,0c-0.1,0-0.1,0-0.2-0.1c0,0,0,0,0,0c0.2,0,0.4-0.3,0.3-0.6c-0.1-0.4-0.5-0.5-0.8-0.4
		c-0.2,0.1-0.4,0.3-0.5,0.5c-0.1,0.2-0.3,0.3-0.4,0.4c-0.1-0.3-0.2-0.5-0.5-0.5c-0.3,0-0.5,0.1-0.6,0.4c-0.1-0.1-0.2-0.2-0.4-0.3
		c-0.2,0-0.4,0-0.6,0.1c-0.3,0.2-0.4,0.4-0.6,0.6c-0.2,0.4-0.5,0.7-0.7,1.1c-0.1,0.1-0.2,0.3-0.3,0.4c0,0,0,0-0.1,0.1c0,0,0,0,0,0
		c0-0.1,0-0.1,0.1-0.2c0.2-0.5,0.4-1,0.6-1.5c0,0,0-0.1,0-0.1c-0.2,0-0.4,0-0.6,0.1c-0.1,0-0.2,0-0.2,0c0,0-0.1,0-0.1,0
		c0,0,0,0-0.1,0C9.5,2.5,9.1,2.6,8.7,3C8.5,3.2,8.3,3.5,8.2,3.9C8.1,4.2,7.9,4.5,7.7,4.7C7.6,4.8,7.5,4.8,7.5,4.9c0,0,0,0,0,0
		c0-0.1,0-0.2,0-0.3C7.5,4.3,7.6,4,7.7,3.7c0,0,0-0.1,0-0.1c0-0.1,0-0.2-0.1-0.3c-0.1-0.1-0.2-0.1-0.3,0C7.2,3.3,7,3.4,6.9,3.4
		c0,0-0.1,0-0.1,0c0-0.1,0-0.2-0.1-0.3C6.7,2.9,6.4,2.7,6.2,2.8C5.9,2.8,5.7,3,5.6,3.2c-0.1,0.3,0,0.5,0.2,0.7c0,0.1,0,0.1,0,0.1
		C5.5,4.7,5.1,5.2,4.7,5.7c0,0,0,0-0.1,0.1c0.2-0.7,0.1-1.4-0.4-2c0.1-0.1,0.1-0.1,0.2-0.2C4.8,3.2,5,2.9,5,2.4C5,2.3,5,2.2,5,2
		C5,2,5,2,5,2c0.1,0,0.1,0,0.2-0.1c0.1-0.1,0.2-0.2,0.2-0.3c0-0.1-0.1-0.2-0.3-0.2c-0.1,0-0.3,0-0.4,0c0,0-0.1,0-0.1,0
		C4.4,1,4,0.8,3.6,0.7C3.1,0.7,2.7,0.7,2.3,1C1.7,1.4,1.4,1.9,1.4,2.6c0,0.1,0,0.2,0,0.3c0,0,0,0,0,0C1.6,3,1.7,3,1.8,2.9
		C2,2.8,2.1,2.8,2.2,2.7c0,0,0.1,0,0.1,0c0,0.1-0.1,0.1-0.1,0.1C1.9,3.2,1.7,3.7,1.6,4.2C1.4,4.6,1.2,5,1.1,5.5
		C0.9,5.8,0.8,6,0.5,6.2c0,0,0,0.1,0,0.1c0,0.3,0,0.6,0.1,1c0,0.2,0.1,0.3,0.2,0.4c-0.1,0-0.2,0-0.3,0c0-2.3,0-4.6,0-6.9
		c5.7,0,11.3,0,17,0C17.4,1.5,17.4,2.2,17.4,3z"/>
	<path id="XMLID_106_" class="st0" d="M3,3.2c0.2-0.4,0.6-0.7,1-0.9c0,0,0,0,0,0c0,0.1,0,0.3-0.1,0.4C3.9,2.9,3.8,3,3.7,3.1
		c0,0-0.1,0-0.1,0C3.4,3.1,3.2,3.1,3,3.2z"/>
	<path id="XMLID_105_" class="st0" d="M9,4.4C9,4,9.1,3.8,9.4,3.5c0,0,0.1-0.1,0.2-0.1c0,0.1,0,0.1,0,0.2C9.5,3.9,9.4,4.2,9.2,4.4
		c0,0,0,0,0,0c0,0-0.1,0.1-0.1,0.1C9,4.5,9,4.4,9,4.4z"/>
	<path id="XMLID_104_" class="st0" d="M3.5,1.7c-0.4,0.2-0.7,0.4-1,0.7c-0.1-0.2,0-0.5,0.2-0.7C2.9,1.6,3.3,1.5,3.5,1.7z"/>
	<path id="XMLID_103_" class="st0" d="M16.6,2.6c0.1,0.4-0.1,0.9-0.5,0.9C16.2,3.2,16.4,2.9,16.6,2.6z"/>
	<path id="XMLID_102_" class="st0" d="M12.5,3.9c0.1-0.3,0.3-0.6,0.4-0.8c0,0,0,0.1,0.1,0.1c0.1,0.1,0.1,0.1,0,0.2
		c-0.1,0.2-0.2,0.3-0.3,0.5C12.6,3.9,12.5,3.9,12.5,3.9C12.5,3.9,12.5,3.9,12.5,3.9z"/>
	<path id="XMLID_101_" class="st0" d="M14.8,3.4c0,0.1,0,0.2,0,0.4c0,0-0.1,0-0.1,0c0,0,0-0.1,0-0.1C14.7,3.5,14.8,3.4,14.8,3.4z"/>
	<path id="XMLID_100_" class="st0" d="M15.3,2.5c-0.1,0-0.1,0-0.2,0c0-0.1,0.1-0.1,0.1-0.2C15.2,2.3,15.2,2.4,15.3,2.5z"/>
</g>
</svg>
