<?xml version="1.0" encoding="utf-8"?>
<!-- Generator: Adobe Illustrator 19.0.0, SVG Export Plug-In . SVG Version: 6.00 Build 0)  -->
<svg version="1.1" id="Layer_1" xmlns="http://www.w3.org/2000/svg" xmlns:xlink="http://www.w3.org/1999/xlink" x="0px" y="0px"
	 viewBox="0 0 36 6" style="enable-background:new 0 0 36 6;" xml:space="preserve">
<style type="text/css">
	.st0{display:none;fill:#FFFFFF;}
</style>
<g id="XMLID_35_">
	<path id="XMLID_167_" class="st0" d="M0.5,1.6c0,0,0-0.1,0-0.1c8.5,0,17,0,25.5,0c0,0-0.1,0.1-0.1,0.1c-0.2,0.1-0.4,0.1-0.6,0.3
		c-0.5,0.4-0.8,0.9-0.7,1.5c0,0.5,0.2,0.9,0.5,1.2c0.5,0.5,1.2,0.6,1.9,0.4c0.3-0.1,0.5-0.2,0.7-0.5c0.4-0.5,0.6-1.1,0.4-1.7
		c-0.2-0.6-0.5-1-1.1-1.2c-0.1,0-0.2-0.1-0.4-0.1c3,0,5.9,0,8.9,0c0,0.7,0,1.4,0,2.1c0,0-0.1-0.1-0.1-0.1c-0.1-0.3-0.3-0.6-0.6-0.7
		c-0.2-0.1-0.4-0.1-0.6-0.2c0.2-0.3,0.4-0.6,0.6-0.9c0,0,0-0.1,0.1-0.2c-0.1,0-0.1,0-0.2,0c-0.1,0-0.1,0-0.2,0c-0.2,0-0.3,0-0.4,0.2
		c-0.2,0.3-0.4,0.6-0.6,1c-0.3,0.4-0.4,0.8-0.4,1.2c0,0.6,0.6,1,1,1.1c0.5,0.1,0.9-0.2,1.2-0.6c0.1-0.1,0.1-0.2,0.1-0.3
		c0,0.3,0,0.7,0,1c-11.7,0-23.3,0-35,0c0,0,0-0.1,0-0.1c0.4,0,0.8,0,1.2,0c0.3,0,0.5-0.1,0.7-0.2c0.5-0.2,0.8-0.6,0.9-1.1
		C3.4,3.5,3.4,3.3,3.4,3c0-0.1-0.1-0.3-0.1-0.4c-0.1-0.5-0.7-1-1.3-1.1c-0.4,0-0.8,0-1.1-0.1C0.8,1.5,0.7,1.5,0.5,1.6z M15.6,3.8
		c-0.1-0.1-0.1-0.1-0.1-0.2c-0.4-0.7-0.7-1.3-1.1-2c-0.1-0.1-0.2-0.3-0.4-0.2c-0.1,0-0.1,0-0.2,0c-0.2,0-0.2,0.1-0.2,0.2
		c0,0.9,0,1.8,0,2.7c0,0.5,0,0.4,0.5,0.4c0.1,0,0.1-0.1,0.1-0.1c0-0.6,0-1.3,0-1.9c0,0,0-0.1,0-0.1c0,0,0-0.1,0.1-0.1
		c0,0,0.1,0,0.1,0.1c0,0.1,0.1,0.1,0.1,0.2C14.7,3.5,15,4,15.3,4.5c0.2,0.4,0.2,0.4,0.7,0.4c0,0,0,0,0.1,0c0.1,0,0.1,0,0.1-0.1
		c0-1,0-2.1,0-3.1c0-0.1-0.1-0.2-0.2-0.2c-0.1,0-0.1,0-0.2,0c-0.2,0-0.3,0-0.3,0.2c0,0.6,0,1.3,0,1.9C15.6,3.7,15.6,3.8,15.6,3.8z
		 M31.3,3.9c-0.1-0.1-0.1-0.1-0.1-0.2C30.8,3,30.4,2.4,30,1.7c-0.1-0.1-0.2-0.3-0.4-0.2c-0.1,0-0.1,0-0.2,0c-0.2,0-0.2,0-0.2,0.2
		c0,0.9,0,1.9,0,2.8c0,0.4,0,0.4,0.4,0.4c0.2,0,0.2-0.1,0.2-0.2c0-0.6,0-1.3,0-1.9c0-0.1,0-0.1,0-0.2c0,0,0,0,0.1,0
		C30,2.7,30,2.8,30.1,2.9C30.4,3.4,30.7,4,31,4.5c0.2,0.4,0.2,0.4,0.7,0.4c0.1,0,0.2,0,0.2-0.2c0-1,0-2,0-3c0-0.2-0.1-0.2-0.2-0.2
		c0,0-0.1,0-0.1,0c-0.2,0-0.2,0-0.2,0.2c0,0.6,0,1.3,0,1.9C31.3,3.7,31.3,3.7,31.3,3.9z M5.3,3c0-0.3,0-0.6,0-0.9c0.4,0,0.8,0,1.2,0
		c0.2,0,0.2,0,0.2-0.2c0-0.3,0-0.3-0.2-0.3c-0.5,0-1,0-1.6,0c-0.1,0-0.2,0.1-0.2,0.2c0,1,0,2,0,3c0,0.1,0,0.2,0.2,0.2
		c0.5,0,1.1,0,1.6,0c0.2,0,0.2-0.1,0.2-0.2c0-0.1,0-0.3-0.2-0.3c-0.4,0-0.7,0-1.1,0c-0.1,0-0.1-0.1-0.1-0.1c0-0.3,0-0.5,0-0.8
		c0.4,0,0.8,0,1.2,0c0.2,0,0.2,0,0.2-0.2C6.7,3,6.7,3,6.5,3C6.1,3,5.7,3,5.3,3z M9.2,1.5C9.2,1.5,9.2,1.5,9.2,1.5
		c-0.3,0-0.5,0-0.8,0c-0.2,0-0.2,0.1-0.2,0.2c0,0.9,0,1.9,0,2.8c0,0.5-0.1,0.4,0.4,0.4c0.1,0,0.2,0,0.2-0.2c0-0.3,0-0.6,0-1
		c0-0.1,0-0.2,0.2-0.2c0.3,0,0.7,0,1,0c0.1,0,0.2,0,0.2,0c0-0.1,0-0.2,0-0.4c0,0-0.1-0.1-0.2-0.1c-0.3,0-0.7,0-1,0
		c-0.2,0-0.2,0-0.2-0.2c0-0.2,0-0.4,0-0.6c0-0.2,0.1-0.2,0.2-0.2c0.3,0,0.7,0,1,0c0.1,0,0.2-0.1,0.2-0.2c0-0.1,0-0.1,0-0.2
		c0-0.1-0.1-0.2-0.2-0.2C9.7,1.5,9.4,1.5,9.2,1.5z M20.3,3.5C20.3,3.5,20.3,3.5,20.3,3.5c0,0.4,0,0.7,0,1.1c0,0.4,0,0.4,0.4,0.4
		c0.2,0,0.2,0,0.2-0.2c0-0.7,0-1.5,0-2.2c0-0.5,0-0.5,0.5-0.5c0.4,0,0.4,0,0.4-0.4c0-0.1-0.1-0.2-0.2-0.2c-0.1,0-0.1,0-0.2,0
		c-0.6,0-1.2,0-1.8,0c-0.1,0-0.2,0.1-0.2,0.2c0,0,0,0.1,0,0.1c0,0.1,0,0.2,0.2,0.2c0.2,0,0.3,0,0.5,0c0.1,0,0.2,0,0.2,0.2
		C20.3,2.6,20.3,3.1,20.3,3.5z M12.2,3.2c0-0.5,0-1,0-1.5c0-0.2-0.1-0.2-0.2-0.2c-0.4,0-0.4,0-0.4,0.4c0,0,0,0,0,0
		c0,0.9,0,1.8,0,2.7c0,0.4,0,0.4,0.4,0.4c0.2,0,0.2-0.1,0.2-0.2C12.2,4.2,12.2,3.7,12.2,3.2z M18.3,3.2c0-0.5,0-0.9,0-1.4
		c0-0.3,0.1-0.4-0.4-0.4c-0.2,0-0.2,0.1-0.2,0.2c0,0.9,0,1.9,0,2.8c0,0.4,0,0.4,0.4,0.4c0.1,0,0.2,0,0.2-0.2
		C18.2,4.2,18.3,3.7,18.3,3.2z M22.8,3.2C22.8,3.2,22.8,3.2,22.8,3.2c0,0.5,0,1,0,1.5c0,0.2,0,0.2,0.2,0.2c0.3,0,0.3,0,0.3-0.3
		c0-0.9,0-1.8,0-2.6c0-0.4,0-0.4-0.4-0.4c-0.1,0-0.2,0-0.2,0.2C22.8,2.2,22.8,2.7,22.8,3.2z"/>
	<path id="XMLID_164_" d="M26.6,1.4c0.1,0,0.2,0.1,0.4,0.1c0.6,0.2,0.9,0.6,1.1,1.2c0.2,0.6,0,1.2-0.4,1.7c-0.2,0.2-0.4,0.4-0.7,0.5
		c-0.7,0.2-1.3,0.1-1.9-0.4c-0.3-0.3-0.5-0.7-0.5-1.2c0-0.6,0.2-1.2,0.7-1.5c0.2-0.1,0.4-0.2,0.6-0.3c0,0,0.1,0,0.1-0.1
		C26.2,1.4,26.4,1.4,26.6,1.4z M26.4,2C26.2,2,26.1,2,26,2c-0.4,0.2-0.6,0.5-0.7,0.9c-0.1,0.4,0,0.7,0.2,1c0.4,0.7,1.3,0.7,1.8,0.2
		c0.3-0.3,0.4-0.7,0.3-1.2C27.4,2.4,26.9,1.9,26.4,2z"/>
	<path id="XMLID_161_" d="M0.5,1.6c0.1,0,0.3-0.1,0.4-0.1c0.4,0,0.8,0,1.1,0.1c0.5,0,1.1,0.6,1.3,1.1c0,0.1,0.1,0.3,0.1,0.4
		c0,0.2,0,0.4-0.1,0.6C3.2,4.2,2.9,4.5,2.5,4.7C2.2,4.8,2,4.9,1.7,4.9c-0.4,0-0.8,0-1.2,0C0.5,3.8,0.5,2.7,0.5,1.6z M1.1,3.2
		C1.1,3.2,1.1,3.2,1.1,3.2c0,0.3,0,0.7,0,1c0,0.1,0.1,0.2,0.1,0.2c0.3,0,0.6,0.1,0.9-0.1C2.7,4,2.9,3.6,2.8,3c-0.1-0.5-0.5-1-1.1-1
		c-0.1,0-0.3,0-0.4,0c-0.1,0-0.2,0-0.2,0.2C1.1,2.6,1.1,2.9,1.1,3.2z"/>
	<path id="XMLID_158_" d="M35.5,4.1c0,0.1-0.1,0.2-0.1,0.3C35.1,4.8,34.7,5,34.2,5c-0.5-0.1-1-0.5-1-1.1c0-0.5,0.1-0.9,0.4-1.2
		c0.2-0.3,0.4-0.6,0.6-1c0.1-0.2,0.2-0.2,0.4-0.2c0.1,0,0.1,0,0.2,0c0.1,0,0.1,0,0.2,0c0,0.1,0,0.1-0.1,0.2
		c-0.2,0.3-0.4,0.6-0.6,0.9c0.2,0.1,0.4,0.1,0.6,0.2c0.3,0.1,0.5,0.4,0.6,0.7c0,0,0,0.1,0.1,0.1C35.5,3.7,35.5,3.9,35.5,4.1z
		 M34.3,3.2c-0.4,0-0.6,0.3-0.6,0.6c0,0.3,0.3,0.7,0.6,0.6c0.4,0,0.6-0.3,0.6-0.6C34.9,3.5,34.6,3.2,34.3,3.2z"/>
	<path id="XMLID_157_" d="M15.6,3.8c0-0.1,0-0.1,0-0.2c0-0.6,0-1.3,0-1.9c0-0.2,0-0.2,0.3-0.2c0.1,0,0.1,0,0.2,0
		c0.1,0,0.2,0,0.2,0.2c0,1,0,2.1,0,3.1c0,0.1,0,0.1-0.1,0.1c0,0,0,0-0.1,0c-0.5,0-0.5,0-0.7-0.4C15,4,14.7,3.5,14.4,2.9
		c0-0.1-0.1-0.1-0.1-0.2c0,0,0,0-0.1-0.1c0,0,0,0.1-0.1,0.1c0,0,0,0.1,0,0.1c0,0.6,0,1.3,0,1.9c0,0.1,0,0.1-0.1,0.1
		c-0.4,0-0.5,0.1-0.5-0.4c0-0.9,0-1.8,0-2.7c0-0.2,0.1-0.2,0.2-0.2c0.1,0,0.1,0,0.2,0c0.2,0,0.3,0.1,0.4,0.2c0.4,0.7,0.7,1.3,1.1,2
		C15.5,3.7,15.5,3.8,15.6,3.8z"/>
	<path id="XMLID_156_" d="M31.3,3.9c0-0.1,0-0.2,0-0.2c0-0.6,0-1.3,0-1.9c0-0.2,0.1-0.2,0.2-0.2c0,0,0.1,0,0.1,0
		c0.1,0,0.2,0,0.2,0.2c0,1,0,2,0,3c0,0.2,0,0.2-0.2,0.2c-0.5,0-0.4,0-0.7-0.4c-0.3-0.5-0.6-1.1-0.9-1.6C30,2.8,30,2.7,29.9,2.6
		c0,0,0,0-0.1,0c0,0.1,0,0.1,0,0.2c0,0.6,0,1.3,0,1.9c0,0.1,0,0.2-0.2,0.2c-0.4,0-0.4,0-0.4-0.4c0-0.9,0-1.9,0-2.8
		c0-0.2,0-0.2,0.2-0.2c0.1,0,0.1,0,0.2,0c0.2,0,0.3,0.1,0.4,0.2c0.4,0.6,0.7,1.3,1.1,1.9C31.1,3.7,31.2,3.8,31.3,3.9z"/>
	<path id="XMLID_155_" d="M5.3,3c0.4,0,0.8,0,1.2,0c0.2,0,0.2,0,0.2,0.3c0,0.2-0.1,0.2-0.2,0.2c-0.4,0-0.8,0-1.2,0
		c0,0.3,0,0.6,0,0.8c0,0,0.1,0.1,0.1,0.1c0.4,0,0.7,0,1.1,0c0.2,0,0.2,0.1,0.2,0.3c0,0.2,0,0.2-0.2,0.2c-0.5,0-1.1,0-1.6,0
		c-0.1,0-0.2,0-0.2-0.2c0-1,0-2,0-3c0-0.1,0.1-0.2,0.2-0.2c0.5,0,1,0,1.6,0c0.2,0,0.2,0,0.2,0.3c0,0.2,0,0.2-0.2,0.2
		c-0.4,0-0.8,0-1.2,0C5.3,2.4,5.3,2.7,5.3,3z"/>
	<path id="XMLID_154_" d="M9.2,1.5c0.3,0,0.5,0,0.8,0c0.1,0,0.2,0,0.2,0.2c0,0.1,0,0.1,0,0.2c0,0.1-0.1,0.2-0.2,0.2
		c-0.3,0-0.7,0-1,0c-0.1,0-0.2,0-0.2,0.2c0,0.2,0,0.4,0,0.6c0,0.2,0,0.2,0.2,0.2c0.3,0,0.7,0,1,0c0.1,0,0.2,0,0.2,0.1
		c0,0.1,0,0.2,0,0.4c0,0-0.1,0-0.2,0c-0.3,0-0.7,0-1,0c-0.1,0-0.2,0.1-0.2,0.2c0,0.3,0,0.6,0,1c0,0.1,0,0.2-0.2,0.2
		C8.1,4.9,8.2,5,8.2,4.5c0-0.9,0-1.9,0-2.8c0-0.2,0.1-0.2,0.2-0.2C8.7,1.5,8.9,1.5,9.2,1.5C9.2,1.5,9.2,1.5,9.2,1.5z"/>
	<path id="XMLID_153_" d="M20.3,3.5c0-0.4,0-0.8,0-1.3c0-0.1,0-0.2-0.2-0.2c-0.2,0-0.3,0-0.5,0c-0.2,0-0.2-0.1-0.2-0.2
		c0,0,0-0.1,0-0.1c0-0.1,0.1-0.2,0.2-0.2c0.6,0,1.2,0,1.8,0c0.1,0,0.1,0,0.2,0c0.1,0,0.2,0,0.2,0.2c0,0.4,0,0.4-0.4,0.4
		c-0.5,0-0.5,0-0.5,0.5c0,0.7,0,1.5,0,2.2c0,0.2-0.1,0.2-0.2,0.2c-0.4,0-0.4,0-0.4-0.4C20.3,4.2,20.3,3.8,20.3,3.5
		C20.3,3.5,20.3,3.5,20.3,3.5z"/>
	<path id="XMLID_152_" d="M12.2,3.2c0,0.5,0,1,0,1.5c0,0.2,0,0.2-0.2,0.2c-0.4,0-0.4,0-0.4-0.4c0-0.9,0-1.8,0-2.7c0,0,0,0,0,0
		c0-0.4,0-0.4,0.4-0.4c0.1,0,0.2,0.1,0.2,0.2C12.2,2.2,12.2,2.7,12.2,3.2z"/>
	<path id="XMLID_151_" d="M18.3,3.2c0,0.5,0,1,0,1.5c0,0.1,0,0.2-0.2,0.2c-0.4,0-0.4,0-0.4-0.4c0-0.9,0-1.9,0-2.8
		c0-0.2,0-0.2,0.2-0.2c0.4,0,0.4,0,0.4,0.4C18.2,2.3,18.3,2.8,18.3,3.2z"/>
	<path id="XMLID_150_" d="M22.8,3.2c0-0.5,0-1,0-1.5c0-0.2,0.1-0.2,0.2-0.2c0.4,0,0.4,0,0.4,0.4c0,0.9,0,1.8,0,2.6
		c0,0.3,0,0.3-0.3,0.3c-0.2,0-0.2,0-0.2-0.2C22.8,4.2,22.8,3.7,22.8,3.2C22.8,3.2,22.8,3.2,22.8,3.2z"/>
	<path id="XMLID_149_" class="st0" d="M26.4,2c0.6,0,1,0.5,1.1,0.9c0.1,0.5,0,0.9-0.3,1.2c-0.5,0.6-1.4,0.5-1.8-0.2
		c-0.2-0.3-0.3-0.6-0.2-1C25.4,2.5,25.6,2.2,26,2C26.1,2,26.2,2,26.4,2z"/>
	<path id="XMLID_148_" class="st0" d="M1.1,3.2c0-0.3,0-0.7,0-1c0-0.2,0.1-0.2,0.2-0.2c0.1,0,0.3,0,0.4,0c0.6,0,1,0.5,1.1,1
		c0.1,0.6-0.2,1-0.7,1.3C1.9,4.5,1.5,4.4,1.2,4.4c0,0-0.1-0.1-0.1-0.2C1.1,3.9,1.1,3.6,1.1,3.2C1.1,3.2,1.1,3.2,1.1,3.2z"/>
	<path id="XMLID_147_" class="st0" d="M34.3,3.2c0.4,0,0.6,0.3,0.6,0.6c0,0.3-0.3,0.6-0.6,0.6c-0.4,0-0.6-0.3-0.6-0.6
		C33.6,3.5,33.9,3.2,34.3,3.2z"/>
</g>
</svg>
