<?xml version="1.0" encoding="utf-8"?>
<!-- Generator: Adobe Illustrator 19.0.0, SVG Export Plug-In . SVG Version: 6.00 Build 0)  -->
<svg version="1.1" id="Layer_1" xmlns="http://www.w3.org/2000/svg" xmlns:xlink="http://www.w3.org/1999/xlink" x="0px" y="0px"
	 viewBox="0 0 17.8 14.3" style="enable-background:new 0 0 17.8 14.3;" xml:space="preserve">
<style type="text/css">
	.st0{display:none;fill:#FFFFFF;}
	.st1{fill:#FFFFFF;}
	.st2{fill:#FFFFFF;stroke:#000000;stroke-miterlimit:10;}
	.st3{fill:#0A0A0A;}
</style>
<g id="XMLID_49_">
	<path id="XMLID_422_" class="st0" d="M9-0.1c2.8,0,5.7,0,8.5,0c0.2,0,0.2,0,0.2,0.2c0,4.7,0,9.4,0,14.1c0,0.2,0,0.2-0.2,0.2
		c-5.7,0-11.3,0-17,0c-0.2,0-0.2,0-0.2-0.2c0-4.7,0-9.4,0-14.1c0-0.2,0-0.2,0.2-0.2C3.4-0.1,6.2-0.1,9-0.1z"/>
	<path id="XMLID_421_" d="M8.1,10.3c0.2,0.4,0.4,0.8,0.5,1.2c0.4,0.9,0.3,1-0.4,1.6c-0.6,0.6-1.4,0.8-2.2,0.9
		c-0.3,0-0.6-0.1-0.8-0.4c-0.2-0.3-0.4-0.6-0.5-1c0-0.1-0.1-0.2-0.2-0.3c-0.3,0.2-0.6,0.4-1,0.5c-0.6,0.2-1.1-0.1-1.2-0.7
		c-0.2-0.8-0.2-1.5-0.2-2.3c0-0.6,0.1-1.2,0.3-1.8c0-0.2,0-0.3,0-0.5c0-0.4,0-0.7,0-1.1c0-0.2,0-0.4-0.1-0.7C2,4.7,1.7,3.6,1.2,2.4
		C1.1,2,0.9,1.6,0.7,1.2C0.6,1,0.6,0.9,0.8,0.8C1.2,0.6,1.6,0.4,2,0.3c0.2-0.1,0.3,0.1,0.3,0.2c0,0.1,0.1,0.2,0.1,0.3
		c0.4,0.8,0.9,1.6,1.4,2.4C4,3.4,4.1,3.6,4.2,3.8c0,0.1,0.1,0.1,0.2,0.1c0.7-0.4,1.5-0.5,2.2-0.7C8,3,9.4,3,10.8,3.1
		c1,0.1,2,0.2,2.9,0.7c0.1,0.1,0.1,0,0.2-0.1c0.5-0.8,1-1.6,1.4-2.4c0.2-0.3,0.4-0.6,0.5-1c0-0.1,0.2-0.2,0.4-0.2
		c0.4,0.2,0.8,0.3,1.1,0.5c0.2,0.1,0.3,0.2,0.1,0.5c0,0-0.1,0.1-0.1,0.1c-0.5,1.2-0.9,2.4-1.3,3.6c0,0.1,0,0.1-0.1,0.2
		c-0.3,0.7-0.3,1.3-0.3,2c0,0.7,0.1,1.3,0.2,2c0.1,0.9,0.1,1.9-0.1,2.8c-0.2,0.8-0.7,1.1-1.5,0.8c-0.2-0.1-0.5-0.2-0.7-0.4
		c-0.1-0.1-0.2-0.1-0.2,0.1c-0.2,0.4-0.3,0.8-0.6,1.1c-0.2,0.3-0.4,0.4-0.7,0.3c-1-0.1-1.8-0.5-2.5-1.2c-0.2-0.3-0.3-0.5-0.2-0.8
		c0.1-0.5,0.4-1,0.6-1.5c0.1-0.2,0.1-0.2-0.1-0.2C9.2,10.3,8.7,10.3,8.1,10.3z"/>
	<path id="XMLID_420_" d="M14.2,12.5c-0.3-0.1-0.5-0.3-0.8-0.5c-0.6-0.5-1.2-1-1.8-1.5c-0.2-0.2-0.5-0.3-0.8-0.3
		c-0.3,0-0.6-0.1-0.9-0.1c-0.5-0.1-1.1-0.1-1.6,0c-0.3,0-0.7,0-1,0.1c-0.5,0.1-0.9,0.4-1.2,0.8c-0.1,0.1-0.1,0.2-0.2,0.2
		c-0.4,0.4-0.9,0.8-1.4,1.2c-0.4,0.1-0.7-0.1-0.9-0.4c-0.3-0.4-0.5-0.8-0.4-1.2c0-0.1,0-0.2,0.1-0.2c0.1-0.1,0.2,0,0.2,0.1
		c0.3,0.2,0.6,0.3,0.9,0.2c0.4-0.2,0.6-0.5,0.6-0.9c0-0.6-0.6-1-1.2-0.8c-0.1,0-0.2,0.1-0.3,0c0-0.4,0-0.8,0.3-1.1
		c0.1,0,0.2,0,0.3,0c0.1,0,0.2,0.1,0.2,0.2c0,0.2,0.1,0.3,0.3,0.3c0.2,0,0.3-0.1,0.3-0.3c0-0.1,0-0.2,0.1-0.2c0.2-0.2,0.2-0.3,0-0.4
		C4.7,7.3,4.7,7.2,4.7,7.1c0-0.2-0.1-0.2-0.3-0.2c-0.1,0-0.3,0-0.3,0.2c0,0.3,0,0.3-0.4,0.3C3.7,7.3,3.7,7.2,3.7,7.1
		C4,6.3,4.2,5.4,4.6,4.7C4.8,4.4,5.1,4.2,5.4,4c0.1-0.1,0.3-0.2,0.4-0.2c0.4-0.1,0.9-0.2,1.3-0.3c0.3-0.1,0.5-0.1,0.8-0.1
		c1.4-0.1,2.9-0.1,4.3,0.3c0.1,0,0.2,0.1,0.4,0.1c0.2,0.1,0.5,0.2,0.7,0.4c0.5,0.2,0.7,0.6,0.9,1.1c0.4,1.1,0.6,2.2,0.8,3.4
		c0.1,0.9,0.2,1.8,0.3,2.7c0,0.4,0,0.8-0.4,1.1C14.6,12.5,14.4,12.5,14.2,12.5z"/>
	<path id="XMLID_419_" d="M11.5,13.7c-0.8-0.1-1.5-0.5-2.1-1.2c-0.1-0.2-0.1-0.4-0.1-0.6c0.1-0.4,0.3-0.7,0.4-1.1
		c0-0.1,0.1-0.1,0.1-0.2c0.1-0.3,0.3-0.4,0.6-0.3c0.2,0,0.3,0.1,0.5,0.1c0.3,0.2,0.6,0.4,0.8,0.6c0.2,0.2,0.4,0.3,0.6,0.5
		c0.1,0.1,0.2,0.2,0.3,0.3c0,0,0,0.1,0,0.1c0,0.2-0.4,0.8-0.6,0.9c-0.1,0.1-0.3,0-0.4-0.1c-0.3-0.2-0.7-0.3-0.9-0.5
		c0.3,0.1,0.5,0.3,0.8,0.5c0.1,0.1,0.2,0.1,0.2,0.2c0.1,0.1,0.1,0.2,0,0.3c-0.1,0.1-0.2,0.1-0.3,0.1c0,0-0.1,0-0.1,0
		c0.1,0,0.1,0,0.2,0c0.3,0,0.6,0,0.7-0.4c0.1-0.2,0.2-0.3,0.3-0.5c0.1-0.1,0.1-0.2,0.2-0.1c0.1,0.1,0,0.1,0,0.2
		c0,0.1-0.1,0.1-0.1,0.2c-0.1,0.3-0.3,0.5-0.4,0.7c-0.2,0.2-0.5,0.1-0.7,0.1C11.6,13.7,11.6,13.7,11.5,13.7z"/>
	<path id="XMLID_418_" d="M3.7,7.8C3.6,8.2,3.5,8.5,3.5,8.9C3.5,9,3.5,9,3.4,9C3.1,9.4,3,9.7,3.2,10.2c0,0.1,0.1,0.1,0,0.2
		c0,0.5,0,1,0.4,1.4c0.2,0.3,0.5,0.4,0.8,0.5c-0.2,0.2-0.5,0.3-0.7,0.4c-0.4,0.1-0.7-0.1-0.9-0.5c-0.2-0.7-0.2-1.4-0.2-2.2
		c0.1-1.5,0.5-3,1-4.5c0.3-1,1-1.5,2-1.7c0.2,0,0.5-0.1,0.7-0.1c0.1,0,0.2,0.1,0,0.1C6.2,3.7,6,3.8,5.9,3.9C5,4.2,4.6,4.8,4.3,5.6
		C4.1,6.2,4,6.7,3.8,7.3C3.7,7.5,3.8,7.7,3.7,7.8z"/>
	<path id="XMLID_417_" d="M5.4,11.8c0.5-0.4,1-0.8,1.5-1.2c0.1-0.1,0.2-0.1,0.3-0.1c0.2-0.1,0.3,0,0.4,0.2c0.2,0.4,0.3,0.7,0.4,1.2
		c0,0.3,0,0.3-0.3,0.4c-0.3,0.1-0.6,0.3-0.9,0.4c0,0,0,0,0,0c0,0,0,0,0,0c0.3-0.1,0.5-0.2,0.8-0.3c0.1,0,0.1,0,0.2,0
		c0.1,0,0.2,0,0.3,0.2c0.1,0.1,0,0.2-0.1,0.3c0,0,0.1-0.1,0.2-0.2c0.2-0.2,0.2-0.4,0.1-0.6c-0.2-0.5-0.3-0.9-0.5-1.4
		c0-0.1-0.1-0.2,0-0.3c0.1,0,0.2,0.1,0.2,0.2c0.2,0.5,0.5,0.9,0.6,1.4c0.1,0.3,0.1,0.5-0.1,0.7c-0.4,0.4-0.8,0.7-1.3,0.8
		c-0.1,0-0.2,0.1-0.3,0.1c0,0-0.1,0-0.1,0c-0.2-0.1-0.4-0.1-0.5-0.1c-0.2,0-0.3-0.1-0.4-0.3c-0.2-0.4-0.4-0.8-0.6-1.2
		C5.2,11.9,5.4,11.9,5.4,11.8z"/>
	<path id="XMLID_416_" d="M1.7,3.1C1.6,2.8,1.4,2.5,1.3,2.1C1.3,1.9,1,1.8,1.1,1.5c0,0,0.1-0.1,0.1-0.1c0.3,0.2,0.5,0,0.7-0.1
		c-0.1,0-0.2,0.1-0.3,0.1c-0.1,0-0.3,0.1-0.4,0c-0.1,0-0.1,0-0.1,0C1,1.4,1,1.3,1,1.1C0.9,1,1,1,1.1,1C1.3,0.8,1.7,0.6,2,0.5
		c0.1,0,0.1-0.1,0.1,0.1c0.5,0.7,0.8,1.5,1.3,2.3C3.6,3.2,3.8,3.5,4,3.9c0,0.1,0.1,0.1,0,0.2C4,4.1,3.9,4,3.8,4
		c-0.2-0.1-0.5-0.2-0.7,0c-0.2,0.1-0.4,0.1-0.6,0c-0.1,0-0.1-0.1-0.2-0.1c-0.1,0-0.1-0.1-0.1-0.2c0-0.1,0.1-0.2,0-0.3
		c-0.1-0.1,0-0.2,0-0.3c0,0.1-0.1,0.1-0.2,0.1C2,3.1,1.9,3,1.9,2.9c0,0,0-0.1,0-0.1C1.7,2.6,1.7,2.4,1.6,2.2
		c0.1,0.2,0.2,0.4,0.2,0.6C1.7,2.9,1.8,3,1.7,3.1z"/>
	<path id="XMLID_415_" d="M14.2,12.5c0.1-0.1,0.2-0.1,0.3-0.1c0.3-0.1,0.6-0.4,0.7-0.7c0.1-0.4,0-0.8,0-1.2C15,9.3,14.8,8.1,14.5,7
		c-0.2-0.7-0.3-1.5-0.6-2.2c-0.1-0.2-0.3-0.4-0.4-0.5c-0.3-0.2-0.6-0.3-0.9-0.6c0.9,0.2,1.5,0.7,1.8,1.5c0.5,1.3,0.7,2.6,1,3.9
		c0.2,1,0.1,1.9-0.1,2.9C15.2,12.6,14.7,12.8,14.2,12.5z"/>
	<path id="XMLID_414_" d="M15.7,4.8c-0.1,0.4-0.3,0.8-0.4,1.2c-0.1,0.2-0.1,0.4-0.1,0.6c-0.1-0.1-0.1-0.3-0.2-0.5
		c-0.1-0.4-0.3-0.8-0.4-1.2c0-0.2-0.1-0.3-0.2-0.5c-0.1-0.1-0.1-0.1-0.1-0.2c0-0.1,0-0.2,0-0.3c0.1-0.2,0.2-0.4,0.3-0.6
		c0-0.1,0.1-0.2,0.2-0.2c0.2,0,0.2,0.1,0.3,0.2c0.1,0.1,0.2,0.2,0.2,0.3c0,0,0.1,0.1,0.2,0c0,0,0,0,0-0.1c0-0.1-0.1-0.1-0.1-0.1
		c0,0-0.1,0-0.1,0c-0.1,0-0.2-0.1-0.2-0.2c0-0.1,0.1-0.2,0.2-0.2c0.1,0,0.2,0,0.3,0c0,0,0,0,0,0c-0.4,0-0.4,0-0.4-0.4
		c0,0,0-0.1,0-0.1c0-0.2,0.2-0.3,0.4-0.3c0.1,0.1,0.2,0.1,0.4,0.1c0.1,0,0.2,0.1,0.2,0.2c0.1,0.2,0,0.4,0,0.6c0,0.1,0,0.2,0,0.3
		c0,0,0,0.1,0,0.1c0,0.1,0,0.2-0.1,0.3C16,4.1,15.8,4.4,15.7,4.8z"/>
	<path id="XMLID_413_" d="M16.1,3.4c-0.1-0.1,0-0.2,0-0.3c0-0.2,0-0.4-0.1-0.7c0,0.2-0.1,0.2-0.3,0.1c-0.1-0.1-0.2-0.1-0.3-0.1
		c-0.1,0-0.2,0-0.2,0.1c0,0.1,0,0.1,0.1,0.1c0.1,0,0.1,0,0.1,0.1c0,0.1-0.1,0.1-0.1,0.1c-0.1,0-0.1,0-0.1,0.1C15.3,3,15.3,3,15.4,3
		c0.1,0,0.2,0,0.3,0c0.1,0,0.1,0,0.2,0.1c0.1,0.1,0,0.2-0.1,0.2c0,0.1-0.1,0.1-0.2,0.1c-0.1,0-0.2-0.1-0.3-0.1
		c-0.1,0-0.1,0.1-0.1,0.1c0,0.1,0.1,0.1,0.1,0.1c0.1,0,0.1,0,0.2,0c0.1,0,0.2,0.1,0.2,0.2c0,0.1,0,0.2-0.1,0.2c-0.1,0.1-0.2,0-0.3,0
		c-0.2-0.2-0.3-0.4-0.5-0.6c-0.1-0.1-0.1-0.2,0-0.3c0.2-0.4,0.4-0.8,0.6-1.2c0.1-0.2,0.2-0.4,0.2-0.6c0.1-0.1,0.1,0,0.2,0
		c0.1,0,0.1,0.1,0.2,0.1c-0.4-0.2-0.3-0.2-0.1-0.6c0,0,0.1-0.1,0.1-0.1c0.1-0.1,0.2,0,0.3,0c0.2,0.1,0.4,0.2,0.7,0.2
		C17,0.9,17,0.9,17.1,1c0.1,0.1,0.1,0.1,0,0.2c0,0,0,0,0,0c-0.2,0.7-0.6,1.4-0.8,2.1C16.2,3.3,16.2,3.4,16.1,3.4z"/>
	<path id="XMLID_412_" d="M7.8,10.3c0.2,0.5,0.4,1,0.5,1.5c0.2,0.4,0.1,0.6-0.3,0.9C8,12.8,7.8,12.9,7.7,13c0.1-0.1,0.1-0.2,0.2-0.2
		c0-0.1,0.1-0.1,0.1-0.2c0-0.1-0.1-0.1-0.2-0.1c-0.2,0-0.4,0-0.6,0.1c-0.2,0.1-0.5,0.2-0.7,0.2c0,0,0,0-0.1,0
		c0.1-0.1,0.2-0.2,0.3-0.3c0.3-0.2,0.6-0.3,0.9-0.4c0.2-0.1,0.2-0.2,0.2-0.3c0-0.4-0.2-0.8-0.4-1.2c0-0.1-0.1-0.2-0.2-0.2
		C7.4,10.3,7.6,10.4,7.8,10.3z"/>
	<path id="XMLID_411_" d="M2.4,3.8c0,0,0.1,0,0.1,0c0.2,0.1,0.4,0.1,0.7,0c0.3-0.2,0.8,0,0.9,0.3C3.7,4.5,3.5,5,3.3,5.5
		c0,0.1-0.1,0.1-0.1,0.2C3,5.8,3,5.7,3,5.6C2.8,5,2.6,4.5,2.4,4C2.3,3.9,2.3,3.8,2.4,3.8z"/>
	<path id="XMLID_410_" d="M12.9,12.4c-0.1,0.2-0.3,0.5-0.4,0.7c-0.2,0.3-0.3,0.4-0.6,0.3c-0.2,0-0.4-0.1-0.7-0.2
		c0.1,0,0.3,0.1,0.4,0c0.2,0,0.2-0.1,0.1-0.2c-0.1-0.1-0.2-0.2-0.3-0.3c-0.3-0.2-0.6-0.4-1-0.6c0.2-0.1,0.3,0,0.4,0
		c0.4,0.1,0.7,0.3,1,0.5c0.2,0.1,0.3,0.1,0.4-0.1c0.2-0.2,0.3-0.5,0.4-0.7c0.2,0,0.2,0.2,0.4,0.3C13.1,12.3,13.1,12.4,12.9,12.4z"/>
	<path id="XMLID_409_" d="M2.4,3.8c0.2,0.6,0.5,1.2,0.7,1.8c0,0.1,0.1,0.1,0.1,0.2C3.1,6.1,3,6.4,2.9,6.8c-0.1,0-0.1,0-0.1-0.1
		c0-0.8-0.2-1.5-0.4-2.1C2.2,4.1,2,3.6,1.8,3.2c0-0.1-0.1-0.2,0-0.3C1.7,2.6,1.6,2.3,1.5,2c0-0.1-0.1-0.1,0-0.2
		c0.1,0,0.1,0.1,0.1,0.1c0.1,0.2,0.2,0.5,0.3,0.7c0,0,0.1,0,0.1,0.1C2,2.9,2.1,3,2.1,3.2c0.2,0.1,0.2,0.3,0.2,0.5
		C2.4,3.7,2.4,3.7,2.4,3.8z"/>
	<path id="XMLID_408_" d="M15.6,1.2c0.1,0.2,0.1,0.4,0,0.5c-0.3,0.5-0.5,1-0.7,1.5c-0.2,0.3-0.4,0.7-0.6,1c-0.1-0.1-0.1-0.1-0.2-0.2
		c0-0.2,0.2-0.3,0.2-0.5c0-0.1,0.2-0.2,0.1-0.4c0.3-0.6,0.7-1.1,1-1.7C15.5,1.4,15.4,1.2,15.6,1.2C15.6,1.1,15.6,1.1,15.6,1.2z"/>
	<path id="XMLID_407_" d="M1.8,2.8c0.3,0.7,0.5,1.4,0.8,2.1c0.2,0.6,0.3,1.2,0.2,1.8c-0.1,0-0.1-0.1-0.1-0.1c0-0.1,0-0.3,0-0.4
		c0-0.2-0.1-0.3-0.1-0.5c0-0.3-0.2-0.6-0.3-0.9C2.2,4.8,2.2,4.6,2.1,4.5C2.1,4.2,2,3.9,1.9,3.6C1.8,3.5,1.7,3.3,1.7,3.1
		C1.7,3,1.7,2.9,1.8,2.8z"/>
	<path id="XMLID_406_" d="M5.7,11.1C6,10.4,6.4,10,7.1,10C8,9.9,8.8,9.9,9.6,10c0,0,0.1,0,0.1,0c-0.8,0-1.6,0-2.4,0.1
		c-0.3,0-0.6,0.2-0.9,0.4C6.2,10.7,6,10.9,5.7,11.1z"/>
	<path id="XMLID_405_" d="M6.8,13.6c0,0,0.1,0,0.1,0.1c-0.1,0.1-0.3,0.1-0.4,0.1c-0.2,0-0.3,0-0.5,0c-0.2,0-0.3,0-0.5-0.1
		c-0.3-0.3-0.4-0.8-0.7-1.2c0-0.2,0.1-0.3,0.3-0.3c0.1,0.2,0.2,0.4,0.3,0.6c0.1,0.1,0.1,0.2,0.2,0.3c0.2,0.4,0.5,0.6,0.9,0.5
		C6.6,13.6,6.7,13.5,6.8,13.6z"/>
	<path id="XMLID_404_" d="M16.1,3.4c0.1-0.3,0.2-0.6,0.3-1C16.6,2,16.9,1.7,17,1.2c0,0,0.1-0.1,0.1-0.1c-0.1,0.6-0.5,1.1-0.6,1.7
		C16.4,3.1,16.3,3.3,16.1,3.4C16.2,3.5,16.1,3.5,16.1,3.4z"/>
	<path id="XMLID_403_" d="M1,1.5c0-0.1,0.1-0.2,0.1-0.1c0.4,0.1,0.7,0,1-0.1c0,0,0,0,0,0C1.9,1.5,1.4,1.6,1,1.5C1.1,1.5,1,1.5,1,1.5
		z"/>
	<path id="XMLID_402_" d="M2.1,0.6C2.1,0.6,2.1,0.5,2.1,0.6C1.6,0.7,1.2,0.8,1,1.1C0.8,1.1,0.8,1,0.9,0.9C1.3,0.8,1.6,0.6,2,0.4
		C2.1,0.4,2.1,0.4,2.1,0.6z"/>
	<path id="XMLID_401_" d="M14.4,3.2c0,0,0.1-0.1,0.1,0c0,0,0,0.1,0,0.1c-0.2,0.3-0.3,0.5-0.5,0.8C13.9,4,13.9,4,14,3.9
		C14.1,3.7,14.2,3.4,14.4,3.2z"/>
	<path id="XMLID_400_" d="M16.9,0.9c-0.2,0-0.4,0-0.5-0.1c-0.2-0.1-0.3-0.1-0.5-0.2c-0.1-0.2,0-0.2,0.2-0.1
		C16.3,0.6,16.6,0.7,16.9,0.9z"/>
	<path id="XMLID_399_" d="M15.6,1.2C15.6,1.1,15.6,1.1,15.6,1.2c0.1-0.2,0.2-0.3,0.3-0.5c0,0,0,0.1,0,0.1c-0.1,0.2,0,0.4,0.2,0.5
		c0.1,0.1,0.2,0.1,0.3,0.2C16,1.4,15.8,1.3,15.6,1.2z"/>
	<path id="XMLID_398_" d="M15,6.2c0.1,0.1,0.1,0.2,0.2,0.3c0.1-0.1-0.1-0.4,0.1-0.5c-0.1,0.3,0,0.6-0.1,1C15.2,6.7,15.1,6.4,15,6.2z
		"/>
	<path id="XMLID_397_" d="M5.9,3.9c0.1-0.1,0.2-0.1,0.3-0.2c0.1,0,0.2,0,0.1-0.1c0.3,0,0.5-0.1,0.8-0.1C6.7,3.6,6.3,3.7,5.9,3.9z"/>
	<path id="XMLID_396_" d="M11,10.4c-0.2,0.1-0.4,0-0.6,0c-0.2,0-0.4,0-0.4,0.2c0,0-0.1,0.1-0.1,0.1c0.1-0.4,0.1-0.4,0.5-0.4
		C10.6,10.3,10.8,10.4,11,10.4z"/>
	<path id="XMLID_395_" d="M2.7,6.3C2.7,6.2,2.8,6.1,2.7,6.3c0.1,0.2,0,0.3,0.1,0.5c0,0,0,0,0,0c0,0.1-0.1,0.3-0.1,0.4c0,0,0,0-0.1,0
		C2.7,6.9,2.8,6.6,2.7,6.3z"/>
	<path id="XMLID_394_" d="M11.5,13.7c0.1-0.1,0.2,0,0.3,0c0.2,0,0.4,0,0.6-0.1c-0.1,0.2-0.4,0.2-0.6,0.2
		C11.7,13.8,11.6,13.8,11.5,13.7z"/>
	<path id="XMLID_393_" d="M5.6,13.6c0.3,0.2,0.6,0,0.9,0.1c-0.2,0-0.3,0.1-0.5,0.1C5.8,13.8,5.7,13.8,5.6,13.6z"/>
	<path id="XMLID_392_" d="M15.7,4.8c-0.1-0.1,0-0.2,0-0.3C15.8,4.3,15.9,4,16,3.8c0,0,0,0,0,0c0,0,0,0,0,0C16,4.1,15.9,4.5,15.7,4.8
		z"/>
	<path id="XMLID_391_" d="M2.3,4.9C2.3,4.9,2.3,4.9,2.3,4.9c0.1,0.3,0.3,0.6,0.3,0.9C2.5,5.5,2.4,5.2,2.3,4.9z"/>
	<path id="XMLID_390_" d="M12.9,12.4c0-0.1,0.1-0.2,0.1-0.3c0.1,0,0.1,0.1,0,0.2c-0.1,0.2-0.2,0.4-0.3,0.6
		C12.8,12.7,13,12.6,12.9,12.4z"/>
	<path id="XMLID_389_" d="M5.1,12.2c-0.2,0-0.1,0.1-0.2,0.2c-0.1-0.1-0.1-0.2,0-0.3c0.1-0.1,0.3-0.2,0.4-0.4c0,0.1-0.1,0.2-0.1,0.2
		C5.2,12.1,5.2,12.2,5.1,12.2z"/>
	<path id="XMLID_388_" d="M1.9,3.6C1.9,3.6,1.9,3.6,1.9,3.6C2,3.9,2.1,4.2,2.1,4.5C2.1,4.2,2,3.9,1.9,3.6z"/>
	<path id="XMLID_387_" d="M9.4,12c0,0.2,0,0.4,0.1,0.6C9.2,12.4,9.3,12.2,9.4,12z"/>
	<path id="XMLID_386_" d="M14.3,4.5c0.2,0.1,0.2,0.3,0.2,0.5C14.5,4.8,14.4,4.7,14.3,4.5z"/>
	<path id="XMLID_385_" class="st1" d="M10.7,8.4c0-0.1,0.1-0.3,0.1-0.4c0-0.2,0.1-0.2,0.3-0.2c0.2,0,0.2,0.1,0.3,0.2
		c0,0.1,0.1,0.3,0.2,0.4c0-0.1,0.1-0.3,0.1-0.4c0-0.1,0.1-0.2,0.2-0.1c0.1,0,0,0.1,0,0.2c-0.1,0.2-0.1,0.5-0.2,0.7
		c0,0.2-0.1,0.2-0.3,0.2c-0.2,0-0.2-0.1-0.3-0.2c0-0.1-0.1-0.3-0.2-0.4c0,0.1-0.1,0.3-0.1,0.4c0,0.1-0.1,0.2-0.3,0.2
		c-0.1,0-0.2-0.1-0.3-0.2c-0.1-0.2-0.1-0.5-0.2-0.7c0-0.1-0.1-0.2,0.1-0.2c0.1,0,0.3-0.1,0.3,0.1C10.6,8.1,10.6,8.3,10.7,8.4
		C10.7,8.4,10.7,8.4,10.7,8.4z"/>
	<path id="XMLID_384_" class="st1" d="M6.3,8.4c0-0.7-0.1-0.6,0.6-0.6c0.1,0,0.1,0,0.2,0c0.4,0,0.5,0.1,0.4,0.5c0,0.1,0,0.1,0,0.2
		C7.6,8.8,7.4,9,7.1,9C6.9,9,6.8,9,6.6,9C6.4,9,6.3,8.9,6.3,8.7C6.3,8.6,6.3,8.5,6.3,8.4z"/>
	<path id="XMLID_383_" class="st1" d="M7.7,8.4c0-0.6,0-0.6,0.6-0.6c0.1,0,0.2,0,0.2,0c0.4,0,0.5,0.3,0.4,0.6
		c-0.1,0.1-0.1,0.2,0,0.3c0,0.1,0.2,0.2,0,0.3C8.7,9,8.5,9,8.4,8.9c0,0,0-0.1-0.1-0.2c0-0.1,0-0.2-0.2-0.2c-0.1,0-0.1,0.1-0.1,0.2
		C8.1,8.9,8,9,7.9,9C7.7,9,7.6,9,7.6,8.8C7.7,8.6,7.7,8.5,7.7,8.4z"/>
	<path id="XMLID_382_" class="st1" d="M5.6,4.9c0-0.6,0-0.6,0.6-0.6c0.1,0,0.1,0,0.2,0c0.4,0,0.5,0.1,0.3,0.5c0,0.1,0,0.1,0,0.2
		c0.1,0.3,0,0.5-0.3,0.5c-0.2,0-0.4,0-0.6,0c-0.1,0-0.2,0-0.2-0.2C5.6,5.1,5.6,5,5.6,4.9z"/>
	<path id="XMLID_381_" class="st1" d="M9,6c0.1,0,0.2,0,0.4,0c0.1,0,0.1,0.1,0.1,0.1c0,0.1-0.1,0.1-0.1,0.1c0,0-0.1,0-0.1,0
		C9,6.2,9,6.3,9.1,6.4c0.1,0.1,0.1,0.3,0.3,0.1c0,0,0.1,0,0.1,0c0.1,0,0.1,0.1,0,0.1C9.4,6.8,9.5,6.9,9.7,7c0,0,0.1,0,0.1,0.1
		c0,0.1-0.1,0.1-0.1,0.1c-0.4,0-0.7,0-1.1,0c-0.2,0-0.3-0.5-0.1-0.6c0.1-0.1,0.1-0.1,0.1-0.2C8.4,6.2,8.5,6.1,8.7,6.1
		C8.8,6,8.9,6.1,9,6C9,6,9,6,9,6z"/>
	<path id="XMLID_380_" class="st1" d="M8,5.5c-0.1,0-0.2,0-0.3-0.1c-0.1-0.2-0.4-0.2-0.6,0c0,0.1,0,0.1-0.1,0.1c0,0-0.1,0-0.1,0
		c0,0,0-0.1,0-0.1C7,5,7.2,4.7,7.3,4.4c0.1-0.1,0.4-0.1,0.5,0.1C7.9,4.7,8.1,5,8.2,5.3C8.2,5.5,8,5.4,8,5.5z"/>
	<path id="XMLID_379_" class="st1" d="M9,8.4c0-0.7-0.1-0.6,0.6-0.6c0.1,0,0.2,0,0.3,0C9.9,7.9,10,7.9,10,8C10,8.1,9.9,8,9.9,8
		C9.8,8,9.7,8,9.6,8C9.5,8,9.5,8.1,9.5,8.2c0,0.1,0.1,0.1,0.1,0.1c0.1,0,0.2,0,0.2,0c0.1,0,0.1,0,0.1,0.1c0,0.1,0,0.1-0.1,0.1
		c-0.1,0-0.2,0-0.3,0c-0.1,0-0.1,0-0.1,0.1c0,0.1,0.1,0.1,0.1,0.2c0.1,0,0.2,0,0.3,0c0.1,0,0.1,0,0.1,0.1C10,8.9,10,9,9.9,9
		C9.6,9,9.4,9,9.1,9C9,9,9,8.9,9,8.8C9,8.7,9,8.5,9,8.4z"/>
	<path id="XMLID_378_" class="st1" d="M11.6,4.9c0-0.1,0-0.2,0-0.3c-0.1-0.2,0-0.3,0.3-0.3c0.2,0,0.4,0,0.5,0c0.1,0,0.2,0,0.2,0.1
		c0,0.1-0.1,0.1-0.2,0.1c-0.1,0-0.3-0.1-0.3,0.1c0,0.2,0.2,0.1,0.3,0.2c0.1,0,0.1,0,0.1,0.1C12.5,5,12.4,5,12.4,5
		c-0.1,0-0.3-0.1-0.3,0.2c0,0.2,0.2,0.1,0.4,0.1c0.1,0,0.2-0.1,0.2,0.1c0,0.1-0.1,0.1-0.1,0.1c-0.2,0-0.5,0-0.7,0
		c-0.1,0-0.1-0.1-0.1-0.2C11.6,5.2,11.6,5,11.6,4.9C11.6,4.9,11.6,4.9,11.6,4.9z"/>
	<path id="XMLID_377_" class="st1" d="M9.5,4.5c-0.1,0.1-0.3,0.1-0.4,0C9,4.5,8.9,4.6,8.9,4.8c0,0.2,0,0.3,0,0.5
		c0,0.2-0.1,0.2-0.2,0.2c-0.1,0-0.2,0-0.2-0.2c0-0.2,0-0.4,0-0.5c0-0.1,0-0.2-0.2-0.2c-0.1,0-0.2,0-0.1-0.1c0-0.1,0.1-0.1,0.2-0.1
		c0.3,0,0.6-0.1,0.9,0.1c0,0,0,0,0,0C9.4,4.4,9.5,4.4,9.5,4.5z"/>
	<path id="XMLID_376_" class="st1" d="M3.7,7.8c0-0.2-0.1-0.4,0.1-0.5c0.2,0,0.3,0,0.3-0.3c0-0.1,0.1-0.2,0.2-0.2c0.1,0,0.2,0,0.2,0
		c0.2,0,0.3,0.1,0.3,0.2c0,0.1,0,0.2,0.2,0.2c0.2,0,0.1,0.2,0.1,0.3c0,0.1,0,0.3-0.2,0.3C4.8,7.9,4.8,8,4.8,8.1
		c0,0.3-0.2,0.3-0.4,0.3c-0.2,0-0.4,0-0.4-0.2C4.1,7.8,3.8,7.9,3.7,7.8z"/>
	<path id="XMLID_375_" class="st2" d="M3.2,10.4c-0.4-0.5-0.3-1,0.3-1.5c0.6-0.2,1-0.1,1.3,0.3c0.4,0.5,0.3,1-0.2,1.4
		C4.1,10.9,3.6,10.8,3.2,10.4z"/>
	<path id="XMLID_374_" class="st1" d="M10.5,4.9c0-0.1,0-0.2,0-0.3c0-0.2,0.1-0.3,0.3-0.3c0.1,0,0.2,0,0.1,0.2c0,0.2,0,0.3,0,0.5
		c0,0.3,0,0.3,0.3,0.3c0.1,0,0.2-0.1,0.2,0c0,0.1-0.1,0.1-0.2,0.1c-0.2,0-0.4,0-0.6,0c-0.2,0-0.2-0.1-0.2-0.2
		C10.5,5.1,10.5,5,10.5,4.9C10.5,4.9,10.5,4.9,10.5,4.9z"/>
	<path id="XMLID_373_" class="st1" d="M9.5,4.5c-0.1,0-0.2,0-0.2-0.1c0,0,0,0,0,0c0.3,0,0.7,0,1,0c0.1,0.1,0,0.2-0.1,0.2
		c-0.1,0-0.2,0.1-0.2,0.2c0,0.2,0,0.4,0,0.6c0,0.2-0.1,0.2-0.2,0.2c-0.1,0-0.2,0-0.2-0.2c0-0.2,0-0.4,0-0.5C9.6,4.6,9.6,4.6,9.5,4.5
		z"/>
	<path id="XMLID_372_" class="st2" d="M14.3,10.1c-0.3,0-0.5-0.2-0.5-0.5c0-0.3,0.2-0.5,0.5-0.5c0.3,0,0.5,0.2,0.5,0.5
		C14.8,9.9,14.5,10.1,14.3,10.1z"/>
	<path id="XMLID_371_" class="st1" d="M14.7,8.5c0,0.3-0.2,0.5-0.5,0.5c-0.3,0-0.5-0.2-0.5-0.5C13.8,8.2,14,8,14.3,8
		C14.5,8,14.7,8.2,14.7,8.5z"/>
	<path id="XMLID_370_" class="st1" d="M13.8,9.1c0,0.3-0.2,0.5-0.5,0.5c-0.3,0-0.5-0.2-0.5-0.5c0-0.3,0.2-0.5,0.5-0.5
		C13.5,8.6,13.8,8.8,13.8,9.1z"/>
	<path id="XMLID_369_" class="st1" d="M13.8,10.2c0,0.3-0.2,0.5-0.5,0.5c-0.3,0-0.5-0.2-0.5-0.5c0-0.3,0.2-0.5,0.5-0.5
		C13.6,9.7,13.8,10,13.8,10.2z"/>
	<path id="XMLID_368_" class="st3" d="M10.4,4.4c-0.3,0-0.7,0-1,0C9.7,4.3,10,4.3,10.4,4.4z"/>
	<path id="XMLID_367_" d="M10,12.7c-0.5-0.5-0.6-0.7-0.3-1.3c0.1-0.2,0.2-0.4,0.3-0.6c0-0.1,0.1-0.1,0.1-0.2c0,0,0.1-0.1,0.2,0
		c0.1,0,0,0.1,0,0.1c-0.1,0.2-0.2,0.5-0.4,0.7c-0.2,0.4-0.2,0.7,0,1.1C10,12.6,10,12.7,10,12.7z"/>
	<path id="XMLID_366_" d="M5.1,12.2c0-0.1,0.1-0.1,0.1-0.2c0.2,0.3,0.3,0.6,0.5,1c0.2,0.4,0.5,0.5,0.9,0.5c0.1,0,0.2,0,0.2,0.1
		c-0.2,0-0.4,0-0.6,0c-0.2,0-0.4-0.1-0.5-0.3C5.4,13,5.3,12.6,5.1,12.2z"/>
	<path id="XMLID_365_" d="M2.4,3.6C2.2,3.5,2.2,3.3,2.1,3.2C2.2,3.1,2.2,3,2.3,2.9c0,0,0.1-0.1,0.1-0.1c0.1,0,0,0.1,0,0.1
		c0,0-0.1,0.1-0.1,0.1c0,0.1-0.1,0.2,0,0.2c0.1,0.1,0.1,0,0.2,0c0,0,0.1-0.1,0.1,0c0,0,0,0.1,0,0.1C2.5,3.5,2.4,3.5,2.4,3.6z"/>
	<path id="XMLID_364_" d="M2,2.8C2,2.8,1.9,2.8,2,2.8C2,2.6,2,2.6,2.1,2.6c0,0,0.1,0,0.1,0.1C2.2,2.8,2.1,2.8,2,2.8z"/>
	<path id="XMLID_363_" d="M2.6,2.5c0,0,0-0.1,0-0.1c0-0.1-0.1-0.1,0-0.2c0,0,0.1,0,0.1,0c0,0.1,0,0.2,0,0.2C2.7,2.4,2.7,2.5,2.6,2.5
		C2.6,2.5,2.6,2.5,2.6,2.5z"/>
	<path id="XMLID_362_" d="M15.8,2.3c-0.2,0-0.3-0.1-0.3-0.2C15.7,2.1,15.7,2.2,15.8,2.3z"/>
	<path id="XMLID_361_" d="M6.9,8.8c-0.1,0-0.2,0-0.2-0.1c0-0.1,0.1-0.1,0.2-0.1c0.1,0,0.2,0,0.2,0.1C7.1,8.7,7,8.8,6.9,8.8z"/>
	<path id="XMLID_360_" d="M7.1,8.2C7,8.3,7,8.3,6.9,8.3c-0.1,0-0.1,0-0.1-0.1C6.8,8.1,6.8,8,6.9,8C7,8,7.1,8.1,7.1,8.2z"/>
	<path id="XMLID_359_" d="M8.2,8c0.1,0,0.2,0,0.2,0.1c0,0.1-0.1,0.1-0.2,0.1c-0.1,0-0.2,0-0.2-0.1C8.1,8.1,8.1,8,8.2,8z"/>
	<path id="XMLID_358_" d="M6.3,4.6c0,0.1-0.1,0.1-0.1,0.1C6.1,4.8,6,4.8,6,4.7c0-0.1,0-0.1,0.1-0.1C6.2,4.5,6.3,4.6,6.3,4.6z"/>
	<path id="XMLID_357_" d="M6.2,5.3C6.1,5.3,6,5.2,6,5.1C6,5.1,6,5,6.1,5c0.1,0,0.2,0,0.2,0.1C6.3,5.2,6.3,5.3,6.2,5.3z"/>
	<path id="XMLID_356_" d="M8.9,6.9C9,7,8.9,7,8.9,6.9c-0.1,0.1-0.2,0-0.2,0c0,0,0-0.1,0.1-0.1C8.9,6.8,8.9,6.9,8.9,6.9z"/>
	<path id="XMLID_355_" d="M7.4,4.7C7.5,4.8,7.5,4.9,7.5,5c0,0.1-0.1,0-0.1,0C7.3,4.9,7.3,4.8,7.4,4.7z"/>
	<path id="XMLID_354_" class="st1" d="M4.7,7.4c0.1,0,0.1,0,0.2,0C5,7.4,5,7.5,5,7.6c0,0.1,0,0.2-0.1,0.2C4.7,7.7,4.7,7.9,4.7,8
		c0,0.2-0.1,0.2-0.2,0.2c-0.2,0-0.2,0-0.2-0.2C4.3,7.7,4,7.8,3.9,7.7c0,0,0-0.1,0-0.1c0-0.1,0-0.2,0.2-0.2c0.2,0,0.2-0.1,0.2-0.2
		C4.3,7,4.3,7,4.5,7c0.1,0,0.1,0,0.1,0.1C4.6,7.2,4.6,7.3,4.7,7.4z"/>
	<path id="XMLID_353_" class="st1" d="M4.7,7.4C4.6,7.3,4.6,7.2,4.6,7.2C4.6,7.1,4.5,7,4.4,7C4.3,7,4.3,7.1,4.3,7.2
		c0,0.2,0,0.3-0.3,0.3c-0.1,0-0.1,0-0.1,0.1c0,0.1,0.1,0.1,0.2,0.1c-0.1,0-0.2,0-0.3,0c0-0.2,0-0.4,0.2-0.3c0.2,0,0.1-0.1,0.1-0.2
		C4.2,7,4.3,7,4.5,6.9c0.2,0,0.2,0.1,0.2,0.2C4.7,7.2,4.7,7.3,4.7,7.4z"/>
	<path id="XMLID_352_" class="st1" d="M3.6,10.6c-0.2-0.1-0.4-0.3-0.5-0.5c0-0.4,0.1-0.8,0.4-1C3.8,9,4,8.9,4.2,8.9
		C4.5,9,4.7,9.2,4.8,9.5c0,0.1-0.1,0.3-0.1,0.4c0,0.3-0.4,0.7-0.8,0.7C3.8,10.6,3.7,10.6,3.6,10.6z"/>
	<path id="XMLID_351_" class="st1" d="M3.6,10.6c0-0.1,0.1-0.1,0.2-0.1c0.6-0.1,0.8-0.3,0.8-0.9c0-0.1,0-0.2,0.2-0.1
		c0.1,0.3,0.1,0.6-0.1,0.8c-0.1,0.1-0.3,0.2-0.4,0.3l0,0c-0.2,0.1-0.4,0-0.5,0C3.7,10.6,3.6,10.6,3.6,10.6z"/>
	<path id="XMLID_350_" class="st1" d="M4.2,8.9C4.1,9,4,9,3.8,9C3.4,9.1,3.2,9.4,3.2,9.8c0,0.1,0,0.2,0,0.2C3,9.7,3.1,9.4,3.3,9.2
		C3.6,8.9,3.9,8.8,4.2,8.9z"/>
	<path id="XMLID_349_" class="st1" d="M3.7,10.6c0.2-0.1,0.4,0,0.5,0C4.1,10.7,3.9,10.7,3.7,10.6z"/>
	<path id="XMLID_348_" class="st1" d="M4.2,10.6c0.2-0.1,0.3-0.2,0.4-0.3C4.6,10.4,4.4,10.6,4.2,10.6z"/>
	<path id="XMLID_347_" class="st1" d="M14.6,9.4c0.1,0.2,0,0.5-0.2,0.5c-0.2,0.1-0.4,0-0.5-0.2c-0.1-0.2,0-0.4,0.2-0.5
		c0.1-0.1,0.2-0.1,0.3,0c0,0,0,0.1,0,0.1c-0.1,0.1-0.3,0.1-0.3,0.3c0,0.1,0.1,0.2,0.2,0.1c0.1-0.1,0.1-0.1,0.1-0.2
		C14.5,9.5,14.5,9.4,14.6,9.4z"/>
	<path id="XMLID_346_" class="st1" d="M14.6,9.4c-0.1,0.1,0,0.2-0.1,0.3c-0.2,0.2-0.3,0.2-0.5,0c0,0,0,0,0,0c0.3,0,0.4-0.1,0.4-0.4
		c0,0,0,0,0,0C14.5,9.3,14.6,9.3,14.6,9.4z"/>
	<path id="XMLID_345_" class="st1" d="M14.6,8.3c0.1,0.2,0.1,0.4-0.1,0.5c-0.2,0.1-0.3,0.1-0.5,0c0,0,0-0.1,0-0.1
		c0.3,0,0.3,0,0.4-0.3C14.5,8.3,14.5,8.3,14.6,8.3z"/>
	<path id="XMLID_344_" class="st1" d="M14.6,8.3c0,0.1,0,0.2-0.1,0.3c-0.1,0.1-0.2,0.2-0.4,0.1c0,0-0.1-0.1-0.1-0.1c0,0,0,0,0.1,0
		c0.2,0,0.3-0.1,0.3-0.3C14.4,8.2,14.5,8.2,14.6,8.3C14.5,8.2,14.6,8.3,14.6,8.3z"/>
	<path id="XMLID_343_" class="st1" d="M14.5,8.2C14.5,8.2,14.5,8.2,14.5,8.2c-0.1,0.1-0.2,0.1-0.3,0.2c0,0-0.1,0.1-0.1,0.1
		c0,0-0.1,0.1-0.1,0.2c0,0,0,0.1,0,0.1c0,0,0,0,0,0c-0.2-0.2-0.2-0.4,0-0.5C14.1,8.1,14.3,8.1,14.5,8.2z"/>
	<path id="XMLID_342_" class="st1" d="M13.7,9.1c0,0.2-0.2,0.4-0.4,0.4c-0.2,0-0.4-0.2-0.4-0.4c0-0.2,0.2-0.4,0.4-0.4
		C13.5,8.7,13.7,8.9,13.7,9.1z"/>
	<path id="XMLID_341_" class="st1" d="M13.6,10c0.1,0.2,0,0.4-0.1,0.5c-0.2,0.1-0.4,0.1-0.5-0.1c-0.1-0.2-0.1-0.4,0-0.5
		c0,0,0,0,0.1,0c0.1,0.1,0,0.2,0,0.4c0.1,0.1,0.3,0.1,0.4-0.1C13.5,10.1,13.5,10,13.6,10z"/>
	<path id="XMLID_340_" class="st1" d="M13.1,9.9C13.1,9.9,13.1,9.9,13.1,9.9c0.2-0.2,0.3-0.1,0.5,0.1c0,0.1-0.1,0.2-0.2,0.3
		c-0.2,0.2-0.2,0.2-0.4,0C13.2,10.1,13.2,10.1,13.1,9.9z"/>
	<path id="XMLID_339_" class="st1" d="M14.4,9.3c0.1,0.3-0.1,0.5-0.4,0.4C14,9.4,14.1,9.3,14.4,9.3z"/>
	<path id="XMLID_338_" class="st1" d="M14.1,8.3c0.1-0.1,0.2-0.1,0.3,0c0,0.3-0.1,0.4-0.4,0.4c0-0.1-0.1-0.2,0-0.2
		C14.1,8.4,14.1,8.4,14.1,8.3z"/>
	<path id="XMLID_337_" class="st1" d="M14.1,8.3c0.1,0,0.2-0.1,0.2,0c0,0.1,0,0.1-0.1,0.2c-0.1,0-0.1,0-0.1-0.1
		C14.1,8.4,14.1,8.3,14.1,8.3z"/>
	<path id="XMLID_336_" class="st1" d="M13.4,8.8c0.2,0.1,0.1,0.3,0,0.4c-0.1,0.1-0.3,0.2-0.4,0C13.1,9,13.3,8.9,13.4,8.8z"/>
	<path id="XMLID_335_" class="st1" d="M13.4,8.8c0,0.3-0.1,0.4-0.4,0.4c0-0.1,0-0.3,0.1-0.3c0.1,0,0.1,0.1,0.1,0
		C13.3,8.7,13.4,8.8,13.4,8.8z"/>
	<path id="XMLID_334_" class="st1" d="M13.2,8.8c0.1,0,0.1,0.1,0.1,0.2c0,0.1-0.1,0.1-0.2,0.1C13,9,13.1,8.9,13.2,8.8
		C13.2,8.8,13.2,8.8,13.2,8.8z"/>
	<path id="XMLID_333_" class="st1" d="M13.1,9.9c0.1,0,0.2-0.1,0.3,0c0.1,0.1,0,0.2,0,0.2c-0.1,0.1-0.1,0.2-0.3,0.1c0,0-0.1,0-0.1,0
		C13,10.2,13,10.1,13.1,9.9z"/>
	<path id="XMLID_332_" class="st1" d="M14.3,9.5c0,0.1-0.1,0.1-0.2,0.2c-0.1,0-0.1,0-0.1-0.1C14.1,9.5,14.1,9.4,14.3,9.5
		C14.3,9.4,14.3,9.4,14.3,9.5z"/>
	<path id="XMLID_331_" class="st1" d="M13.4,10.1c0,0.1-0.1,0.2-0.2,0.2c-0.1,0-0.1,0-0.1-0.1C13.1,10.1,13.2,10,13.4,10.1
		C13.3,10,13.4,10,13.4,10.1z"/>
</g>
</svg>
