<?xml version="1.0" encoding="utf-8"?>
<!-- Generator: Adobe Illustrator 19.0.0, SVG Export Plug-In . SVG Version: 6.00 Build 0)  -->
<svg version="1.1" id="Layer_1" xmlns="http://www.w3.org/2000/svg" xmlns:xlink="http://www.w3.org/1999/xlink" x="0px" y="0px"
	 viewBox="0 0 36 13.4" style="enable-background:new 0 0 36 13.4;" xml:space="preserve">
<style type="text/css">
	.st0{display:none;fill:#FFFFFF;}
</style>
<g id="XMLID_1_">
	<path id="XMLID_307_" class="st0" d="M-19.7-3.1c18.4,0,36.8,0,55.1,0c0,6.1,0,12.2,0,18.3c-18.4,0-36.8,0-55.1,0
		C-19.7,9-19.7,2.9-19.7-3.1z M-14.2,7.7c0,0.3-0.4,0.8-0.7,0.8c-0.4,0-0.5-0.2-0.6-0.8c-0.3,0.1-0.3,0.3-0.1,0.5
		c0.1,0.1,0.1,0.3,0.1,0.4c0,0.2,0,0.4,0,0.5c0,0.1,0,0.3-0.1,0.4c-0.4,0.5-0.6,1.1-0.8,1.7c-0.3,0.8-0.4,1.6-0.4,2.5
		c0.6,0,1.1,0,1.7,0c0-0.7,0-1.4,0-2.1c0-0.6,0-1.2,0-1.8c0-0.4,0.4-0.6,0.5-0.9c0.1-0.4,0.4-0.6,0.7-0.8c0.1,0.1,0.1,0.1,0.2,0.3
		C-13.8,8-13.8,7.8-14.2,7.7c0.4-0.3,0.7-0.6,1.1-0.9c0.2,0.4,0,0.8-0.2,1.2c-0.1,0.1-0.1,0.2-0.2,0.3c-0.2,0.4-0.3,0.9-0.5,1.3
		c-0.1,0.3-0.2,0.6-0.2,0.9c0.1,1,0.3,2,0.5,3c0,0.2,0.1,0.3,0.3,0.3c1.2,0,2.5,0,3.7,0c0.1,0,0.2,0,0.3,0c-0.1-0.7-0.2-1.4-0.3-2
		c-0.1-0.5-0.3-1.1,0-1.6c0.1-0.1,0.2-0.2,0.3-0.3c0.9-0.4,1.8-0.7,2.6-1.3c0.3-0.3,0.7-0.5,1-0.7c0.3-0.2,0.6-0.5,0.8-0.8
		c0.2-0.3,0.4-0.6,0.6-0.9c0.5-0.5,0.9-1,1.4-1.5c0.2-0.2,0.2-0.3,0.2-0.5c0-0.1,0-0.2-0.1-0.3c-0.4-0.6-0.1-1.1,0.3-1.6
		c0.2-0.3,0.4-0.6,0.6-0.9c0.1-0.2,0.3-0.5,0.4-0.8c0.1-0.7-0.3-1.1-0.8-1.4C-2.5-1-2.7-1-2.9-1.3c0-0.1-0.2-0.1-0.4-0.1
		c-0.1,0-0.3,0-0.4,0c-0.3-0.1-0.5,0-0.6,0.2c-0.2,0.3-0.2,0.6-0.2,0.9c0,0.2,0,0.4-0.1,0.5c-0.2,0.3-0.2,0.5,0,0.7
		c0.3,0.4,0.4,0.8,0.1,1.2c-0.1,0.1-0.2,0.3-0.3,0.4C-5,2.7-5.2,2.9-5.3,3c-0.5,0.7-1,1.4-1.6,2.1C-7.2,5.5-7.6,5.8-8,6.1
		c-0.3,0.2-0.6,0.3-0.9,0.5c-0.4,0.3-0.8,0.3-1.1-0.1c-0.2-0.2-0.4-0.5-0.7-0.4c-0.7,0.1-1.5,0.3-2.2,0.5c-0.1,0-0.1,0-0.2,0
		c0.1-0.3,0.2-0.5,0.4-0.7c0.4-0.3,0.5-0.8,0.6-1.3c0-0.1,0-0.2,0.1-0.3c0.1-0.4,0.3-0.9-0.1-1.3c-0.3-0.3-0.4-0.8-0.8-1
		c0,0-0.1-0.1-0.1-0.1c-0.3-0.2-0.6-0.3-0.9-0.4c0,0,0,0,0,0c-0.2,0.1-0.4,0.2-0.6,0.2C-14.8,1.8-15,2-15.2,2.1
		c-0.2,0.2-0.5,0.3-0.5,0.6c-0.1,0.7-0.2,1.3-0.3,2c0,0.2,0,0.3,0.1,0.5c0.1,0.5,0.3,0.9,0.5,1.4c-0.7,0.1-1.4,0.3-2,0.4
		c-0.5,0-0.7,0.4-0.9,0.7c-0.1,0.2-0.2,0.5-0.2,0.8c-0.2,1.1-0.3,2.2-0.6,3.3c-0.2,0.6-0.2,1.3-0.3,2c0.8,0,1.6,0,2.3,0
		c0-0.7,0-1.5,0-2.2c0.1-1.2,0.6-2.2,1.2-3.2c0.2-0.4,0.4-0.8,0.4-1.2c0-0.2,0.1-0.3,0.1-0.5c-0.3,0.7,0.5,1,0.7,1.5
		C-14.7,8-14.4,7.8-14.2,7.7z M5.6,8.3c0-2.3,0-4.7,0-7c-0.1,0-0.3,0-0.4,0c-0.3,0-0.4,0-0.4,0.3C4.6,2.8,4.3,3.9,4,5
		C3.9,5.4,3.8,5.9,3.7,6.3c0,0-0.1,0-0.1,0C3.3,4.6,3,3,2.6,1.3c-0.3,0-0.6,0-0.9,0c0,2.3,0,4.7,0,7c0.2,0,0.5,0,0.7,0
		c0-1.2,0-2.3,0-3.5c0,0,0.1,0,0.1,0C2.8,6,3,7.1,3.3,8.3c0.1,0,0.2,0,0.3,0C3.9,8.4,4,8.2,4.1,7.9C4.3,7,4.5,6,4.8,5
		c0-0.1,0.1-0.1,0.1-0.2c0,0,0,0,0.1,0c0,1.2,0,2.3,0,3.5C5.2,8.3,5.4,8.3,5.6,8.3z M11.9,8.3c0-2.4,0-4.7,0-7c-0.2,0-0.5,0-0.7,0
		c0,1.4,0,2.7,0,4.1C11.1,5.3,11,5.1,11,5c-0.3-1.2-0.6-2.3-1-3.5c0-0.1-0.1-0.2-0.2-0.2c-0.2,0-0.4,0-0.6,0c0,2.4,0,4.7,0,7
		c0.2,0,0.5,0,0.7,0c0-1.3,0-2.5,0-3.7c0.1,0.1,0.1,0.2,0.2,0.3c0.3,1.1,0.6,2.1,1,3.2c0,0.1,0.1,0.2,0.2,0.2
		C11.5,8.3,11.7,8.3,11.9,8.3z M8.8,4.8c0-0.7,0-1.4,0-2.2c0-0.2,0-0.4-0.1-0.5c-0.2-0.6-0.8-1-1.4-0.9C6.5,1.3,6.1,1.8,6.1,2.5
		c0,1.5,0,3,0,4.5c0,0.8,0.6,1.4,1.4,1.4c0.8,0,1.3-0.6,1.4-1.4C8.8,6.3,8.8,5.5,8.8,4.8z M24.9,8.3c0-2.4,0-4.7,0-7
		c-0.2,0-0.4,0-0.7,0c0,1.4,0,2.7,0,4.1c0,0-0.1,0-0.1,0c-0.4-1.4-0.8-2.7-1.1-4.1c-0.3,0-0.5,0-0.7,0c0,2.3,0,4.7,0,7
		c0.2,0,0.5,0,0.7,0c0-1.3,0-2.5,0-3.7C23,4.6,23,4.6,23,4.7c0.3,1.1,0.7,2.3,1,3.4c0,0.1,0.1,0.2,0.2,0.2
		C24.5,8.3,24.7,8.3,24.9,8.3z M12.4,8.3c0.5,0,1,0,1.4,0c0.7,0,1.2-0.6,1.2-1.3c0-1.5,0-3,0-4.5c0-0.6-0.4-1.1-1-1.2
		c-0.5-0.1-1.1-0.1-1.7-0.1C12.4,3.6,12.4,6,12.4,8.3z M29.2,2.7c0.1-0.9-0.5-1.5-1.3-1.6c-0.8,0-1.4,0.6-1.4,1.4c0,1.5,0,3,0,4.5
		c0,0.3,0.1,0.6,0.3,0.8c0.2,0.3,0.5,0.5,0.9,0.5c0.4,0.1,0.7-0.1,1-0.4c0.1,0.4,0.4,0.2,0.6,0.2c0-1.3,0-2.6,0-3.8
		c-0.5,0-0.9,0-1.4,0c0,0.2,0,0.5,0,0.7c0.2,0,0.4,0,0.6,0c0,0.7,0,1.3,0,1.9c0,0.4-0.3,0.6-0.6,0.6c-0.3,0-0.6-0.3-0.6-0.6
		c0-0.2,0-0.5,0-0.7c0-1.3,0-2.5,0-3.8c0-0.4,0.2-0.6,0.6-0.6c0.3,0,0.6,0.2,0.6,0.6c0,0.1,0,0.1,0,0.2C28.8,2.7,29,2.7,29.2,2.7z
		 M32.4,8.3c0-2.3,0-4.7,0-7c-0.3,0-0.5,0-0.7,0c0,0,0,0.1,0,0.1c0,0.7,0,1.4,0,2.1c0,1,0,1-1,0.9c-0.2,0-0.2-0.1-0.2-0.3
		c0-0.7,0-1.3,0-2c0-0.3,0-0.6,0-0.8c-0.3,0-0.5,0-0.7,0c0,2.3,0,4.7,0,7c0.2,0,0.5,0,0.7,0c0-0.1,0-0.2,0-0.3c0-0.9,0-1.8,0-2.6
		c0-0.1,0.1-0.2,0.2-0.2c0.3,0,0.7,0,1,0c0,1.1,0,2.1,0,3.2C32,8.3,32.2,8.3,32.4,8.3z M18.1,8.2c-0.4-2.3-0.7-4.6-1.1-6.9
		c-0.2,0-0.5,0-0.7,0c-0.4,2.3-0.7,4.6-1.1,7c0.1,0,0.2,0,0.3,0c0.5,0,0.5,0,0.6-0.5c0-0.1,0-0.2,0.1-0.4c0.3,0,0.7,0,1,0
		c0,0.1,0,0.2,0.1,0.3C17.4,8.4,17.4,8.4,18.1,8.2C18.1,8.3,18.1,8.3,18.1,8.2z M17.7,1.3c0.2,0.6,0.3,1.2,0.5,1.7
		c0.5,1.2,0.7,2.5,0.6,3.8c0,0.5,0,0.9,0,1.4c0.3,0,0.5,0,0.8,0c0-0.1,0-0.2,0-0.3c0-0.8,0-1.5,0-2.3c0-0.5,0-0.9,0.2-1.3
		c0.1-0.3,0.2-0.6,0.3-0.9c0.2-0.7,0.4-1.4,0.6-2.1c-0.3,0-0.6,0-0.8,0c-0.2,0.8-0.4,1.6-0.6,2.4c0,0,0,0-0.1,0
		c-0.2-0.8-0.4-1.6-0.6-2.4C18.3,1.3,18.1,1.3,17.7,1.3z M34.3,2.1c0.3,0,0.5,0,0.8,0c0-0.3,0-0.5,0-0.7c-0.8,0-1.6,0-2.3,0
		c0,0.3,0,0.5,0,0.8c0.3,0,0.5,0,0.8,0c0,2.1,0,4.1,0,6.2c0.3,0,0.5,0,0.8,0C34.3,6.2,34.3,4.2,34.3,2.1z M26.1,8.3c0-2.3,0-4.7,0-7
		c-0.3,0-0.5,0-0.7,0c0,2.3,0,4.7,0,7C25.6,8.3,25.8,8.3,26.1,8.3z M19.6,11.5c-0.2-0.5-0.4-1-0.6-1.4c-0.1-0.1-0.2-0.3-0.2-0.4
		c-0.1,0.1-0.2,0.2-0.2,0.4c-0.2,0.4-0.4,0.9-0.6,1.4c-0.2-0.6-0.4-1.1-0.6-1.6c-0.1-0.2-0.2-0.2-0.4-0.1c0.3,0.7,0.6,1.4,0.8,2.1
		c0,0.1,0.1,0.1,0.2,0.1c0.1,0,0.1-0.1,0.2-0.1c0.1-0.2,0.1-0.4,0.2-0.6c0.1-0.3,0.3-0.7,0.4-1.1c0.2,0.6,0.4,1.1,0.6,1.6
		c0,0.1,0.1,0.2,0.2,0.2c0,0,0.1-0.1,0.2-0.2c0.3-0.7,0.5-1.4,0.8-2.1c-0.3,0-0.3,0-0.4,0.2C20,10.4,19.8,10.9,19.6,11.5z M4.5,12
		c0.4,0,0.8,0,1.1,0c0.1,0,0.2,0,0.3-0.1c0.2-0.1,0.4-0.2,0.5-0.5c0-0.3,0-0.5-0.3-0.6c0,0,0,0,0-0.1c0.4-0.5,0.2-0.9-0.3-1
		C5.4,9.7,5,9.7,4.5,9.7C4.5,10.5,4.5,11.2,4.5,12z M10.7,12.1c0,0,0-0.1,0.1-0.1c-0.1-0.1-0.3-0.3-0.4-0.4
		c-0.1-0.1-0.3-0.3-0.4-0.4c0.1-0.1,0.3-0.1,0.3-0.2c0.4-0.3,0.4-0.9-0.1-1.1c-0.5-0.2-1-0.1-1.5-0.1c0,0.8,0,1.5,0,2.3
		c0.1,0,0.2,0,0.3,0c0-0.3,0-0.6,0-0.8c0.4-0.1,0.7,0,0.9,0.3c0.1,0.1,0.2,0.3,0.4,0.4C10.4,11.9,10.6,12,10.7,12.1z M25.5,10.2
		c0.5,0.6,0.9,1.1,1.3,1.6c0.1,0.1,0.2,0.2,0.4,0.3c0-0.9,0-1.6,0-2.4c-0.1,0-0.2,0-0.3,0c0,0.6,0,1.1,0,1.7c0,0,0,0-0.1,0
		c-0.1-0.1-0.1-0.1-0.2-0.2c-0.4-0.5-0.7-0.9-1.1-1.3c-0.1-0.1-0.2-0.1-0.4-0.2c0,0.8,0,1.6,0,2.3c0,0,0,0,0,0.1c0.1,0,0.2,0,0.3,0
		C25.5,11.4,25.5,10.9,25.5,10.2z M31.6,10.9c-0.4,0-0.7,0-1.1,0c0,0,0,0-0.1,0.1c0.1,0.1,0.1,0.2,0.2,0.2c0.1,0,0.3,0,0.4,0
		c0.1,0,0.2,0.1,0.2,0.1c0,0.1,0,0.3-0.1,0.4c-0.4,0.2-0.7,0.2-1.1,0c-0.3-0.2-0.5-0.6-0.4-1c0.1-0.4,0.3-0.6,0.7-0.7
		c0.4-0.1,0.7,0.1,0.9,0.4c0.1-0.1,0.1-0.1,0.2-0.2c-0.3-0.5-0.7-0.6-1.2-0.5c-0.5,0.1-0.8,0.4-0.9,0.9c-0.1,0.5,0.1,1,0.5,1.3
		c0.4,0.3,1.1,0.3,1.5,0c0,0,0.1-0.1,0.1-0.2C31.6,11.4,31.6,11.2,31.6,10.9z M13.1,12c0.5,0,1,0,1.5,0c0.1,0,0.1-0.1,0.2-0.2
		c0,0,0-0.1-0.1-0.1c-0.4,0-0.8,0-1.3,0c0-0.3,0-0.5,0-0.8c0.3,0,0.7,0,1,0c0-0.1,0-0.2,0-0.3c-0.4,0-0.7,0-1,0c0-0.2,0-0.4,0-0.7
		c0.4,0,0.8,0,1.3,0c0,0,0-0.1,0.1-0.1c-0.1-0.1-0.1-0.2-0.2-0.2c-0.5,0-1,0-1.4,0c0,0.1,0,0.1,0,0.2C13.1,10.6,13.1,11.3,13.1,12z
		 M23,12C23,12,23,12,23,12c0.1-0.8,0.1-1.4,0.1-2.1c0-0.2-0.1-0.2-0.3-0.2c0,0.7,0,1.4,0,2.1C22.8,11.9,22.9,12,23,12z"/>
	<g id="XMLID_34_">
		<path id="XMLID_303_" d="M5.6,8.3c-0.2,0-0.4,0-0.7,0c0-1.2,0-2.3,0-3.5c0,0,0,0-0.1,0c0,0.1-0.1,0.1-0.1,0.2C4.5,6,4.3,7,4.1,7.9
			C4,8.2,3.9,8.4,3.6,8.3c-0.1,0-0.2,0-0.3,0C3,7.1,2.8,6,2.5,4.8c0,0-0.1,0-0.1,0c0,1.2,0,2.3,0,3.5c-0.3,0-0.5,0-0.7,0
			c0-2.3,0-4.6,0-7c0.3,0,0.6,0,0.9,0c0.3,1.7,0.7,3.3,1,5c0,0,0.1,0,0.1,0C3.8,5.9,3.9,5.4,4,5c0.3-1.1,0.5-2.3,0.8-3.4
			C4.9,1.3,5,1.3,5.2,1.3c0.1,0,0.2,0,0.4,0C5.6,3.6,5.6,6,5.6,8.3z"/>
		<path id="XMLID_302_" d="M11.9,8.3c-0.2,0-0.4,0-0.6,0c-0.1,0-0.2-0.1-0.2-0.2c-0.3-1.1-0.7-2.1-1-3.2c0-0.1-0.1-0.2-0.2-0.3
			c0,1.2,0,2.5,0,3.7c-0.3,0-0.5,0-0.7,0c0-2.3,0-4.6,0-7c0.2,0,0.4,0,0.6,0c0.1,0,0.2,0.1,0.2,0.2c0.3,1.2,0.7,2.3,1,3.5
			c0,0.1,0.1,0.2,0.2,0.4c0-1.4,0-2.7,0-4.1c0.3,0,0.5,0,0.7,0C11.9,3.6,11.9,6,11.9,8.3z"/>
		<path id="XMLID_299_" d="M8.8,4.8c0,0.7,0,1.5,0,2.2c0,0.9-0.6,1.4-1.4,1.4C6.6,8.4,6.1,7.8,6.1,7c0-1.5,0-3,0-4.5
			c0-0.7,0.5-1.2,1.2-1.3c0.6-0.1,1.2,0.3,1.4,0.9c0.1,0.2,0.1,0.4,0.1,0.5C8.8,3.4,8.8,4.1,8.8,4.8z M7.5,7.9
			c0.1-0.2,0.2-0.4,0.4-0.5C8,7.2,8,7,8,6.8C7.9,5.6,7.8,4.5,7.7,3.3c0-0.3,0-0.6,0.1-0.9C7.9,2,7.8,1.9,7.4,2c0,0-0.1,0-0.1,0
			C7.1,2,7,2,7.1,2.3c0.1,0.2,0.2,0.4,0.2,0.5c-0.1,1-0.2,2.1-0.3,3.1C6.8,6.7,6.8,7.4,7.5,7.9z"/>
		<path id="XMLID_298_" d="M24.9,8.3c-0.2,0-0.4,0-0.6,0c-0.1,0-0.2-0.1-0.2-0.2c-0.4-1.1-0.7-2.3-1-3.4c0-0.1,0-0.1-0.1-0.2
			c0,1.2,0,2.5,0,3.7c-0.3,0-0.5,0-0.7,0c0-2.3,0-4.6,0-7c0.2,0,0.5,0,0.7,0c0.4,1.4,0.8,2.7,1.1,4.1c0,0,0.1,0,0.1,0
			c0-1.4,0-2.7,0-4.1c0.3,0,0.5,0,0.7,0C24.9,3.6,24.9,5.9,24.9,8.3z"/>
		<path id="XMLID_295_" d="M12.4,8.3c0-2.3,0-4.7,0-7c0.6,0,1.1,0,1.7,0.1c0.6,0.1,1,0.6,1,1.2c0,1.5,0,3,0,4.5
			c0,0.7-0.5,1.2-1.2,1.3C13.4,8.3,12.9,8.3,12.4,8.3z M13.2,2.1c0,1.9,0,3.7,0,5.5c0.2,0,0.4,0,0.6,0c0.3,0,0.6-0.3,0.6-0.6
			c0-1.4,0-2.9,0-4.3c0-0.3-0.2-0.6-0.6-0.6C13.5,2.1,13.4,2.1,13.2,2.1z"/>
		<path id="XMLID_294_" d="M29.2,2.7c-0.3,0-0.5,0-0.7,0c0-0.1,0-0.1,0-0.2c0-0.4-0.3-0.6-0.6-0.6c-0.3,0-0.6,0.2-0.6,0.6
			c0,1.3,0,2.5,0,3.8c0,0.2,0,0.5,0,0.7c0,0.4,0.3,0.6,0.6,0.6c0.3,0,0.6-0.2,0.6-0.6c0-0.6,0-1.3,0-1.9c-0.2,0-0.4,0-0.6,0
			c0-0.2,0-0.5,0-0.7c0.4,0,0.9,0,1.4,0c0,1.3,0,2.5,0,3.8c-0.2,0-0.5,0.2-0.6-0.2c-0.3,0.3-0.6,0.4-1,0.4c-0.4-0.1-0.7-0.2-0.9-0.5
			c-0.1-0.2-0.3-0.6-0.3-0.8c0-1.5,0-3,0-4.5c0-0.8,0.6-1.4,1.4-1.4C28.8,1.2,29.3,1.9,29.2,2.7z"/>
		<path id="XMLID_293_" d="M32.4,8.3c-0.2,0-0.5,0-0.7,0c0-1,0-2.1,0-3.2c-0.4,0-0.7,0-1,0c-0.1,0-0.2,0.2-0.2,0.2
			c0,0.9,0,1.8,0,2.6c0,0.1,0,0.2,0,0.3c-0.3,0-0.5,0-0.7,0c0-2.3,0-4.6,0-7c0.2,0,0.5,0,0.7,0c0,0.3,0,0.6,0,0.8c0,0.7,0,1.3,0,2
			c0,0.2,0,0.2,0.2,0.3c1,0,1,0,1-0.9c0-0.7,0-1.4,0-2.1c0,0,0,0,0-0.1c0.2,0,0.5,0,0.7,0C32.4,3.6,32.4,6,32.4,8.3z"/>
		<path id="XMLID_290_" d="M18.1,8.2C18.1,8.3,18.1,8.3,18.1,8.2c-0.7,0.1-0.7,0.1-0.8-0.5c0-0.1,0-0.2-0.1-0.3c-0.3,0-0.7,0-1,0
			c0,0.1,0,0.2-0.1,0.4c-0.1,0.5-0.1,0.5-0.6,0.5c-0.1,0-0.2,0-0.3,0c0.4-2.3,0.7-4.7,1.1-7c0.2,0,0.5,0,0.7,0
			C17.4,3.6,17.8,5.9,18.1,8.2z M17.2,6.7c-0.1-1-0.2-1.9-0.4-2.9c0,0-0.1,0-0.1,0c-0.1,0.9-0.3,1.9-0.4,2.9
			C16.6,6.7,16.9,6.7,17.2,6.7z"/>
		<path id="XMLID_289_" d="M17.7,1.3c0.3,0,0.6,0,0.9,0c0.2,0.8,0.4,1.6,0.6,2.4c0,0,0,0,0.1,0c0.2-0.8,0.4-1.6,0.6-2.4
			c0.3,0,0.5,0,0.8,0c-0.2,0.7-0.4,1.4-0.6,2.1c-0.1,0.3-0.2,0.6-0.3,0.9c-0.2,0.4-0.2,0.9-0.2,1.3c0,0.8,0,1.5,0,2.3
			c0,0.1,0,0.2,0,0.3c-0.3,0-0.5,0-0.8,0c0-0.5,0-1,0-1.4c0.1-1.3-0.2-2.6-0.6-3.8C18.1,2.5,17.9,1.9,17.7,1.3z"/>
		<path id="XMLID_288_" d="M34.3,2.1c0,2.1,0,4.2,0,6.2c-0.3,0-0.5,0-0.8,0c0-2.1,0-4.1,0-6.2c-0.3,0-0.5,0-0.8,0c0-0.3,0-0.5,0-0.8
			c0.8,0,1.5,0,2.3,0c0,0.2,0,0.5,0,0.7C34.8,2.1,34.6,2.1,34.3,2.1z"/>
		<path id="XMLID_286_" d="M26.1,8.3c-0.2,0-0.5,0-0.7,0c0-2.3,0-4.6,0-7c0.2,0,0.5,0,0.7,0C26.1,3.6,26.1,6,26.1,8.3z"/>
		<path id="XMLID_285_" d="M19.6,11.5c0.2-0.6,0.4-1.1,0.6-1.6c0.1-0.2,0.1-0.2,0.4-0.2c-0.3,0.7-0.5,1.4-0.8,2.1
			c0,0.1-0.1,0.2-0.2,0.2c-0.1,0-0.2-0.1-0.2-0.2c-0.2-0.5-0.4-1-0.6-1.6c-0.2,0.4-0.3,0.7-0.4,1.1c-0.1,0.2-0.1,0.4-0.2,0.6
			c0,0.1-0.1,0.1-0.2,0.1c0,0-0.1-0.1-0.2-0.1c-0.3-0.7-0.6-1.4-0.8-2.1c0.2-0.1,0.3-0.1,0.4,0.1c0.2,0.5,0.4,1,0.6,1.6
			c0.2-0.5,0.4-1,0.6-1.4c0.1-0.1,0.2-0.3,0.2-0.4c0.1,0.1,0.2,0.2,0.2,0.4C19.2,10.5,19.4,11,19.6,11.5z"/>
		<path id="XMLID_281_" d="M4.5,12c0-0.8,0-1.5,0-2.3c0.4,0,0.8,0,1.2,0.1c0.6,0.1,0.7,0.5,0.3,1c0,0,0,0.1,0,0.1
			c0.2,0.1,0.3,0.3,0.3,0.6c0,0.3-0.2,0.4-0.5,0.5C5.9,12,5.8,12,5.7,12C5.3,12,4.9,12,4.5,12z M4.8,11.8c0.4,0,0.7-0.1,1.1-0.2
			c0.1,0,0.3-0.2,0.3-0.3c0-0.1-0.1-0.3-0.2-0.3C5.6,11,5.2,11,4.8,10.9C4.8,11.2,4.8,11.5,4.8,11.8z M4.8,10.7c0.3,0,0.6,0,0.9-0.1
			c0.1,0,0.2-0.2,0.2-0.3c0-0.1-0.1-0.2-0.2-0.3C5.5,10,5.2,10,4.8,10C4.8,10.2,4.8,10.4,4.8,10.7z"/>
		<path id="XMLID_278_" d="M10.7,12.1c-0.2-0.1-0.3-0.2-0.5-0.3c-0.1-0.1-0.3-0.2-0.4-0.4c-0.2-0.3-0.5-0.4-0.9-0.3
			c0,0.3,0,0.5,0,0.8c-0.1,0-0.2,0-0.3,0c0-0.7,0-1.5,0-2.3c0.5,0,1-0.1,1.5,0.1c0.5,0.2,0.6,0.8,0.1,1.1C10.2,11,10.1,11,10,11.1
			c0.1,0.1,0.3,0.3,0.4,0.4c0.1,0.1,0.3,0.3,0.4,0.4C10.8,12,10.8,12,10.7,12.1z M8.9,10.9c0.4-0.1,0.7-0.1,1.1-0.2
			c0.1,0,0.2-0.2,0.2-0.4c0-0.1-0.2-0.3-0.3-0.3C9.6,10,9.3,10,8.9,10C8.9,10.3,8.9,10.6,8.9,10.9z"/>
		<path id="XMLID_277_" d="M25.5,10.2c0,0.6,0,1.2,0,1.7c-0.1,0-0.2,0-0.3,0c0,0,0-0.1,0-0.1c0-0.7,0-1.5,0-2.3
			c0.2,0.1,0.3,0.1,0.4,0.2c0.4,0.4,0.7,0.9,1.1,1.3c0.1,0.1,0.1,0.1,0.2,0.2c0,0,0,0,0.1,0c0-0.5,0-1.1,0-1.7c0.1,0,0.2,0,0.3,0
			c0,0.8,0,1.5,0,2.4c-0.2-0.1-0.3-0.2-0.4-0.3C26.4,11.3,26,10.8,25.5,10.2z"/>
		<path id="XMLID_276_" d="M31.6,10.9c0,0.3,0,0.5,0,0.8c0,0.1,0,0.1-0.1,0.2c-0.4,0.3-1.1,0.3-1.5,0c-0.4-0.3-0.6-0.8-0.5-1.3
			c0.1-0.5,0.4-0.8,0.9-0.9c0.5-0.1,0.9,0,1.2,0.5c-0.1,0.1-0.1,0.1-0.2,0.2c-0.2-0.3-0.5-0.5-0.9-0.4c-0.4,0.1-0.6,0.3-0.7,0.7
			c-0.1,0.4,0.1,0.8,0.4,1c0.3,0.2,0.7,0.2,1.1,0c0.1,0,0.1-0.2,0.1-0.4c0,0-0.2-0.1-0.2-0.1c-0.1,0-0.3,0-0.4,0
			c-0.1,0-0.1-0.1-0.2-0.2c0,0,0,0,0.1-0.1C30.8,10.9,31.2,10.9,31.6,10.9z"/>
		<path id="XMLID_275_" d="M13.1,12c0-0.7,0-1.4,0-2.1c0,0,0-0.1,0-0.2c0.5,0,1,0,1.4,0c0.1,0,0.1,0.1,0.2,0.2c0,0,0,0.1-0.1,0.1
			c-0.4,0-0.8,0-1.3,0c0,0.2,0,0.4,0,0.7c0.3,0,0.7,0,1,0c0,0.1,0,0.2,0,0.3c-0.4,0-0.7,0-1,0c0,0.3,0,0.5,0,0.8c0.4,0,0.9,0,1.3,0
			c0,0,0,0.1,0.1,0.1c-0.1,0.1-0.1,0.2-0.2,0.2C14.1,12,13.6,12,13.1,12z"/>
		<path id="XMLID_274_" d="M23,12c-0.1-0.1-0.2-0.1-0.2-0.2c0-0.7,0-1.4,0-2.1c0.2-0.1,0.3-0.1,0.3,0.2C23,10.6,23,11.3,23,12
			C23,12,23,12,23,12z"/>
	</g>
	<path id="XMLID_273_" class="st0" d="M-3,3.4c-0.1,0.4-0.3,0.9-0.6,1.2c-0.1,0.1-0.3,0-0.4,0c-0.6-0.2-1-0.7-1.2-1.3
		c0-0.1-0.1-0.3,0.2-0.4c-0.1,0.4,0.3,0.8,0.8,1C-3.6,4-3.2,3.8-3,3.4z"/>
	<path id="XMLID_272_" class="st0" d="M7.5,7.9c-0.7-0.5-0.6-1.2-0.5-2c0.1-1,0.2-2.1,0.3-3.1c0-0.2-0.1-0.4-0.2-0.5
		C7,2,7.1,2,7.3,2c0,0,0.1,0,0.1,0c0.5,0,0.5,0,0.4,0.5C7.7,2.7,7.6,3,7.7,3.3C7.8,4.5,7.9,5.6,8,6.8C8,7,8,7.2,7.8,7.4
		C7.7,7.5,7.6,7.7,7.5,7.9z"/>
	<path id="XMLID_271_" class="st0" d="M13.2,2.1c0.2,0,0.4,0,0.6,0c0.3,0,0.6,0.2,0.6,0.6c0,1.4,0,2.9,0,4.3c0,0.3-0.3,0.6-0.6,0.6
		c-0.2,0-0.4,0-0.6,0C13.2,5.7,13.2,3.9,13.2,2.1z"/>
	<path id="XMLID_270_" class="st0" d="M17.2,6.7c-0.3,0-0.5,0-0.8,0c0.1-1,0.3-1.9,0.4-2.9c0,0,0.1,0,0.1,0
		C16.9,4.8,17,5.7,17.2,6.7z"/>
	<path id="XMLID_269_" class="st0" d="M4.8,11.8c0-0.3,0-0.5,0-0.9c0.4,0,0.7,0.1,1.1,0.1c0.1,0,0.2,0.2,0.2,0.3
		c0,0.1-0.1,0.3-0.3,0.3C5.6,11.7,5.2,11.7,4.8,11.8z"/>
	<path id="XMLID_268_" class="st0" d="M4.8,10.7c0-0.3,0-0.5,0-0.7c0.3,0,0.6,0,0.9,0.1c0.1,0,0.2,0.2,0.2,0.3
		c0,0.1-0.1,0.2-0.2,0.3C5.5,10.7,5.2,10.7,4.8,10.7z"/>
	<path id="XMLID_267_" class="st0" d="M8.9,10.9c0-0.3,0-0.6,0-0.9c0.4,0,0.7,0,1,0.1c0.1,0,0.3,0.2,0.3,0.3c0,0.1-0.1,0.3-0.2,0.4
		C9.7,10.8,9.3,10.8,8.9,10.9z"/>
</g>
</svg>
