<?xml version="1.0" encoding="utf-8"?>
<!-- Generator: Adobe Illustrator 19.0.0, SVG Export Plug-In . SVG Version: 6.00 Build 0)  -->
<svg version="1.1" id="Layer_1" xmlns="http://www.w3.org/2000/svg" xmlns:xlink="http://www.w3.org/1999/xlink" x="0px" y="0px"
	 viewBox="0 0 36 36" style="enable-background:new 0 0 36 36;" xml:space="preserve">
<style type="text/css">
	.st0{display:none;fill:#010101;}
	.st1{fill:#010101;}
</style>
<g id="XMLID_17_">
	<path id="XMLID_15_" class="st0" d="M17.2,2.3c0.6,0,1.3,0,1.9,0c0.3,0,0.7,0,1,0.1c0.5,0,1,0.1,1.4,0.2c1.5,0.3,2.9,0.8,4.2,1.5
		c1.1,0.6,2.1,1.3,3.1,2.1c1.1,1,2.1,2.1,3,3.3c0.5,0.7,0.9,1.5,1.3,2.4c0,0.1,0.1,0.1,0,0.2c-0.4,0.5-0.9,1-1.4,1.5
		c-0.5,0.6-1.1,1.1-1.6,1.7c0,0,0,0-0.1,0.1c-0.2,0.1-0.2,0.1-0.3-0.1c-0.4-0.9-0.8-1.8-1.2-2.6c-0.1-0.2-0.2-0.4-0.3-0.6
		c-0.1-0.1-0.1-0.2-0.3-0.2c-0.5,0-1,0-1.5,0c-0.2,0-0.2,0.1-0.1,0.2c0.2,0.6,0.5,1.2,0.7,1.8c0.4,1,0.9,2.1,1.3,3.1
		c0,0.1,0,0.2,0,0.3c-0.4,1.3-0.7,2.6-1.1,3.8c-0.1,0.3-0.1,0.4,0.3,0.4c0.4,0,0.9,0,1.3,0c0.2,0,0.3,0,0.3-0.2
		c0.3-1.1,0.7-2.1,1-3.2c0.1-0.3,0.2-0.5,0.3-0.8c0-0.1,0.1-0.2,0.1-0.2c0.3-0.3,0.5-0.5,0.8-0.8c0.7-0.7,1.4-1.4,2.1-2.1
		c0.1-0.1,0.1-0.2,0.3-0.1c0.1,0,0.1,0.1,0.1,0.2c0.3,1,0.5,2.1,0.5,3.1c0,0.2,0,0.4,0,0.5c0,0.6,0,1.2,0,1.9c0,0.3,0,0.5,0,0.8
		c0,1-0.3,2-0.5,2.9c-0.5,1.7-1.2,3.3-2.2,4.7c-0.5,0.8-1.2,1.6-1.9,2.3c-1,1.1-2.2,2-3.4,2.7c-1.8,1.1-3.8,1.8-6,2.1
		c-0.4,0.1-0.9,0.1-1.3,0.1c0,0-0.1,0-0.1,0c-0.6,0-1.3,0-1.9,0c-0.2,0-0.5,0-0.8,0c-0.9,0-1.9-0.2-2.8-0.5
		c-1.7-0.5-3.4-1.3-4.8-2.3c-0.7-0.5-1.4-1.1-2.1-1.7c-0.9-0.9-1.7-1.9-2.4-2.9c-1.2-1.8-2-3.8-2.4-6c0-0.1,0-0.2-0.1-0.3
		c0-0.1,0-0.2,0.1-0.2c0.1,0,0.1,0,0.2,0c1.4,0.7,2.8,0.6,4.2,0c1-0.5,1.7-1.3,2-2.5c0.1-0.7,0-1.4-0.5-2c-0.3-0.3-0.7-0.6-1.1-0.7
		c-0.5-0.2-1-0.4-1.6-0.5c-0.3-0.1-0.6-0.2-0.8-0.4c-0.5-0.4-0.5-0.9-0.2-1.4c0.3-0.3,0.6-0.5,1-0.5c0.5-0.1,1,0,1.4,0.2
		c0.2,0.2,0.4,0.4,0.4,0.6c0,0.2,0.1,0.2,0.3,0.2c0.4,0,0.8,0,1.2,0c0.2,0,0.3-0.1,0.3-0.3c0-0.4,0-0.8-0.2-1.2
		c-0.3-0.7-0.9-1.1-1.6-1.3c-1.4-0.3-2.6-0.1-3.8,0.8c-0.1,0.1-0.2,0.2-0.3,0.2c-0.1-0.1,0-0.1,0-0.2C3,12,3.1,11.8,3.2,11.5
		c0.6-1.2,1.3-2.3,2.1-3.3c1-1.2,2.1-2.2,3.3-3C10,4.2,11.5,3.5,13,3c0.9-0.3,1.8-0.5,2.8-0.6c0.4,0,0.8-0.1,1.2-0.1
		C17.1,2.3,17.2,2.3,17.2,2.3z"/>
	<path id="XMLID_14_" class="st0" d="M19.1,35.2c0.3-0.1,0.5-0.1,0.8-0.1c3.7-0.4,7-1.9,9.7-4.6c2.8-2.7,4.4-6,4.9-9.9
		c0-0.3,0.1-0.6,0.1-1c0,0,0-0.1,0-0.1c0,5.2,0,10.3,0,15.5c0,0.1,0,0.2-0.2,0.2C29.3,35.2,24.2,35.2,19.1,35.2z"/>
	<path id="XMLID_13_" class="st0" d="M1.9,21.3c0.1,0.5,0.2,1.1,0.3,1.6c1.6,5.9,6.2,10.5,12.2,11.9c0.8,0.2,1.7,0.3,2.6,0.4
		c0,0,0.1,0,0.1,0c-5.1,0-10.2,0-15.3,0c-0.1,0-0.1,0-0.1-0.1c0-5.1,0-10.3,0-15.4c0.1,0,0.1,0.1,0.1,0.1c0.1,0.5,0.1,0.9,0.2,1.4
		C2,21.2,2,21.3,1.9,21.3z"/>
	<path id="XMLID_12_" class="st0" d="M34.5,17.7c-0.1-0.3-0.1-0.6-0.1-0.9c-0.1-0.9-0.3-1.9-0.5-2.8c0,0,0-0.1-0.1-0.1
		c-0.1,0-0.1-0.1-0.1-0.2c-0.2-0.5-0.3-1-0.5-1.5c0-0.1,0-0.1,0-0.2c-0.5-1.2-1.2-2.3-2-3.4c-2.6-3.3-6-5.4-10.2-6.1
		c-0.6-0.1-1.1-0.2-1.7-0.2c0,0-0.1,0-0.1,0c5.1,0,10.2,0,15.2,0c0.1,0,0.2,0,0.2,0.2C34.5,7.5,34.5,12.6,34.5,17.7z"/>
	<path id="XMLID_11_" class="st0" d="M17.2,2.3c-0.2,0.1-0.4,0-0.6,0.1c-2.1,0.2-4,0.7-5.9,1.6C9.2,4.8,7.7,5.8,6.4,7.1
		c-1.5,1.5-2.7,3.3-3.5,5.3c0,0,0,0.1,0,0.1c0.1,0.1,0,0.2,0,0.2c-0.3,0.9-0.6,1.8-0.8,2.8c0,0.1,0,0.3,0,0.4
		c-0.1,0.2-0.1,0.4-0.1,0.6c-0.1,0.3-0.1,0.6-0.1,0.9c0,0.1,0,0.2-0.1,0.1c0-5.1,0-10.1,0-15.2c0-0.1,0-0.1,0.1-0.1
		C7,2.3,12.1,2.3,17.2,2.3z"/>
	<path id="XMLID_10_" class="st1" d="M1.9,15.9c0.1-0.8,0.3-1.5,0.5-2.2c0.1-0.4,0.2-0.8,0.4-1.1c0.7-0.6,1.6-1,2.5-1.1
		c0.9-0.1,1.8,0,2.6,0.6c0.5,0.4,0.8,0.9,0.8,1.6c0,0.2,0,0.5,0,0.7c0,0.1-0.1,0.2-0.2,0.2c-0.5,0-1.1,0-1.6,0c-0.1,0-0.1,0-0.1-0.1
		c0-0.3-0.1-0.6-0.4-0.7c-0.6-0.4-1.7-0.3-2.2,0.2c-0.5,0.5-0.4,1,0.2,1.4c0.2,0.1,0.5,0.2,0.7,0.3c0.7,0.2,1.4,0.4,2,0.8
		c0.7,0.4,1.2,0.9,1.2,1.8c0.1,0.8-0.2,1.6-0.7,2.3C7,21.2,6.1,21.6,5,21.8C4.1,22,3.2,22,2.4,21.6c-0.1-0.1-0.3-0.2-0.4-0.2
		c-0.1-0.5-0.1-1-0.2-1.5c0-0.1,0-0.1,0-0.2c0-0.3,0-0.6,0-0.9c0.1-0.1,0.1-0.1,0.2-0.1c0.4,0,0.7,0,1.1,0c0.2,0,0.2,0,0.2,0.2
		c0,0.5,0.3,0.8,0.8,0.9c0.5,0.1,1,0,1.4-0.2C5.7,19.5,6,19.3,6,18.9c0.1-0.4,0-0.6-0.3-0.8c-0.2-0.2-0.5-0.2-0.8-0.3
		c-0.5-0.2-1-0.3-1.5-0.5c-0.5-0.2-1-0.5-1.4-1C2,16.2,1.9,16.1,1.9,15.9z"/>
	<path id="XMLID_9_" class="st0" d="M1.9,15.9c0.4,0.8,1.2,1.2,2,1.5c0.4,0.1,0.9,0.3,1.3,0.4c0.2,0.1,0.4,0.2,0.6,0.3
		c0.2,0.2,0.3,0.4,0.3,0.7c-0.1,0.4-0.3,0.7-0.7,0.9C5,20,4.5,20,4,19.9c-0.5-0.1-0.8-0.5-0.8-1c0-0.1,0-0.2-0.2-0.2
		c-0.4,0-0.8,0-1.3,0c0-0.4,0-0.7,0-1.1c0.1-0.3,0.1-0.5,0.1-0.8C1.9,16.5,1.9,16.2,1.9,15.9z"/>
	<path id="XMLID_8_" class="st1" d="M13.9,16.5c-0.3,0.5-0.6,1.1-0.9,1.6c-0.6,1.1-1.2,2.2-1.8,3.3c-0.1,0.1-0.1,0.1-0.2,0.1
		c-0.4,0-0.9,0-1.3,0c-0.1,0-0.2,0-0.2-0.2c0-1,0-2-0.1-3.1c0-1.4-0.1-2.8-0.1-4.2c0-0.7,0-1.4-0.1-2.1c0-0.2,0.1-0.2,0.2-0.2
		c0.6,0,1.2,0,1.8,0c0.1,0,0.2,0,0.2,0.2c0,1.3,0,2.7-0.1,4c0,0.6,0,1.1,0,1.7c0,0,0,0.1,0,0.1c0.1,0,0.1-0.1,0.1-0.1
		c0.8-1.4,1.6-2.9,2.4-4.3c0.1-0.2,0.2-0.2,0.4-0.2c0.4,0,0.8,0,1.2,0c0.2,0,0.2,0.1,0.2,0.2c0,1.4,0,2.9,0,4.3c0,0,0,0.1,0,0.1
		c0.1,0,0.1-0.1,0.1-0.1c1.1-1.9,2.3-3.8,3.4-5.7c0.1-0.1,0.2-0.2,0.3-0.2c0.6,0,1.2,0,1.8,0c0.1,0,0.1,0,0.1,0c0,0,0,0.1-0.1,0.1
		c-1,1.7-2.1,3.3-3.1,5c-0.9,1.5-1.8,2.9-2.7,4.4c-0.1,0.1-0.2,0.2-0.3,0.2c-0.4,0-0.8,0-1.2,0c-0.2,0-0.2-0.1-0.2-0.2
		c0-1.5,0-3.1,0-4.6C14,16.6,14,16.6,13.9,16.5C14,16.5,14,16.5,13.9,16.5z"/>
	<path id="XMLID_7_" class="st1" d="M33.1,12c0.3,0.6,0.5,1.2,0.7,1.8c0,0,0,0.1,0,0.1c-0.3,0.2-0.5,0.5-0.8,0.8
		c-0.6,0.6-1.1,1.1-1.6,1.7c-0.1,0.1-0.1,0.2-0.2,0.2c-0.3,0.3-0.5,0.7-0.6,1.1c-0.4,1.2-0.8,2.4-1.1,3.6c0,0.1-0.1,0.2-0.2,0.2
		c-0.6,0-1.2,0-1.8,0c-0.1,0-0.2,0-0.1-0.2c0.4-1.4,0.8-2.7,1.1-4.1c0-0.1,0-0.2,0-0.3c-0.7-1.7-1.4-3.3-2.1-5
		c-0.1-0.2-0.1-0.2,0.1-0.2c0.6,0,1.2,0,1.8,0c0.1,0,0.2,0,0.2,0.2c0.5,1.1,1,2.2,1.5,3.3c0.1,0.2,0.1,0.2,0.2,0c0.9-1,1.9-2,2.8-3
		C33,12.2,33.1,12.1,33.1,12z"/>
	<path id="XMLID_6_" class="st1" d="M16,26.6c0,0.6,0,1.1,0,1.7c0,0.2,0,0.2-0.2,0.2c-0.2,0-0.4,0-0.6,0c-0.2,0-0.2,0-0.2-0.2
		c0-1.1,0-2.2,0-3.3c0-0.4,0-0.3-0.3-0.3c-0.3,0-0.6,0-0.8,0c-0.1,0-0.2,0-0.2-0.2c0-0.2,0-0.4,0-0.6c0-0.2,0-0.2,0.2-0.2
		c0.9,0,1.8,0,2.7,0c0.2,0,0.4,0,0.6,0c0.1,0,0.2,0,0.2,0.2c0,0.2,0,0.4,0,0.6c0,0.1,0,0.2-0.2,0.2c-0.3,0-0.6,0-0.9,0
		c-0.2,0-0.2,0-0.2,0.2C16,25.5,16,26.1,16,26.6z"/>
	<path id="XMLID_5_" class="st1" d="M18.1,26.2c0-0.7,0-1.5,0-2.2c0-0.2,0-0.2,0.2-0.2c0.2,0,0.4,0,0.6,0c0.2,0,0.2,0.1,0.2,0.2
		c0,1.2,0,2.3,0,3.5c0,0.3,0,0.3,0.3,0.3c0.5,0,0.9,0,1.4,0c0.1,0,0.2,0,0.2,0.2c0,0.2,0,0.4,0,0.6c0,0.1,0,0.1-0.1,0.1
		c-0.9,0-1.7,0-2.6,0c-0.2,0-0.1-0.1-0.1-0.2C18.1,27.6,18.1,26.9,18.1,26.2z"/>
	<g id="XMLID_22_">
		<path id="XMLID_23_" class="st1" d="M26.1,19.5c-0.1-1.3-0.2-2.6-0.4-3.9c-0.1-1.2-0.2-2.5-0.3-3.7c0-0.1-0.1-0.2-0.2-0.2
			c-0.3,0-0.7,0-1,0c-0.3,0-0.6,0-1,0c-0.1,0-0.2,0-0.3,0.1c-0.5,0.8-1,1.6-1.5,2.4c-1.5,2.4-3.1,4.7-4.6,7.1c0,0-0.1,0.1-0.1,0.1
			c0,0.1,0.1,0,0.2,0c0.6,0,1.2,0,1.8,0c0.1,0,0.2,0,0.3-0.2c0.4-0.7,0.9-1.3,1.3-2c0.1-0.1,0.2-0.2,0.3-0.2c1,0,2,0,2.9,0
			c0.2,0,0.2,0,0.2,0.2c0.1,0.6,0.1,1.3,0.2,1.9c0,0.1,0,0.2,0.2,0.2c0.6,0,1.3,0,1.9,0c0.1,0,0.1,0,0.1-0.1
			C26.2,20.7,26.1,20.1,26.1,19.5z M23.4,17.4c-0.5,0-1.1,0-1.6,0c-0.1,0-0.2,0-0.1-0.1c0.6-1,1.2-2,1.8-3c0,0,0-0.1,0.1-0.1
			c0,0.1,0,0.1,0,0.2c0,0.9,0,1.9,0,2.8C23.7,17.4,23.7,17.4,23.4,17.4z"/>
	</g>
	<g id="XMLID_18_">
		<path id="XMLID_19_" class="st1" d="M13.9,28.4c-0.1-0.3-0.2-0.6-0.3-0.9c-0.4-1.2-0.9-2.4-1.3-3.6c0-0.1-0.1-0.2-0.2-0.2
			c-0.1,0-0.3,0-0.4,0c-0.1,0-0.3,0-0.4,0c-0.1,0-0.2,0-0.2,0.2c-0.3,0.7-0.5,1.4-0.8,2.1c-0.3,0.8-0.6,1.6-0.9,2.4
			c-0.1,0.1,0,0.2,0.1,0.2c0.3,0,0.5,0,0.8,0c0.1,0,0.2,0,0.2-0.2c0.1-0.3,0.2-0.6,0.3-0.8c0-0.1,0.1-0.2,0.2-0.2c0.4,0,0.9,0,1.3,0
			c0.1,0,0.2,0,0.2,0.2c0.1,0.3,0.2,0.6,0.3,0.9c0,0.1,0.1,0.1,0.2,0.1c0.3,0,0.5,0,0.8,0C13.9,28.6,13.9,28.5,13.9,28.4z
			 M11.9,26.5c-0.2,0-0.5,0-0.7,0c-0.1,0-0.1,0-0.1-0.1c0.1-0.5,0.3-1,0.4-1.4c0,0,0,0,0-0.1c0.1,0.2,0.1,0.5,0.2,0.7
			c0.1,0.2,0.1,0.5,0.2,0.7C12.1,26.5,12,26.5,11.9,26.5z"/>
	</g>
</g>
</svg>
