<?xml version="1.0" encoding="utf-8"?>
<!-- Generator: Adobe Illustrator 19.0.0, SVG Export Plug-In . SVG Version: 6.00 Build 0)  -->
<svg version="1.1" id="Layer_1" xmlns="http://www.w3.org/2000/svg" xmlns:xlink="http://www.w3.org/1999/xlink" x="0px" y="0px"
	 viewBox="0 0 18.7 7.8" style="enable-background:new 0 0 18.7 7.8;" xml:space="preserve">
<style type="text/css">
	.st0{display:none;fill:#FFFFFF;}
</style>
<g id="XMLID_36_">
	<path id="XMLID_230_" class="st0" d="M18.2,7.7C18.2,7.7,18.2,7.8,18.2,7.7c-0.6,0-1,0-1.5,0c-4.6,0-9.2,0-13.8,0c0,0,0.1,0,0.1,0
		c0.4-0.1,0.8-0.2,1.1-0.5c0.5-0.4,0.5-1,0.4-1.6c-0.1-0.5-0.4-0.8-0.9-1C3.6,4.6,3.4,4.5,3.2,4.5c-0.2,0-0.5-0.1-0.7-0.1
		c-0.2,0-0.3-0.1-0.3-0.3c0-0.2,0.1-0.3,0.2-0.4c0.1,0,0.1-0.1,0.2-0.1c0.4-0.1,0.9,0,1.2,0.3C4,3.6,4.3,3.3,4.6,3
		C4.4,2.9,4.2,2.7,4,2.6C3.5,2.4,2.9,2.4,2.4,2.4C1.3,2.6,0.6,3.6,0.9,4.6c0.2,0.6,0.6,0.9,1.2,1C2.4,5.6,2.7,5.7,3,5.7
		c0.2,0,0.4,0.1,0.4,0.3C3.4,6.3,3.3,6.5,3,6.6c-0.5,0.1-1.1,0-1.5-0.3C1.3,6.4,1.2,6.5,1,6.7C0.9,6.8,0.7,6.9,0.6,7
		c0-2.2,0-4.3,0-6.5c0.1,0,0.2,0,0.4,0c0,0.3,0,0.6,0,0.9c0.1,0,0.2,0,0.2,0c0-0.1,0-0.3,0-0.4c0.1,0.1,0.1,0.1,0.2,0.2
		c0.1,0,0.1-0.1,0.2-0.1c0,0.1,0,0.2,0,0.4c0.1,0,0.2,0,0.2,0c0-0.3,0-0.6,0-0.9c0,0,0.1,0,0.1,0C2,0.8,2,1,2,1.2
		c0,0.2,0.2,0.3,0.4,0.3c0.2,0,0.3-0.1,0.3-0.4c0-0.2,0-0.4,0-0.6c0.1,0,0.2,0,0.3,0C3,0.6,2.9,0.7,2.9,0.7c-0.1,0.2,0,0.4,0.3,0.4
		c0,0,0.1,0.1,0.1,0.1c-0.1,0-0.1,0.1-0.2,0.1c0,0-0.1,0-0.1,0c-0.1-0.1-0.2,0-0.3,0.1C3,1.5,3.1,1.6,3.3,1.5
		c0.1-0.1,0.2-0.2,0.2-0.3C3.5,1,3.4,1,3.3,0.9c0,0-0.1,0-0.1,0c0,0-0.1,0-0.1-0.1c0,0,0.1-0.1,0.1-0.1c0.1,0,0.1,0,0.2,0
		c0,0,0.1-0.1,0.1-0.1c-0.1,0-0.1-0.1-0.2-0.1c0.1,0,0.2,0,0.3,0c0,0.3,0,0.6,0,0.9c0.1,0,0.2,0,0.2,0c0-0.3,0-0.6,0-0.9
		c0.1,0,0.3,0,0.4,0C4.2,0.6,4,0.7,4,0.8c0,0.2,0,0.4,0,0.5c0,0.2,0.2,0.2,0.4,0.2c0.2,0,0.3-0.1,0.3-0.3c-0.1,0-0.2,0.1-0.3,0.1
		c-0.1,0-0.2,0-0.2-0.1c0-0.1,0-0.2,0-0.3c0-0.1,0.1-0.1,0.2-0.1c0.1,0.1,0.2,0.1,0.3,0.1c0-0.2-0.1-0.2-0.2-0.3c0.5,0,0.9,0,1.4,0
		c0,0,0,0,0,0C5.7,0.7,5.6,0.8,5.6,0.9c0,0.1,0.1,0.2,0.3,0.2c0,0,0.1,0,0.1,0c0,0,0.1,0.1,0.1,0.1C6,1.3,6,1.3,6,1.3
		c0,0-0.1,0-0.1,0c-0.1-0.1-0.2,0-0.3,0.1C5.7,1.5,6,1.6,6.2,1.5c0.1-0.1,0.1-0.2,0.1-0.3C6.3,1,6.2,1,6.1,0.9c-0.1,0-0.1,0-0.2,0
		c0,0-0.1,0-0.1-0.1c0,0,0-0.1,0-0.1c0,0,0.1,0,0.1,0c0.1,0.1,0.2,0,0.2-0.1c-0.1,0-0.1-0.1-0.2-0.1c0.2,0,0.4,0,0.6,0
		c-0.1,0.3-0.2,0.6-0.4,1c0.1,0,0.2,0,0.3-0.1c0,0,0.3,0,0.3,0C7,1.6,7.1,1.5,7.2,1.5C7.1,1.2,7,0.9,6.9,0.6c0.2,0,0.4,0,0.6,0
		C7.4,0.6,7.3,0.7,7.3,0.8c0,0.2,0,0.4,0,0.6c0,0.1,0.2,0.2,0.4,0.2c0.2,0,0.3-0.1,0.3-0.3c-0.1,0-0.2,0.1-0.3,0.1
		c-0.1,0-0.2,0-0.2-0.1c0-0.1,0-0.2,0-0.3c0-0.1,0.1-0.2,0.2-0.1c0.1,0.1,0.2,0.1,0.3,0.1c0-0.2-0.1-0.2-0.2-0.3c0.1,0,0.2,0,0.3,0
		c0,0.3,0,0.6,0,0.9c0.1,0,0.2,0,0.2,0c0-0.1,0-0.2,0-0.3c0,0,0,0,0.1,0c0,0.1,0.1,0.1,0.1,0.2c0.1,0.2,0.1,0.2,0.3,0.1
		C8.7,1.4,8.7,1.3,8.6,1.2c0-0.1,0.1-0.2,0.1-0.3c0-0.2-0.1-0.3-0.2-0.3c0.1,0,0.3,0,0.4,0c0,0.3,0,0.6,0,0.9c0.1,0,0.2,0,0.2,0
		c0-0.3,0-0.6,0-0.9c0.1,0,0.1,0,0.2,0c0,0.3,0,0.6,0,0.9c0.1,0,0.1,0,0.2,0c0-0.1,0-0.2,0-0.4c0.1,0,0.2,0,0.3,0c0-0.1,0-0.1,0-0.2
		c-0.1,0-0.2,0-0.3,0c0-0.1,0-0.1,0-0.2c0.1,0,0.3,0,0.4,0c0-0.1,0-0.1,0-0.2c0,0,0.1,0,0.1,0c0,0.3,0,0.6,0,1c0.1,0,0.2,0,0.2,0
		c0-0.3,0-0.6,0-0.9c0.1,0,0.2,0,0.4,0c-0.1,0.1-0.2,0.2-0.2,0.4c0,0.1,0,0.2,0,0.3c0,0.2,0.1,0.3,0.3,0.3c0.2,0,0.3-0.1,0.4-0.3
		c-0.1,0-0.2,0-0.3,0.1c-0.1,0.1-0.2,0-0.2-0.1c0-0.1,0-0.2,0-0.3c0-0.1,0.1-0.1,0.2-0.1c0.1,0.1,0.2,0.1,0.3,0c0,0,0,0,0,0
		c-0.1-0.1-0.2-0.2-0.2-0.3c0.1,0,0.2,0,0.3,0c0,0.3,0,0.6,0,0.9c0.2,0,0.4,0,0.6,0c0-0.1,0-0.1,0-0.2c-0.1,0-0.3,0-0.4,0
		c0-0.1,0-0.1,0-0.2c0.1,0,0.2,0,0.3,0c0-0.1,0-0.1,0-0.2c-0.1,0-0.2,0-0.3,0c0-0.1,0-0.1,0-0.1c0.1,0,0.3,0,0.4,0
		c0-0.1,0-0.1,0-0.2c0.3,0,0.6,0,1,0c0,0.3,0,0.6,0,0.9c0.4,0.1,0.6,0,0.7-0.2c0.1-0.3,0-0.6-0.3-0.7c0.1,0,0.3,0,0.4,0
		c0,0.3,0,0.6,0,0.9c0.2,0,0.4,0,0.6,0c0-0.1,0-0.1,0-0.2c-0.1,0-0.3,0-0.4,0c0-0.1,0-0.1,0-0.2c0.1,0,0.2,0,0.3,0
		c0-0.1,0-0.1,0-0.2c-0.1,0-0.2,0-0.3,0c0-0.1,0-0.1,0-0.1c0.1,0,0.3,0,0.4,0c0-0.1,0-0.1,0-0.2c0.1,0,0.2,0,0.3,0
		c-0.1,0.1-0.2,0.2-0.2,0.4c0,0.2,0.2,0.2,0.3,0.2c0,0,0.1,0,0.1,0.1c0,0-0.1,0.1-0.1,0.1c0,0-0.1,0-0.1,0c-0.1-0.1-0.2,0-0.2,0.1
		c0.2,0.1,0.4,0.2,0.6,0.1c0.1-0.1,0.2-0.2,0.1-0.3C15,1,15,1,14.8,0.9c0,0-0.1,0-0.1,0c0,0-0.1,0-0.1-0.1c0,0,0-0.1,0.1-0.1
		c0,0,0.1,0,0.1,0c0.1,0.1,0.2,0,0.3-0.1c-0.1,0-0.1-0.1-0.2-0.1c0.1,0,0.2,0,0.3,0c0,0.1,0,0.1,0,0.2c0.1,0,0.2,0,0.2,0
		c0,0.2,0,0.5,0,0.7c0.1,0,0.2,0,0.2,0c0-0.2,0-0.5,0-0.7c0.1,0,0.1,0,0.2,0c0-0.1,0-0.1,0-0.2c0,0,0.1,0,0.1,0c0,0.3,0,0.6,0,0.9
		c0.1,0,0.2,0,0.2,0c0-0.3,0-0.6,0-0.9c0.1,0,0.1,0,0.2,0c0,0.3,0,0.6,0,0.9c0.1,0,0.1,0,0.2,0c0-0.1,0-0.3,0-0.4
		c0.2,0.1,0.2,0.5,0.5,0.4c0-0.3,0-0.6,0-0.9c0,0,0,0,0.1,0c0.1,0.3,0.4,0.6,0.3,0.9c0.1,0,0.2,0,0.3,0c-0.1-0.3,0.1-0.5,0.2-0.8
		c0-0.1,0.1-0.1,0.1-0.2c0.1,0,0.2,0,0.3,0C18.2,2.9,18.2,5.3,18.2,7.7c0-0.1-0.1-0.1-0.1-0.2c-0.2-0.4-0.4-0.8-0.6-1.3
		c-0.1-0.3-0.3-0.5-0.4-0.8c0,0,0,0,0.1,0c1-0.5,0.9-1.8,0.4-2.4c-0.4-0.5-0.9-0.7-1.5-0.7c-0.7,0-1.3,0-2,0c0,0-0.1,0-0.1,0
		c0,1.8,0,3.5,0,5.3c0.4,0,0.9,0,1.3,0c0-0.7,0-1.3,0-2c0.1,0,0.2,0,0.3,0c0.1,0,0.2,0,0.2,0.1c0.3,0.6,0.5,1.2,0.8,1.8
		c0,0.1,0.1,0.1,0.2,0.1C17.3,7.7,17.7,7.7,18.2,7.7z M6.3,7.7c0.4,0,0.8,0,1.2,0c0-1.4,0-2.7,0-4.1c0.4,0,0.9,0,1.3,0
		c0-0.4,0-0.8,0-1.2c-1.3,0-2.5,0-3.8,0c0,0.4,0,0.8,0,1.2c0.4,0,0.9,0,1.3,0C6.3,5,6.3,6.4,6.3,7.7z M11.1,5.1
		c0.2,0.5,0.4,0.9,0.5,1.4c0.1,0.3,0.1,0.3,0.5,0.3c0.3,0,0.6,0,1,0c-0.7-1.6-1.3-3.2-2-4.9C10.4,3.5,9.7,5.1,9,6.8
		c0.4,0,0.8,0,1.2,0c0.1,0,0.2,0,0.2-0.1C10.6,6.1,10.8,5.6,11.1,5.1z M12.4,7.7c0.4,0,0.7,0,1,0c-0.1-0.2-0.2-0.5-0.3-0.7
		C12.9,7.3,12.7,7.5,12.4,7.7z M8.9,7C8.8,7.3,8.7,7.5,8.6,7.7c0.3,0,0.7,0,1,0C9.4,7.5,9.1,7.3,8.9,7z M18,1.5c0-0.1,0-0.2,0-0.2
		c-0.1,0-0.2,0-0.2,0c0,0.1,0,0.2,0,0.2C17.8,1.5,17.9,1.5,18,1.5z M5,1.3c-0.1,0-0.2,0-0.2,0c0,0.1,0,0.2,0,0.2c0.1,0,0.2,0,0.2,0
		C5,1.4,5,1.4,5,1.3z M12.2,1.5c0-0.1,0-0.2,0-0.2c-0.1,0-0.2,0-0.2,0c0,0.1,0,0.2,0,0.2C12.1,1.5,12.1,1.5,12.2,1.5z"/>
	<path id="XMLID_227_" d="M18.2,7.7c-0.5,0-0.9,0-1.4,0c-0.1,0-0.1,0-0.2-0.1c-0.3-0.6-0.5-1.2-0.8-1.8c0-0.1-0.1-0.1-0.2-0.1
		c-0.1,0-0.2,0-0.3,0c0,0.7,0,1.3,0,2c-0.4,0-0.9,0-1.3,0c0-1.8,0-3.5,0-5.3c0,0,0.1,0,0.1,0c0.7,0,1.3,0,2,0c0.6,0,1.1,0.2,1.5,0.7
		c0.5,0.6,0.6,1.9-0.4,2.4c0,0,0,0-0.1,0c0.1,0.3,0.3,0.5,0.4,0.8c0.2,0.4,0.4,0.8,0.6,1.3C18.1,7.6,18.2,7.6,18.2,7.7
		C18.2,7.7,18.2,7.7,18.2,7.7z M15.3,4.7c0.3,0,0.5,0,0.8,0c0.3,0,0.5-0.3,0.5-0.5c0-0.2-0.2-0.5-0.4-0.5c-0.3,0-0.6,0-0.9,0
		C15.3,4,15.3,4.3,15.3,4.7z"/>
	<path id="XMLID_226_" d="M0.6,7C0.7,6.9,0.9,6.8,1,6.7c0.1-0.1,0.3-0.3,0.4-0.4c0.5,0.4,1,0.4,1.5,0.3C3.3,6.5,3.4,6.3,3.4,6
		C3.3,5.8,3.1,5.7,3,5.7c-0.3,0-0.5-0.1-0.8-0.1c-0.6-0.1-1-0.4-1.2-1c-0.3-1,0.3-2,1.4-2.2c0.6-0.1,1.1,0,1.6,0.2
		C4.2,2.7,4.4,2.9,4.6,3C4.3,3.3,4,3.6,3.7,3.8C3.4,3.6,3,3.5,2.5,3.6c-0.1,0-0.1,0-0.2,0.1C2.2,3.7,2.1,3.9,2.1,4.1
		c0,0.2,0.1,0.3,0.3,0.3c0.2,0.1,0.5,0.1,0.7,0.1c0.2,0,0.4,0.1,0.6,0.1c0.5,0.2,0.8,0.5,0.9,1c0.1,0.6,0,1.1-0.4,1.6
		C3.9,7.5,3.5,7.7,3.1,7.7c0,0-0.1,0-0.1,0c-0.2,0-0.5,0-0.7,0c-0.1,0-0.2,0-0.3,0C1.5,7.6,1,7.4,0.6,7C0.6,7.1,0.6,7.1,0.6,7z"/>
	<path id="XMLID_225_" d="M1.8,0.6c0,0.3,0,0.6,0,0.9c-0.1,0-0.1,0-0.2,0c0-0.1,0-0.2,0-0.4C1.5,1.2,1.5,1.3,1.4,1.3
		c-0.1,0-0.1-0.1-0.2-0.2c0,0.1,0,0.2,0,0.4c-0.1,0-0.2,0-0.2,0c0-0.3,0-0.6,0-0.9c0.1,0,0.2,0,0.2,0C1.3,0.7,1.3,0.8,1.4,1
		c0.1-0.2,0.1-0.3,0.2-0.4C1.7,0.6,1.8,0.6,1.8,0.6z"/>
	<path id="XMLID_224_" d="M17.1,0.6c0,0.3,0,0.6,0,0.9c-0.3,0.1-0.3-0.3-0.5-0.4c0,0.1,0,0.3,0,0.4c-0.1,0-0.2,0-0.2,0
		c0-0.3,0-0.6,0-0.9c0.1,0,0.1,0,0.2,0c0.1,0.1,0.2,0.3,0.3,0.4c0,0,0,0,0,0c0-0.1,0-0.3,0-0.4C16.9,0.6,17,0.6,17.1,0.6z"/>
	<path id="XMLID_221_" d="M8.5,0.6c0.1,0.1,0.3,0.2,0.2,0.3c0,0.1-0.1,0.2-0.1,0.3c0,0.1,0.1,0.2,0.2,0.3c-0.2,0.1-0.2,0-0.3-0.1
		c0-0.1-0.1-0.1-0.1-0.2c0,0,0,0-0.1,0c0,0.1,0,0.2,0,0.3c-0.1,0-0.2,0-0.2,0c0-0.3,0-0.6,0-0.9C8.2,0.6,8.3,0.6,8.5,0.6z M8.3,1
		c0.1,0,0.1,0,0.2-0.1c0,0,0-0.1,0-0.1c-0.1,0-0.1,0-0.2-0.1C8.3,0.9,8.3,0.9,8.3,1z"/>
	<path id="XMLID_218_" d="M13.3,0.6c0.3,0.1,0.4,0.4,0.3,0.7c-0.1,0.2-0.3,0.3-0.7,0.2c0-0.3,0-0.6,0-0.9C13,0.6,13.1,0.6,13.3,0.6z
		 M13.1,0.8c0,0.2,0,0.3,0,0.5c0.2,0,0.2,0,0.2-0.2c0,0,0-0.1,0-0.1C13.3,0.8,13.3,0.8,13.1,0.8z"/>
	<path id="XMLID_217_" d="M11.9,0.6c0,0.1,0,0.1,0,0.2c-0.1,0-0.3,0-0.4,0c0,0.1,0,0.1,0,0.1c0.1,0,0.2,0,0.3,0c0,0.1,0,0.1,0,0.2
		c-0.1,0-0.2,0-0.3,0c0,0.1,0,0.1,0,0.2c0.1,0,0.3,0,0.4,0c0,0.1,0,0.1,0,0.2c-0.2,0-0.4,0-0.6,0c0-0.3,0-0.6,0-0.9
		C11.4,0.6,11.6,0.6,11.9,0.6z"/>
	<path id="XMLID_216_" d="M14.3,0.6c0,0.1,0,0.1,0,0.2c-0.1,0-0.3,0-0.4,0c0,0.1,0,0.1,0,0.1c0.1,0,0.2,0,0.3,0c0,0.1,0,0.1,0,0.2
		c-0.1,0-0.2,0-0.3,0c0,0.1,0,0.1,0,0.2c0.1,0,0.3,0,0.4,0c0,0.1,0,0.1,0,0.2c-0.2,0-0.4,0-0.6,0c0-0.3,0-0.6,0-0.9
		C13.9,0.6,14.1,0.6,14.3,0.6z"/>
	<path id="XMLID_215_" d="M2.7,0.6c0,0.2,0,0.4,0,0.6c0,0.2-0.1,0.3-0.3,0.4C2.2,1.5,2,1.4,2,1.2C2,1,2,0.8,2,0.6c0.1,0,0.2,0,0.2,0
		c0,0.2,0,0.4,0,0.6c0,0.1,0,0.2,0.1,0.2c0.1,0,0.1-0.1,0.1-0.2c0-0.2,0-0.4,0-0.6C2.6,0.6,2.6,0.6,2.7,0.6z"/>
	<path id="XMLID_214_" d="M6.9,0.6C7,0.9,7.1,1.2,7.2,1.5C7.1,1.5,7,1.6,6.9,1.4c0,0-0.3,0-0.3,0C6.6,1.6,6.5,1.5,6.3,1.5
		c0.1-0.3,0.2-0.6,0.4-1C6.7,0.6,6.8,0.6,6.9,0.6z"/>
	<path id="XMLID_213_" d="M14.9,0.6c0.1,0,0.1,0.1,0.2,0.1c-0.1,0.1-0.1,0.2-0.3,0.1c0,0-0.1,0-0.1,0c0,0-0.1,0-0.1,0.1
		c0,0,0,0,0.1,0.1c0,0,0.1,0,0.1,0C15,1,15,1,15.1,1.2c0,0.1,0,0.2-0.1,0.3c-0.2,0.1-0.4,0.1-0.6-0.1c0.1-0.1,0.1-0.2,0.2-0.1
		c0,0,0.1,0,0.1,0c0,0,0.1-0.1,0.1-0.1c0,0-0.1-0.1-0.1-0.1c-0.1,0-0.3,0-0.3-0.2c0-0.2,0.1-0.3,0.2-0.4C14.7,0.6,14.8,0.6,14.9,0.6
		z"/>
	<path id="XMLID_212_" d="M3.3,0.6c0,0,0.1,0.1,0.2,0.1c-0.1,0-0.1,0.1-0.1,0.1c-0.1,0-0.1,0-0.2,0c0,0-0.1,0-0.1,0.1
		c0,0,0,0.1,0.1,0.1c0,0,0.1,0,0.1,0C3.4,1,3.5,1,3.5,1.2c0,0.1,0,0.3-0.2,0.3C3.1,1.6,3,1.5,2.8,1.4C2.9,1.3,2.9,1.2,3,1.3
		c0,0,0.1,0,0.1,0c0.1,0,0.1-0.1,0.2-0.1c0,0-0.1-0.1-0.1-0.1c-0.3,0-0.4-0.2-0.3-0.4C2.9,0.7,3,0.6,3,0.6C3.1,0.6,3.2,0.6,3.3,0.6z
		"/>
	<path id="XMLID_211_" d="M6.1,0.6c0.1,0,0.1,0.1,0.2,0.1C6.2,0.8,6.2,0.9,6,0.8c0,0-0.1,0-0.1,0c0,0-0.1,0,0,0.1c0,0,0,0.1,0.1,0.1
		c0,0,0.1,0,0.2,0C6.2,1,6.3,1,6.3,1.1c0,0.1,0,0.2-0.1,0.3C6,1.6,5.7,1.5,5.6,1.4c0.1-0.1,0.1-0.2,0.3-0.1c0,0,0.1,0,0.1,0
		c0,0,0.1,0,0.1-0.1C6,1.2,6,1.2,6,1.1c0,0-0.1,0-0.1,0c-0.1,0-0.2-0.1-0.3-0.2c0-0.1,0-0.3,0.2-0.3c0,0,0,0,0,0
		C5.9,0.6,6,0.6,6.1,0.6z"/>
	<path id="XMLID_210_" d="M9.9,0.6c0,0.1,0,0.1,0,0.2c-0.1,0-0.3,0-0.4,0c0,0.1,0,0.1,0,0.2c0.1,0,0.2,0,0.3,0c0,0.1,0,0.1,0,0.2
		c-0.1,0-0.2,0-0.3,0c0,0.1,0,0.2,0,0.4c-0.1,0-0.2,0-0.2,0c0-0.3,0-0.6,0-0.9C9.5,0.6,9.7,0.6,9.9,0.6z"/>
	<path id="XMLID_209_" d="M7.7,0.6c0.1,0.1,0.2,0.1,0.2,0.3c-0.1,0-0.2,0-0.3-0.1c-0.1-0.1-0.2,0-0.2,0.1c0,0.1,0,0.2,0,0.3
		c0,0.1,0.1,0.1,0.2,0.1c0.1,0,0.2-0.1,0.3-0.1c0,0.2-0.1,0.3-0.3,0.3c-0.2,0-0.4,0-0.4-0.2c0-0.2,0-0.4,0-0.6
		c0-0.1,0.1-0.1,0.2-0.2C7.6,0.6,7.6,0.6,7.7,0.6z"/>
	<path id="XMLID_208_" d="M4.5,0.6c0.1,0.1,0.2,0.1,0.2,0.3c-0.1,0-0.2,0-0.3-0.1c-0.1-0.1-0.2,0-0.2,0.1c0,0.1,0,0.2,0,0.3
		c0,0.1,0.1,0.1,0.2,0.1c0.1,0,0.2-0.1,0.3-0.1c0,0.2-0.1,0.3-0.3,0.3C4.3,1.5,4,1.5,4,1.3c0-0.2,0-0.4,0-0.5c0-0.1,0.1-0.1,0.2-0.2
		C4.3,0.6,4.4,0.6,4.5,0.6z"/>
	<path id="XMLID_207_" d="M10.9,0.6c0.1,0.1,0.2,0.2,0.2,0.3c0,0,0,0,0,0c-0.1,0-0.2,0.1-0.3,0c-0.1-0.1-0.2,0-0.2,0.1
		c0,0.1,0,0.2,0,0.3c0,0.1,0.1,0.1,0.2,0.1c0.1-0.1,0.2,0,0.3-0.1c0,0.2-0.2,0.3-0.4,0.3c-0.2,0-0.3-0.1-0.3-0.3c0-0.1,0-0.2,0-0.3
		c0-0.2,0.1-0.3,0.2-0.4C10.7,0.6,10.8,0.6,10.9,0.6z"/>
	<path id="XMLID_206_" class="st0" d="M0.6,7.1C1,7.4,1.5,7.6,2,7.7c0.1,0,0.2,0,0.3,0c-0.5,0-1.1,0-1.6,0C0.6,7.5,0.6,7.3,0.6,7.1z
		"/>
	<path id="XMLID_205_" d="M15.8,0.6c0,0.1,0,0.1,0,0.2c-0.1,0-0.1,0-0.2,0c0,0.2,0,0.5,0,0.7c-0.1,0-0.2,0-0.2,0c0-0.2,0-0.5,0-0.7
		c-0.1,0-0.1,0-0.2,0c0-0.1,0-0.1,0-0.2C15.4,0.6,15.6,0.6,15.8,0.6z"/>
	<path id="XMLID_204_" d="M17.9,0.6c0,0.1-0.1,0.1-0.1,0.2c-0.1,0.2-0.3,0.5-0.2,0.8c-0.1,0-0.2,0-0.3,0c0.1-0.4-0.1-0.6-0.3-0.9
		c0.1,0,0.2,0,0.3,0c0,0.1,0.1,0.2,0.1,0.3c0.1-0.1,0.1-0.2,0.1-0.3C17.8,0.6,17.9,0.6,17.9,0.6z"/>
	<path id="XMLID_203_" d="M10.3,0.6c0,0.3,0,0.6,0,0.9c-0.1,0-0.2,0-0.2,0c0-0.3,0-0.6,0-1C10.1,0.6,10.2,0.6,10.3,0.6z"/>
	<path id="XMLID_202_" d="M3.9,0.6c0,0.3,0,0.6,0,0.9c-0.1,0-0.1,0-0.2,0c0-0.3,0-0.6,0-0.9C3.7,0.6,3.8,0.6,3.9,0.6z"/>
	<path id="XMLID_201_" d="M9.1,0.6c0,0.3,0,0.6,0,0.9c-0.1,0-0.1,0-0.2,0c0-0.3,0-0.6,0-0.9C9,0.6,9,0.6,9.1,0.6z"/>
	<path id="XMLID_200_" d="M16.2,0.6c0,0.3,0,0.6,0,0.9c-0.1,0-0.1,0-0.2,0c0-0.3,0-0.6,0-0.9C16,0.6,16.1,0.6,16.2,0.6z"/>
	<path id="XMLID_199_" class="st0" d="M2.5,0.6c0,0.2,0,0.4,0,0.6c0,0.1,0,0.2-0.1,0.2c-0.1,0-0.1-0.1-0.1-0.2c0-0.2,0-0.4,0-0.6
		C2.3,0.6,2.4,0.6,2.5,0.6z"/>
	<path id="XMLID_198_" class="st0" d="M1.6,0.6C1.6,0.7,1.5,0.8,1.4,1C1.3,0.8,1.3,0.7,1.2,0.6C1.3,0.6,1.5,0.6,1.6,0.6z"/>
	<path id="XMLID_197_" class="st0" d="M16.8,0.6c0,0.1,0,0.3,0,0.4c0,0,0,0,0,0c-0.1-0.1-0.2-0.3-0.3-0.4
		C16.6,0.6,16.7,0.6,16.8,0.6z"/>
	<path id="XMLID_196_" class="st0" d="M17.7,0.6c0,0.1-0.1,0.2-0.1,0.3c-0.1-0.1-0.1-0.2-0.1-0.3C17.5,0.6,17.6,0.6,17.7,0.6z"/>
	<path id="XMLID_195_" d="M6.3,7.7c0-1.4,0-2.7,0-4.1c-0.4,0-0.9,0-1.3,0c0-0.4,0-0.8,0-1.2c1.3,0,2.5,0,3.8,0c0,0.4,0,0.8,0,1.2
		c-0.4,0-0.9,0-1.3,0c0,1.4,0,2.7,0,4.1C7.1,7.7,6.7,7.7,6.3,7.7z"/>
	<path id="XMLID_194_" d="M11.1,5.1c-0.2,0.5-0.4,1-0.6,1.6c0,0.1-0.1,0.1-0.2,0.1c-0.4,0-0.8,0-1.2,0c0.7-1.6,1.4-3.2,2.1-4.9
		c0.7,1.6,1.3,3.3,2,4.9c-0.3,0-0.7,0-1,0c-0.4,0-0.4,0-0.5-0.3C11.4,6,11.3,5.6,11.1,5.1z"/>
	<path id="XMLID_193_" d="M12.4,7.7c0.3-0.2,0.5-0.5,0.7-0.7c0.1,0.2,0.2,0.5,0.3,0.7C13.1,7.7,12.8,7.7,12.4,7.7z"/>
	<path id="XMLID_192_" d="M8.9,7c0.2,0.2,0.5,0.4,0.7,0.7c-0.4,0-0.7,0-1,0C8.7,7.5,8.8,7.3,8.9,7z"/>
	<path id="XMLID_191_" d="M18,1.5c-0.1,0-0.1,0-0.2,0c0-0.1,0-0.2,0-0.2c0.1,0,0.1,0,0.2,0C18,1.4,18,1.4,18,1.5z"/>
	<path id="XMLID_190_" d="M5,1.3c0,0.1,0,0.2,0,0.2c-0.1,0-0.1,0-0.2,0c0-0.1,0-0.2,0-0.2C4.9,1.3,4.9,1.3,5,1.3z"/>
	<path id="XMLID_189_" d="M12.2,1.5c-0.1,0-0.1,0-0.2,0c0-0.1,0-0.2,0-0.2c0.1,0,0.1,0,0.2,0C12.2,1.3,12.2,1.4,12.2,1.5z"/>
	<path id="XMLID_188_" class="st0" d="M15.3,4.7c0-0.4,0-0.7,0-1c0.3,0,0.6,0,0.9,0c0.2,0,0.4,0.3,0.4,0.5c0,0.3-0.2,0.5-0.5,0.5
		C15.9,4.7,15.6,4.7,15.3,4.7z"/>
	<path id="XMLID_187_" class="st0" d="M8.3,1c0-0.1,0-0.1,0-0.2c0.1,0,0.1,0,0.2,0.1c0,0,0,0.1,0,0.1C8.4,0.9,8.4,1,8.3,1z"/>
	<path id="XMLID_186_" class="st0" d="M13.1,0.8c0.2,0,0.2,0,0.2,0.2c0,0,0,0.1,0,0.1c0,0.2,0,0.2-0.2,0.2C13.1,1.1,13.1,1,13.1,0.8
		z"/>
</g>
</svg>
