<?xml version="1.0" encoding="utf-8"?>
<!-- Generator: Adobe Illustrator 19.0.0, SVG Export Plug-In . SVG Version: 6.00 Build 0)  -->
<svg version="1.1" id="Layer_1" xmlns="http://www.w3.org/2000/svg" xmlns:xlink="http://www.w3.org/1999/xlink" x="0px" y="0px"
	 viewBox="0 0 26.1 11.1" style="enable-background:new 0 0 26.1 11.1;" xml:space="preserve">
<style type="text/css">
	.st0{display:none;fill:#FFFFFF;}
</style>
<g id="XMLID_37_">
	<path id="XMLID_77_" d="M0.4,2.9c0-0.8,0-1.6,0-2.4c3.2,0,6.4,0,9.5,0c0,0.1,0,0.2,0,0.3c0,1.7,0,3.4,0,5.1c0,0.2,0,0.3,0,0.5
		c0.1,1,0.6,1.6,1.5,1.7c0.9,0.2,1.8-0.3,2-1.1c0.1-0.3,0.1-0.6,0.1-0.8c0-1.8,0-3.6,0-5.3c0-0.1,0-0.2,0-0.3c0.9,0,1.9,0,2.8,0
		c0,0.1,0,0.2,0,0.3c0,1.7,0,3.5,0,5.2c0,0.4,0,0.9-0.1,1.3c-0.3,1.6-1.2,2.6-2.8,3c-1.1,0.3-2.3,0.3-3.4,0c-1.2-0.3-2-1-2.5-2.1
		C7.3,7.6,7.1,7.1,7.1,6.5c0-1.1,0-2.2,0-3.3c0-0.1,0-0.2,0-0.3c-0.8,0-1.6,0-2.4,0c0,2.5,0,5,0,7.4c-0.9,0-1.8,0-2.7,0
		c0-2.5,0-4.9,0-7.4C1.5,2.9,0.9,2.9,0.4,2.9z"/>
	<path id="XMLID_76_" class="st0" d="M0.4,2.9c0.5,0,1.1,0,1.7,0c0,2.5,0,4.9,0,7.4c0.9,0,1.8,0,2.7,0c0-2.5,0-4.9,0-7.4
		c0.8,0,1.6,0,2.4,0c0,0.1,0,0.2,0,0.3c0,1.1,0,2.2,0,3.3c0,0.6,0.1,1.2,0.4,1.7C8,9.3,8.8,10,10,10.3c1.1,0.3,2.3,0.3,3.4,0
		c1.6-0.4,2.5-1.5,2.8-3c0.1-0.4,0.1-0.9,0.1-1.3c0-1.7,0-3.5,0-5.2c0-0.1,0-0.2,0-0.3c-0.9,0-1.9,0-2.8,0c0,0.1,0,0.2,0,0.3
		c0,1.8,0,3.6,0,5.3c0,0.3,0,0.6-0.1,0.8c-0.2,0.8-1.1,1.3-2,1.1C10.5,7.9,10,7.3,9.9,6.3c0-0.2,0-0.3,0-0.5c0-1.7,0-3.4,0-5.1
		c0-0.1,0-0.2,0-0.3c-3.2,0-6.4,0-9.5,0c0-0.1,0-0.1,0-0.2c7.4,0,14.7,0,22.1,0c-0.1,0-0.2,0-0.2,0c-0.8,0-1.5,0.2-2.2,0.6
		c-1.9,1-2.8,2.7-2.7,4.8c0.1,2.3,1.6,4.2,3.9,4.7c0.3,0.1,0.6,0.1,0.9,0.2c-7.3,0-14.5,0-21.8,0C0.4,8,0.4,5.4,0.4,2.9z"/>
	<path id="XMLID_75_" d="M22.1,10.5c-0.3-0.1-0.6-0.1-0.9-0.2c-2.3-0.5-3.8-2.4-3.9-4.7c-0.1-2.1,0.8-3.7,2.7-4.8
		c0.7-0.4,1.4-0.6,2.2-0.6c0.1,0,0.2,0,0.2,0c0.1,0,0.1,0,0.2,0c0.1,0,0.1,0,0.2,0c0.8,0,1.5,0.2,2.2,0.6c0.1,0.1,0.3,0.1,0.4,0.2
		c0,0.7,0,1.5,0,2.2c-0.3,0.2-0.6,0.4-0.8,0.6c-0.1-0.1-0.2-0.2-0.2-0.3c-0.8-0.9-2-1.1-2.9-0.7c-1.6,0.8-1.9,3.2-0.5,4.4
		c0.9,0.9,2.3,0.8,3.3-0.1c0.2-0.2,0.3-0.3,0.5-0.5C25,7,25.2,7.2,25.5,7.4c0,0.8,0,1.5,0,2.3c0,0-0.1,0-0.1,0
		c-0.6,0.4-1.2,0.6-1.9,0.7c-0.2,0-0.5,0.1-0.7,0.1C22.5,10.5,22.3,10.5,22.1,10.5z"/>
	<path id="XMLID_74_" class="st0" d="M25.5,7.4C25.2,7.2,25,7,24.7,6.8c-0.2,0.2-0.3,0.3-0.5,0.5c-1,0.9-2.4,1-3.3,0.1
		c-1.3-1.2-1-3.7,0.5-4.4c0.9-0.5,2.1-0.2,2.9,0.7c0.1,0.1,0.1,0.2,0.2,0.3c0.3-0.2,0.6-0.4,0.8-0.6C25.5,4.6,25.5,6,25.5,7.4z"/>
	<path id="XMLID_73_" class="st0" d="M22.7,10.5c0.2,0,0.5-0.1,0.7-0.1c0.7-0.1,1.3-0.4,1.9-0.7c0,0,0.1,0,0.1,0c0,0.3,0,0.6,0,0.9
		C24.6,10.5,23.7,10.5,22.7,10.5z"/>
	<path id="XMLID_72_" class="st0" d="M25.5,1.1c-0.1-0.1-0.3-0.1-0.4-0.2c-0.7-0.4-1.4-0.6-2.2-0.6c-0.1,0-0.1,0-0.2,0
		c1,0,1.9,0,2.9,0C25.5,0.5,25.5,0.8,25.5,1.1z"/>
</g>
</svg>
